<svg id="Layer_1" data-name="Layer 1" xmlns="http://www.w3.org/2000/svg" width="147" height="180" viewBox="0 0 147 180"><title>positions</title><path d="M143.8,148.14c-4.1-8-30.24-15.09-45.48-18.81-9.77-2.38-6.9-41.2-6.9-41.2H54.7s2.88,38.82-6.89,41.2c-15.24,3.72-41.38,10.81-45.48,18.81C-1.16,155,.3,180,.3,180H145.82S147.28,155,143.8,148.14Z" fill="#f9bb90"/><path d="M42.2,55.88c-5.11.88-9.63,5.17-6.72,14.27,2.21,6.89-.92,14.27,9.24,14.27Z" fill="#f9bb90"/><path d="M104.29,55.88c5.11.88,9.63,5.17,6.72,14.27-2.21,6.89.91,14.27-9.24,14.27Z" fill="#f9bb90"/><path d="M103.16,56.84c0-.73,0-1.46,0-2.21,0-20.24-12.06-32-27-32a26.64,26.64,0,0,0-3.11.18A26.64,26.64,0,0,0,70,22.59c-15,0-27,11.8-27,32,0,.75,0,1.48.06,2.21-.64,13.47-2.53,34.55,3.54,42.78s15.55,17,20.05,17h13c4.51,0,14.07-8.83,20.06-17S103.79,70.31,103.16,56.84Z" fill="#ffcaa6"/><path d="M99.62,96.77c-6,8.13-15.55,15.06-20.06,15.06h-13c-4.5,0-14.06-6.93-20.05-15.06-3.28-4.44-4.23-12.63-4.32-21.35-.09,9.75.69,19.27,4.32,24.2,6,8.13,15.55,17,20.05,17h13c4.51,0,14.07-8.83,20.06-17,3.63-4.93,4.41-14.45,4.31-24.2C103.85,84.14,102.89,92.33,99.62,96.77Z" fill="#59380d"/><path d="M105.17,34.41a32.78,32.78,0,0,0-64.21,0c-1.46,6.83,1.11,33.2,1.5,30.87,1.6-9.59,11.28-31.61,13.9-30.6,8.26,3.19,12.29,4.4,16.7,4.21,4.42.19,8.45-1,16.71-4.21,2.62-1,12.29,21,13.89,30.6C104.05,67.61,106.63,41.24,105.17,34.41Z" fill="#58350b"/><path d="M55.86,34.72s-1.62-10.47,8.19-21.4c7.27-8.1,6.76-6.9,8.36-12.17.89-2.94,9.81,4,15,11.7,2.74,4.06,3.61,11.56,2.66,21.81C90.09,34.66,75.3,44.73,55.86,34.72Z" fill="#9f5323"/><path d="M57.46,79.66c-2.05,0-8.89-.24-10.9-3.38-1.71-2.66-2.47-11.35-.24-13.77.24-.27,1-1.09,6-1.09,5.75,0,17.51,1.35,18.54,3.82,1.25,3-2.64,10.36-4.69,12.56C65,79.09,61,79.66,57.46,79.66Zm-5.1-17.29c-3.4,0-5,.4-5.32.77-1.79,2-1.31,10.06.34,12.63,1.39,2.17,6.11,2.94,10.08,2.94,4.28,0,7.33-.8,8-1.56C67.56,74.94,71,68.05,70,65.6,69.38,64.12,59.82,62.37,52.36,62.37Z" fill="#342e34"/><path d="M88.93,79.66h0c-3.49,0-7.55-.58-8.76-1.86-2-2.2-5.93-9.55-4.68-12.56,1-2.47,12.78-3.82,18.53-3.82,5,0,5.8.82,6,1.09,2.22,2.42,1.47,11.11-.24,13.77C97.82,79.42,91,79.66,88.93,79.66ZM94,62.37c-7.46,0-17,1.75-17.63,3.23-1,2.45,2.43,9.34,4.5,11.55.7.76,3.76,1.56,8,1.56,4,0,8.69-.77,10.08-2.94,1.65-2.57,2.13-10.67.34-12.63C99,62.77,97.43,62.37,94,62.37Z" fill="#342e34"/><rect x="69.99" y="64.49" width="6.4" height="1.09" fill="#342e34"/><path d="M143.8,148.14c-3.54-6.91-23.48-13.12-38.67-17.09a42.14,42.14,0,0,1-64.13,0c-15.2,4-35.13,10.19-38.67,17.09S.3,180,.3,180H145.82S147.28,155,143.8,148.14Z" fill="#fff"/><path d="M143.8,148.14c-2.68-5.22-14.7-10-27-13.79-4-1.22-8-2.33-11.7-3.3a41.45,41.45,0,0,1-20.35,13.17l-9.06,15.86h0L73.27,180h72.55S147.28,155,143.8,148.14Z" fill="#e8453e"/><path d="M70.82,160.08l-9-15.74A41.37,41.37,0,0,1,41,131.05c-3.61.94-7.48,2-11.34,3.18C17.27,138,5,142.87,2.33,148.14-1.16,155,.3,180,.3,180h73Z" fill="#e8453e"/><path d="M61.83,144.34,51.6,126.43v-.76c1.44-2.86,2.31-7.07,2.83-11.65H51.6a29.82,29.82,0,0,0-10.68,0c-6,1.26-13.78,7.12-11.6,19a6.85,6.85,0,0,0,.34,1.21C33,143.09,55,153.39,65.38,157.84c3.3,1.41,5.44,2.24,5.44,2.24Z" fill="#d23527"/><path d="M105.61,114a29.75,29.75,0,0,0-10.67,0H91.7c.56,5,1.55,9.55,3.24,12.4h0L84.78,144.22l-9.06,15.86h0s2.14-.83,5.43-2.24c10.35-4.43,32.17-14.66,35.68-23.49a6.89,6.89,0,0,0,.39-1.33C119.4,121.14,111.65,115.28,105.61,114Z" fill="#d23527"/><path d="M97.85,127.17,94,117.11c.76-.07,5.54-.73,6.53-.73a21.79,21.79,0,0,1,4.51.43c4.37.91,11.27,5.26,9.35,15.71a3.84,3.84,0,0,1-.24.79c-2.09,5.28-13.87,13-31.69,20.86Z" fill="#e8453e"/><path d="M48.28,127.17l3.88-10.06c-.76-.07-5.55-.73-6.53-.73a21.72,21.72,0,0,0-4.51.43c-4.38.91-11.27,5.26-9.36,15.71a5.67,5.67,0,0,0,.24.79c2.1,5.28,13.88,13,31.7,20.86Z" fill="#e8453e"/><path d="M145.81,158.55c-.32-4.37-.92-8.28-2-10.41a6.08,6.08,0,0,0-.35-.59l-.07-.11-.09-.13L143,147l-.13-.18-.1-.12-.06-.06-.31-.35,0,0-.21-.21-.15-.15-.22-.21-.19-.17-.29-.26-.12-.09-.06-.06a1.84,1.84,0,0,0-.22-.17l-.43-.34-.18-.14h0l-.09-.08c-.25-.18-.5-.36-.77-.53a.18.18,0,0,0-.07,0l-.19-.13-.61-.39-.23-.15-.12-.07-.67-.4-.19-.11-.16-.09-.25-.14-.53-.29-.32-.17-.09-.06-.23-.12-.38-.19-.37-.19-.4-.2-.32-.16-.06,0-.29-.15-.67-.31-.25-.12-.14-.06-.4-.18-.69-.31-.24-.1-.28-.12-.78-.33-.36-.15L130,139l-1-.4-.29-.12-.43-.17-.51-.2-.57-.22-.64-.24-.07,0-.58-.22-.3-.11-.65-.23-.2-.07-.64-.23-.12,0-.67-.24-.55-.18-.47-.16-.6-.21-.25-.08-.57-.19h0l-1.41-.46L119,135l-.43-.13-1-.31-.64-.2-.08,0a6.89,6.89,0,0,0,.39-1.33c2.18-11.88-5.57-17.74-11.61-19a29.75,29.75,0,0,0-10.67,0H91.7l-.06-.53h0c0-.36-.08-.72-.11-1.08v-.09c0-.32,0-.63-.08-.95,0-.08,0-.16,0-.24l-.06-.83c0-.08,0-.17,0-.25l-.06-.85v-.11c.88-.85,1.76-1.74,2.63-2.66.45-.48.91-1,1.35-1.47.89-1,1.76-2,2.58-3,.62-.77,1.21-1.54,1.78-2.3.21-.28.4-.59.6-.9l.18-.32.37-.68.18-.39c.11-.23.22-.47.32-.71l.17-.41q.15-.39.3-.81c0-.12.09-.24.13-.37.13-.39.25-.8.37-1.21v0c.12-.43.23-.87.33-1.33,0-.12.06-.25.08-.38.08-.33.15-.67.21-1l.09-.47c.06-.33.11-.66.17-1,0-.16.05-.32.07-.48.06-.37.1-.73.15-1.1,0-.14,0-.27.05-.4.12-1,.22-2.1.3-3.19v-.11c7.79-.93,5.24-7.76,7.3-14.16,2.79-8.73-1.26-13-6.11-14.14.63-7.64,1.1-17.74.27-21.6A32.31,32.31,0,0,0,86.06,11C81.49,5,75.18,0,73.06.5V180h72.76s.21-3.52.28-8.28c.05-3.18,0-6.9-.13-10.51C145.93,160.31,145.88,159.42,145.81,158.55ZM94.94,126.43a23.15,23.15,0,0,1-2.41-7,23.35,23.35,0,0,0,2.41,7ZM91.7,114.06c.07.59.14,1.18.22,1.76C91.84,115.24,91.77,114.65,91.7,114.06Zm.24,1.86c.08.58.16,1.15.26,1.72C92.1,117.07,92,116.5,91.94,115.92Zm.27,1.77c.1.58.2,1.15.31,1.7C92.41,118.84,92.31,118.27,92.21,117.69Z" fill="#525252" opacity="0.15"/><path d="M0,147.6V180H32.4A32.5,32.5,0,0,1,0,147.6Z" fill="#fff"/><path d="M113.65,179.89h32.4v-32.4A32.5,32.5,0,0,1,113.65,179.89Z" fill="#fff"/></svg>