<svg id="Layer_1" data-name="Layer 1" xmlns="http://www.w3.org/2000/svg" width="119" height="164" viewBox="0 0 119 164"><title>positions</title><path d="M32.14,99.86s27.87-14.13,56.45,0l2.62-20.08H24Z" fill="#2e0102"/><path d="M32,64.59c2,5.38,1.11,10.67-2.06,11.82s-7.39-2.27-9.43-7.64S19.44,58.1,22.61,57,30,59.21,32,64.59Z" fill="#a55a4e"/><path d="M86.44,64.59c-2,5.38-1.11,10.67,2.06,11.82s7.39-2.27,9.43-7.64S99,58.1,95.86,57,88.47,59.21,86.44,64.59Z" fill="#a55a4e"/><path d="M115.62,127.69c-5.44-5.92-31.29-2.17-40-13-1.77-2.2-3.5-9.94-4.86-17.7H47.67c-1.36,7.76-3.09,15.5-4.86,17.7-8.67,10.79-34.52,7-39.95,13C.62,130.13,0,135.68,0,140.75V164H118.47V140.75C118.45,135.68,117.85,130.13,115.62,127.69Z" fill="#f9bb90"/><path d="M26.89,40.18C31.42,20.42,45.64,12.51,59,12.29v0h.67c13.32.26,27.52,8.2,32,28,6.44,28.5-4.75,46.34-17.47,57.12-5.14,4.37-10,6.32-14.65,6.31v0h-.67v0c-4.64,0-9.5-2-14.63-6.35C31.51,86.52,20.37,68.66,26.89,40.18Z" fill="#ffcaa6"/><path d="M35.71,31.87s41.74,9,48.38,22.39c0,0,5.59,39.27.24,50.87,0,0,18.63.5,27.38-37.83,0,0,8.7-51.2-25.79-63,0,0-68.45-21.64-79,38.91C-4.17,106.32,39,105.84,39,105.84S18.64,61.86,35.71,31.87Z" fill="#342e34"/><path d="M115.62,127.69c-3.33-3.63-14.32-3.63-24.32-5.56a38.28,38.28,0,0,1-64.12,0c-10,1.93-21,1.93-24.32,5.56C.62,130.13,0,135.68,0,140.75V164H118.47V140.75C118.45,135.68,117.85,130.13,115.62,127.69Z" fill="#fde00f"/><path d="M115.1,127.21l-.1-.09c-.19-.14-.39-.28-.6-.41l-.11-.07c-.21-.12-.44-.25-.67-.36l-.06,0c-.25-.12-.52-.24-.8-.35l-.14-.05c-.28-.11-.58-.22-.89-.32h-.06c-.32-.11-.64-.2-1-.29l0,0-1.1-.27h-.07c-4.94-1.12-11.76-1.56-18.17-2.8h0c-6.34-1.22-12.28-3.22-15.64-7.4-1.57-2-3.12-8.29-4.39-15.13a35.56,35.56,0,0,0,2.89-2.22c.75-.64,1.49-1.3,2.23-2A61.22,61.22,0,0,1,86,98.65a24.29,24.29,0,0,1-1.67,6.48s18.63.5,27.38-37.83c0,0,8.7-51.2-25.79-63A97.8,97.8,0,0,0,58.88.5V164h59.59V140.75c0-5.07-.62-10.62-2.85-13.06A4.77,4.77,0,0,0,115.1,127.21Z" opacity="0.15"/><path d="M0,138.26V164H25.74A25.81,25.81,0,0,1,0,138.26Z" fill="#fff"/><path d="M93.26,164H119V138.26A25.81,25.81,0,0,1,93.26,164Z" fill="#fff"/></svg>