<?xml version="1.0" encoding="utf-8"?>
<!-- Generator: Adobe Illustrator 23.0.1, SVG Export Plug-In . SVG Version: 6.00 Build 0)  -->
<svg version="1.1" id="Layer_1" xmlns="http://www.w3.org/2000/svg" xmlns:xlink="http://www.w3.org/1999/xlink" x="0px" y="0px"
	 width="120px" height="120px" viewBox="0 0 120 120" style="enable-background:new 0 0 120 120;" xml:space="preserve">
<style type="text/css">
	.st0{fill-rule:evenodd;clip-rule:evenodd;fill:#FFFFFF;}
</style>
<g>
	<path class="st0" d="M58.3,57.5h19.1c1.7,0,3-1.3,3-3s-1.4-3-3-3H58.3c-1.7,0-3,1.3-3,3S56.6,57.5,58.3,57.5z"/>
	<path class="st0" d="M86.5,57.4c0.8,0,1.6-0.3,2.1-0.9c0.6-0.6,0.9-1.3,0.9-2.1c0-0.8-0.3-1.6-0.9-2.1c-1.1-1.1-3.2-1.1-4.3,0
		c-0.6,0.6-0.9,1.3-0.9,2.1c0,0.8,0.3,1.6,0.9,2.1C84.9,57.1,85.7,57.4,86.5,57.4z"/>
	<path class="st0" d="M101.5,37.5h-39v-9.2c0-1.7-2.2-3.8-3.8-3.8H16.5c-1.7,0-3,2.1-3,3.8v25.6c0,1.7,1.4,3.6,3,3.6h6.1l8,8.7
		c0.6,0.7,1.4,0.9,2.3,0.9c0.4,0,0.5-0.1,0.9-0.3c1.2-0.4,1.8-1.6,1.8-2.9v-6.4h6v18.6c0,2.2,2.3,4.4,4.5,4.4h27.5v12.2
		c0,1.6,0.8,3.1,2.4,3.7c0.5,0.2,0.9,0.3,1.4,0.3c1.1,0,2.1-0.2,2.9-1l14.9-15.2h6.4c2.2,0,4-2.2,4-4.4V42.4
		C105.5,40.2,103.7,37.5,101.5,37.5z M41.5,42.4v9.1h-8.6c-1.7,0-3.4,0.7-3.4,2.4v2l-3.4-3.7c-0.6-0.6-1.2-0.7-2.1-0.7h-4.5v-21h36
		v7H46C43.8,37.5,41.5,40.2,41.5,42.4z M97.5,72.5h-4.1c-1.1,0-2,0.2-2.8,1l-9.1,9.2v-6.7c0-2.2-2.1-3.6-4.3-3.6H49.5v-27h48V72.5z"
		/>
</g>
</svg>
