<?xml version="1.0" encoding="utf-8"?>
<!-- Generator: Adobe Illustrator 23.0.1, SVG Export Plug-In . SVG Version: 6.00 Build 0)  -->
<svg version="1.1" id="Layer_1" xmlns="http://www.w3.org/2000/svg" xmlns:xlink="http://www.w3.org/1999/xlink" x="0px" y="0px"
	 width="86.9px" height="86.9px" viewBox="0 0 86.9 86.9" style="enable-background:new 0 0 86.9 86.9;" xml:space="preserve">
<style type="text/css">
	.st0{fill-rule:evenodd;clip-rule:evenodd;fill-opacity:0;}
	.st1{fill-rule:evenodd;clip-rule:evenodd;fill:#333333;stroke:#333333;stroke-width:3;stroke-miterlimit:10;}
</style>
<path class="st0" d="M43.5,1.5c-23.2,0-42,18.8-42,42c0,23.2,18.8,42,42,42s42-18.8,42-42C85.4,20.3,66.6,1.5,43.5,1.5"/>
<path class="st1" d="M43.5,1.5c-23.2,0-42,18.8-42,42c0,23.2,18.8,42,42,42s42-18.8,42-42C85.4,20.3,66.6,1.5,43.5,1.5z M41.7,5.3
	v18.1c-4.7-0.1-9.1-0.6-13.2-1.5c0.7-2.2,1.5-4.2,2.5-6C33.9,9.9,37.7,6.2,41.7,5.3z M32.9,6.6c-2,2.1-3.7,4.7-5.2,7.6
	c-1,2.1-2,4.4-2.7,6.8c-3.6-1-6.8-2.2-9.6-3.6C20,12.4,26,8.6,32.9,6.6z M12.9,20.4c3.2,1.7,6.9,3.1,10.9,4.2
	c-1.3,5.2-2.1,10.9-2.3,17.1H5.2C5.6,33.7,8.4,26.3,12.9,20.4z M13,66.6c-4.5-6-7.4-13.3-7.8-21.3h16.4c0.1,6.1,0.9,11.9,2.2,17
	C19.8,63.4,16.1,64.9,13,66.6z M15.3,69.5c2.7-1.4,6-2.7,9.6-3.6c0.8,2.5,1.7,4.8,2.8,6.8c1.5,3,3.3,5.6,5.2,7.6
	C26,78.4,20,74.5,15.3,69.5z M41.7,81.6c-3.9-0.9-7.7-4.5-10.8-10.5c-0.9-1.8-1.7-3.9-2.5-6.1c4.1-0.8,8.5-1.4,13.2-1.5V81.6z
	 M41.7,59.9c-5,0.1-9.8,0.7-14.2,1.6c-1.3-4.9-2-10.4-2.2-16.2h16.4V59.9z M41.7,41.7H25.3c0.1-5.8,0.9-11.3,2.2-16.2
	c4.4,0.9,9.2,1.5,14.2,1.6V41.7z M74,20.3c4.5,6,7.4,13.3,7.8,21.3H65.3c-0.1-6.1-0.9-11.9-2.2-17C67.1,23.5,70.8,22.1,74,20.3z
	 M71.6,17.5c-2.7,1.4-6,2.7-9.6,3.6c-0.8-2.5-1.7-4.8-2.8-6.8c-1.5-3-3.3-5.6-5.2-7.6C60.9,8.6,66.9,12.4,71.6,17.5z M45.3,5.3
	C49.2,6.2,53,9.9,56,15.9c0.9,1.8,1.7,3.9,2.5,6.1c-4.1,0.8-8.5,1.4-13.2,1.5V5.3z M45.3,27.1c5-0.1,9.8-0.7,14.2-1.6
	c1.3,4.9,2,10.4,2.2,16.2H45.3V27.1z M45.3,45.3h16.4c-0.1,5.8-0.9,11.3-2.2,16.2c-4.4-0.9-9.2-1.5-14.2-1.6V45.3z M45.3,81.6V63.5
	c4.7,0.1,9.1,0.6,13.2,1.5c-0.7,2.2-1.5,4.2-2.5,6C53,77.1,49.2,80.7,45.3,81.6z M54.1,80.3c2-2.1,3.7-4.7,5.2-7.6
	c1-2.1,2-4.4,2.7-6.8c3.6,1,6.8,2.2,9.6,3.6C66.9,74.5,60.9,78.3,54.1,80.3z M74,66.6c-3.2-1.7-6.9-3.1-10.9-4.2
	c1.3-5.2,2.1-10.9,2.3-17.1h16.4C81.4,53.3,78.5,60.6,74,66.6z"/>
</svg>
