<?xml version="1.0" encoding="utf-8"?>
<!-- Generator: Adobe Illustrator 23.0.1, SVG Export Plug-In . SVG Version: 6.00 Build 0)  -->
<svg version="1.1" id="Layer_1" xmlns="http://www.w3.org/2000/svg" xmlns:xlink="http://www.w3.org/1999/xlink" x="0px" y="0px"
	 width="1287.1px" height="233.5px" viewBox="0 0 1287.1 233.5" style="enable-background:new 0 0 1287.1 233.5;"
	 xml:space="preserve">
<style type="text/css">
	.st0{filter:url(#Adobe_OpacityMaskFilter);}
	.st1{fill:#FFFFFF;}
	.st2{mask:url(#mask-1_1_);}
	.st3{opacity:4.000000e-02;}
	.st4{fill-rule:evenodd;clip-rule:evenodd;}
</style>
<g>
	<defs>
		<filter id="Adobe_OpacityMaskFilter" filterUnits="userSpaceOnUse" x="-23" y="9.4" width="1332" height="219.8">
			<feColorMatrix  type="matrix" values="1 0 0 0 0  0 1 0 0 0  0 0 1 0 0  0 0 0 1 0"/>
		</filter>
	</defs>
	<mask maskUnits="userSpaceOnUse" x="-23" y="9.4" width="1332" height="219.8" id="mask-1_1_">
		<rect x="-23" y="0" class="st0" width="1332" height="233.5"/>
		<g>
			<rect id="rect-0_1_" x="0" y="0" class="st1" width="1287" height="233.5"/>
		</g>
	</mask>
	<g class="st2">
		<g class="st3">
			<g>
				<g>
					<path id="path-2" class="st4" d="M1002,75.9h42c1.1,0,2,0.9,2,2v31c0,1.1-0.9,2-2,2h-42c-1.1,0-2-0.9-2-2v-31
						C1000,76.8,1000.9,75.9,1002,75.9L1002,75.9z M1042,79.9v16.8l-3.4-2.8c-0.7-0.6-1.8-0.6-2.6,0l-5.4,4.5l-12.5-10.9
						c-0.7-0.6-1.8-0.7-2.6,0l-11.6,9.4V79.9H1042L1042,79.9z M1029.8,83.1c-2.1,0-3.7,1.6-3.7,3.7c0,2,1.7,3.7,3.7,3.7
						c2.1,0,3.7-1.6,3.7-3.7C1033.5,84.7,1031.8,83.1,1029.8,83.1L1029.8,83.1z M1004,101.9v5h38v-5l-4.7-3.9l-5.4,4.5
						c-0.8,0.6-1.8,0.6-2.6,0l-12.6-10.9L1004,101.9L1004,101.9z"/>
				</g>
			</g>
			<g>
				<g>
					<path id="path-3" class="st4" d="M913.7,20.3c0.6-0.5,1.5-0.5,2.2-0.2s1.1,1,1.1,1.8v21c0,0.8-0.5,1.4-1.1,1.8
						c-0.3,0.1-0.6,0.2-0.9,0.2c-0.4,0-0.9-0.1-1.3-0.4l-8.2-6.1v4.5c0,1.1-0.7,2-1.8,2H873c-1.1,0-2-0.9-2-2v-21c0-1.1,0.9-2,2-2
						h30.7c1.1,0,1.8,0.9,1.8,2v4.5L913.7,20.3L913.7,20.3z M875,40.9h26.5v-17H875V40.9L875,40.9z M913,38.9l-7-5.3v-2.4l7-5.3
						V38.9L913,38.9z"/>
				</g>
			</g>
			<g>
				<g>
					<path id="path-4" class="st4" d="M396,34.4l17.4,17.2c0.9,0.9,0.9,2.3,0,3.2c-0.4,0.4-1,0.7-1.6,0.7c-0.6,0-1.1-0.2-1.6-0.6
						l-17.5-17.3c-2.6,1.8-5.7,2.9-9.1,2.9c-8.6,0-15.6-6.9-15.6-15.5c0-8.5,7-15.5,15.6-15.5c8.6,0,15.6,6.9,15.6,15.5
						C399.3,28.5,398,31.8,396,34.4L396,34.4z M372,24.9c0-6.3,5.2-11.5,11.7-11.5c6.4,0,11.7,5.2,11.7,11.5s-5.2,11.5-11.7,11.5
						C377.2,36.4,372,31.2,372,24.9L372,24.9z M391.5,25.2c0,1-0.8,1.8-1.7,1.8h-4.2v4c0,1-0.8,1.7-1.8,1.7c-1,0-1.8-0.8-1.8-1.7v-4
						h-4.4c-1,0-1.7-0.8-1.7-1.8c0-1,0.8-1.8,1.7-1.8h4.4v-4.5c0-1,0.8-1.7,1.8-1.7c1,0,1.8,0.8,1.8,1.7v4.5h4.2
						C390.7,23.4,391.5,24.2,391.5,25.2L391.5,25.2z"/>
				</g>
			</g>
			<g>
				<g>
					<path id="path-5" class="st4" d="M86.2,70.9c2.9,0,5.3,2.4,5.3,5.3c0,2.2-1.3,4.1-3.3,4.9c0,1-0.5,9.2-11.1,13.1
						c-8.9,3.2-9.2,9.4-9.2,9.9v1.6c2,0.8,3.2,2.7,3.2,4.9c0,2.9-2.5,5.3-5.4,5.3c-2.9,0-5.3-2.4-5.3-5.3c0-2.2,1.4-4.1,3.4-4.9
						V81.1c-2-0.8-3.4-2.7-3.4-4.9c0-2.9,2.3-5.3,5.2-5.3c2.9,0,5.4,2.4,5.4,5.3c0,2.2-1.2,4.1-3.2,4.9v14.2
						c1.5-1.8,4.2-3.6,7.8-4.9c7.8-2.8,8.4-8.5,8.4-9.3c-1.9-0.8-3.3-2.7-3.3-4.9C80.8,73.3,83.2,70.9,86.2,70.9L86.2,70.9z
						 M65.7,73.9c1.3,0,2.3,1,2.3,2.3s-1,2.3-2.3,2.3c-1.3,0-2.3-1-2.3-2.3S64.4,73.9,65.7,73.9L65.7,73.9z M83.8,76.2
						c0,1.3,1,2.3,2.3,2.3c1.3,0,2.3-1,2.3-2.3s-1-2.3-2.3-2.3C84.9,73.9,83.8,74.9,83.8,76.2L83.8,76.2z M63.4,110.6
						c0,1.3,1,2.3,2.3,2.3c1.3,0,2.3-1,2.3-2.3s-1-2.3-2.3-2.3C64.4,108.3,63.4,109.4,63.4,110.6L63.4,110.6z"/>
				</g>
			</g>
			<g>
				<g>
					<path id="path-6" class="st4" d="M1065,11.4v4.1c0,1.1,0.9,2,2,2s2-0.9,2-2v-4.1c0-1.1-0.9-2-2-2S1065,10.3,1065,11.4
						L1065,11.4z M1050.7,16.2c-0.8,0.8-0.8,2,0,2.8l2.9,2.9c0.4,0.4,0.9,0.6,1.4,0.6c0.5,0,1-0.2,1.4-0.6c0.8-0.8,0.8-2,0-2.8
						l-2.9-2.9C1052.8,15.4,1051.5,15.4,1050.7,16.2L1050.7,16.2z M1077.5,19.1c-0.8,0.8-0.8,2,0,2.8c0.4,0.4,0.9,0.6,1.4,0.6
						s1-0.2,1.4-0.6l2.9-2.9c0.8-0.8,0.8-2,0-2.8c-0.8-0.8-2-0.8-2.8,0L1077.5,19.1L1077.5,19.1z M1055.9,32.4
						c0-6.1,5-11.1,11.1-11.1c6.1,0,11.1,5,11.1,11.1c0,6.1-5,11.1-11.1,11.1C1060.9,43.5,1055.9,38.6,1055.9,32.4L1055.9,32.4z
						 M1067,39.5c-3.9,0-7.1-3.2-7.1-7.1s3.2-7.1,7.1-7.1c3.9,0,7.1,3.2,7.1,7.1S1070.9,39.5,1067,39.5L1067,39.5z M1050.1,34.4
						h-4.1c-1.1,0-2-0.9-2-2c0-1.1,0.9-2,2-2h4.1c1.1,0,2,0.9,2,2C1052.1,33.5,1051.2,34.4,1050.1,34.4L1050.1,34.4z M1090,32.4
						c0,1.1-0.9,2-2,2h-4.1c-1.1,0-2-0.9-2-2c0-1.1,0.9-2,2-2h4.1C1089.1,30.4,1090,31.3,1090,32.4L1090,32.4z M1056.5,45.8
						c0.8-0.8,0.8-2,0-2.8s-2-0.8-2.8,0l-2.9,2.9c-0.8,0.8-0.8,2,0,2.8c0.4,0.4,0.9,0.6,1.4,0.6s1-0.2,1.4-0.6L1056.5,45.8
						L1056.5,45.8z M1083.3,45.9c0.8,0.8,0.8,2,0,2.8c-0.4,0.4-0.9,0.6-1.4,0.6c-0.5,0-1-0.2-1.4-0.6l-2.9-2.9c-0.8-0.8-0.8-2,0-2.8
						c0.8-0.8,2-0.8,2.8,0L1083.3,45.9L1083.3,45.9z M1069,53.4v-4.1c0-1.1-0.9-2-2-2s-2,0.9-2,2v4.1c0,1.1,0.9,2,2,2
						S1069,54.5,1069,53.4L1069,53.4z"/>
				</g>
			</g>
			<g>
				<g>
					<path id="path-7" class="st4" d="M454.5,24.6c0-8.4,6.8-15.2,15-15.2c8.2,0,15,6.8,15,15.2c0,5.1-2.5,9.4-6,12v3.8
						c0,1-0.9,1.9-1.9,2l-13.8,1.1l-0.2,0c-0.5,0-1-0.2-1.4-0.5c-0.4-0.4-0.7-0.9-0.7-1.5v-4.9C456.5,33.8,454.5,29.7,454.5,24.6
						L454.5,24.6z M475.5,33.7c-0.6,0.3-1,1-1,1.8v3.1l-10,0.8v-3.8c0-0.7-0.3-1.4-0.9-1.7c-3.4-2-5.1-5-5.1-9.1
						c0-6.2,4.9-11.2,11-11.2c6,0,11,5,11,11.2C480.5,28.6,478.6,32,475.5,33.7L475.5,33.7z M477.5,24.5c-0.1,0.9-0.8,1.6-1.7,1.6
						l-0.2,0c-1-0.1-1.7-0.9-1.6-1.9c0.3-2.9-2.2-3.9-2.5-4c-0.9-0.3-1.4-1.3-1-2.2c0.3-0.9,1.3-1.4,2.2-1.1
						C474.5,17.6,477.9,20,477.5,24.5L477.5,24.5z M476.5,48.7c1.1-0.1,1.9-1,1.8-2.1c-0.1-1.1-1-1.9-2.1-1.8l-13.7,1
						c-1.1,0.1-1.9,1-1.8,2.1c0.1,1.1,0.9,1.9,2,1.9l0.1,0L476.5,48.7L476.5,48.7z M474,52.9c0.1,1.1-0.7,2.1-1.8,2.1l-5,0.4l-0.2,0
						c-1,0-1.9-0.8-2-1.8c-0.1-1.1,0.7-2.1,1.8-2.1l5-0.4C472.9,51,473.9,51.8,474,52.9L474,52.9z"/>
				</g>
			</g>
			<g>
				<g>
					<path id="path-8" class="st4" d="M327.5,26.3v22.1c0,2.2-1.8,4.1-4.1,4.1h-36.2c-2.6,0-4.8-2.1-4.8-4.8V18.4c0-3.3,2.7-6,6-6
						h27.6c2.8,0,4.9,2.2,4.9,5v3h0.9C325,20.4,327.5,23.2,327.5,26.3L327.5,26.3z M288.2,20.4c-1.1,0-2-0.9-2-2s0.9-2,2-2h27.9
						c0.5,0,0.9,0.4,0.9,0.9v3.1H288.2L288.2,20.4z M321.9,24.4c0.9,0,1.6,1,1.6,1.8v22.1c0,0,0,0.1-0.1,0.1h-36.2
						c-0.4,0-0.8-0.3-0.8-0.8V25.5c0-0.5,0.4-1.1,0.8-1.1H321.9L321.9,24.4z M319.2,36.5c0-0.9-0.4-1.8-1-2.5c-0.7-0.7-1.6-1-2.5-1
						c-0.9,0-1.8,0.4-2.5,1c-0.6,0.7-1,1.5-1,2.5c0,0.9,0.4,1.8,1,2.5c0.7,0.7,1.6,1,2.5,1c0.9,0,1.8-0.4,2.5-1
						C318.8,38.4,319.2,37.5,319.2,36.5L319.2,36.5z"/>
				</g>
			</g>
			<g>
				<g>
					<path id="path-9" class="st4" d="M15.5,72.4c0.5,0,1,0.2,1.4,0.6s0.6,0.9,0.6,1.4l0,29.4c0,1.1-0.9,2-2,2h-31c-1.1,0-2-0.9-2-2
						V74.5c0-1.1,0.9-2.1,2-2.1h5v-0.9c0-5.8,4.8-10.6,10.4-10.6h0.2c5.6,0,10.4,4.8,10.4,10.6v0.9H15.5L15.5,72.4z M-6.5,71.5
						c0-3.6,3-6.6,6.4-6.6h0.2c3.4,0,6.4,3,6.4,6.6v0.9h-13V71.5L-6.5,71.5z M13.5,101.9h-27V76.4h3v3.5c0,1.1,0.9,2,2,2s2-0.9,2-2
						v-3.5h13v3.5c0,1.1,0.9,2,2,2s2-0.9,2-2v-3.5h3L13.5,101.9L13.5,101.9z"/>
				</g>
			</g>
			<g>
				<g>
					<path id="path-10" class="st4" d="M1301.5,72.4c0.5,0,1,0.2,1.4,0.6s0.6,0.9,0.6,1.4l0,29.4c0,1.1-0.9,2-2,2h-31
						c-1.1,0-2-0.9-2-2V74.5c0-1.1,0.9-2.1,2-2.1h5v-0.9c0-5.8,4.8-10.6,10.4-10.6h0.2c5.6,0,10.4,4.8,10.4,10.6v0.9H1301.5
						L1301.5,72.4z M1279.5,71.5c0-3.6,3-6.6,6.4-6.6h0.2c3.4,0,6.4,3,6.4,6.6v0.9h-13V71.5L1279.5,71.5z M1299.5,101.9h-27V76.4h3
						v3.5c0,1.1,0.9,2,2,2s2-0.9,2-2v-3.5h13v3.5c0,1.1,0.9,2,2,2s2-0.9,2-2v-3.5h3L1299.5,101.9L1299.5,101.9z"/>
				</g>
			</g>
			<g>
				<g>
					<path id="path-11" class="st4" d="M1003.5,28.7v7.4c0,1.1-0.9,1.8-2,1.8h-1.5v5.5c0,1.1-0.9,2-2,2h-38.5c-1.1,0-2-0.9-2-2v-22
						c0-1.1,0.9-2,2-2H998c1.1,0,2,0.9,2,2v5.5h1.5C1002.6,26.9,1003.5,27.6,1003.5,28.7L1003.5,28.7z M996,23.4h-34.5v18H996V23.4
						L996,23.4z M970,38.4h-3.5c-1.1,0-2-0.9-2-2v-8c0-1.1,0.9-2,2-2h3.5c1.1,0,2,0.9,2,2v8C972,37.5,971.1,38.4,970,38.4L970,38.4z
						 M975,28.4v8c0,1.1,0.9,2,2,2h3.5c1.1,0,2-0.9,2-2v-8c0-1.1-0.9-2-2-2H977C975.9,26.4,975,27.3,975,28.4L975,28.4z M987.5,38.4
						h3.5c1.1,0,2-0.9,2-2v-5.1c0-0.5-0.1-0.9-0.4-1.3l-2.6-3c-0.4-0.4-0.9-0.6-1.5-0.6h-1c-1.1,0-2,0.8-2,1.9v8.1
						C985.5,37.5,986.4,38.4,987.5,38.4L987.5,38.4z"/>
				</g>
			</g>
			<g>
				<g>
					<path id="path-12" class="st4" d="M146.2,78.9c-3.3,0-6,2.7-6,6s2.7,6,6,6c3.3,0,6-2.7,6-6S149.5,78.9,146.2,78.9L146.2,78.9z
						 M136.2,86.9H135c-1.1,0-2-0.9-2-2s0.9-2,2-2h1.1c1.1,0,2,0.9,2,2S137.3,86.9,136.2,86.9L136.2,86.9z M144.1,84.9
						c0,1.1,0.9,2,2,2c1.1,0,2-0.9,2-2s-0.9-2-2-2C145.1,82.9,144.1,83.8,144.1,84.9L144.1,84.9z M177,82.9c1.1,0,2,0.9,2,2
						s-0.9,2-2,2h-20.4c-1.1,0-2-0.9-2-2s0.9-2,2-2H177L177,82.9z M164.7,107.9c3.3,0,6-2.7,6-6s-2.7-6-6-6c-3.3,0-6,2.7-6,6
						S161.4,107.9,164.7,107.9L164.7,107.9z M154.6,103.9c1.1,0,2-0.9,2-2s-0.9-2-2-2H135c-1.1,0-2,0.9-2,2s0.9,2,2,2H154.6
						L154.6,103.9z M177,99.9h-1.7c-1.1,0-2,0.9-2,2s0.9,2,2,2h1.7c1.1,0,2-0.9,2-2S178.1,99.9,177,99.9L177,99.9z M166.7,101.9
						c0-1.1-0.9-2-2-2c-1.1,0-2,0.9-2,2s0.9,2,2,2C165.8,103.9,166.7,103,166.7,101.9L166.7,101.9z"/>
				</g>
			</g>
			<g>
				<g>
					<path id="path-13" class="st4" d="M619.5,21.9c0,1.1-0.9,2-2,2s-2-0.9-2-2V11.4c0-1.1,0.9-2,2-2s2,0.9,2,2V21.9L619.5,21.9z
						 M634.5,33.8c1.1,0,2-0.9,2-2V11.4c0-1.1-0.9-2-2-2s-2,0.9-2,2v20.4C632.5,32.9,633.4,33.8,634.5,33.8L634.5,33.8z M651.5,15.1
						c1.1,0,2-0.9,2-2v-1.7c0-1.1-0.9-2-2-2s-2,0.9-2,2v1.7C649.5,14.2,650.4,15.1,651.5,15.1L651.5,15.1z M651.5,29.8
						c3.3,0,6-2.7,6-6s-2.7-6-6-6s-6,2.7-6,6S648.2,29.8,651.5,29.8L651.5,29.8z M653.5,23.7c0-1.1-0.9-2-2-2s-2,0.9-2,2s0.9,2,2,2
						S653.5,24.8,653.5,23.7L653.5,23.7z M617.5,38.4c3.3,0,6-2.7,6-6s-2.7-6-6-6s-6,2.7-6,6S614.2,38.4,617.5,38.4L617.5,38.4z
						 M619.4,32.4c0-1.1-0.9-2-2-2s-2,0.9-2,2c0,1.1,0.9,2,2,2S619.4,33.5,619.4,32.4L619.4,32.4z M653.5,53.4V33.8c0-1.1-0.9-2-2-2
						s-2,0.9-2,2v19.6c0,1.1,0.9,2,2,2S653.5,54.5,653.5,53.4L653.5,53.4z M634.5,48.3c3.3,0,6-2.7,6-6s-2.7-6-6-6s-6,2.7-6,6
						S631.2,48.3,634.5,48.3L634.5,48.3z M636.5,42.3c0-1.1-0.9-2-2-2s-2,0.9-2,2s0.9,2,2,2S636.5,43.4,636.5,42.3L636.5,42.3z
						 M615.5,43.1c0-1.1,0.9-2,2-2s2,0.9,2,2v10.4c0,1.1-0.9,2-2,2s-2-0.9-2-2V43.1L615.5,43.1z M632.5,52.3c0-1.1,0.9-2,2-2
						s2,0.9,2,2v1.2c0,1.1-0.9,2-2,2s-2-0.9-2-2V52.3L632.5,52.3z"/>
				</g>
			</g>
			<g>
				<g>
					<path id="path-14" class="st4" d="M724.7,42.7l9.7-20.9c0.5-1.1,0.1-2.4-1-2.9c-1-0.6-2.4-0.2-3,0.8l-12.7,20.4
						c-0.8,1.3-0.9,3-0.2,4.2c0.6,1.1,1.8,1.8,3.1,1.8C722.4,46.2,723.9,44.9,724.7,42.7L724.7,42.7z M722.6,24.6
						c1.1,0.1,2.1-0.7,2.2-1.8c0.1-1.1-0.7-2.1-1.8-2.2c-0.6-0.1-1.3-0.1-2-0.1c-12.7,0-23,10.5-23,23.4c0,1.1,0.9,2,2,2s2-0.9,2-2
						c0-10.7,8.5-19.4,19-19.4C721.5,24.5,722.1,24.6,722.6,24.6L722.6,24.6z M737.8,27.9c-0.7-0.8-2-0.9-2.8-0.1
						c-0.8,0.7-0.9,2-0.1,2.8c3.3,3.6,5.1,8.3,5.1,13.3c0,1.1,0.9,2,2,2s2-0.9,2-2C744,38,741.8,32.3,737.8,27.9L737.8,27.9z"/>
				</g>
			</g>
			<g>
				<g>
					<path id="path-15" class="st4" d="M196.8,19.3c-0.9,0.8-1.1,2.2-0.3,3.1c0.8,0.9,2.2,1.1,3.1,0.3c5.8-4.9,11.6-3.7,18.6-0.6
						c4,1.8,7.7,2.7,11.2,2.7c4.4,0,8.3-1.4,11.8-4.3c0.9-0.8,1.1-2.2,0.3-3.1c-0.8-0.9-2.2-1.1-3.1-0.3c-4.9,4-10.9,4.4-18.3,1
						C213.1,14.9,204.9,12.5,196.8,19.3L196.8,19.3z M238.4,29.6c-4.9,4-10.9,4.4-18.3,1c-7-3.2-15.2-5.6-23.3,1.2
						c-0.9,0.8-1.1,2.2-0.3,3.1c0.8,0.9,2.2,1.1,3.1,0.3c5.8-4.9,11.6-3.7,18.6-0.6c4,1.8,7.7,2.7,11.2,2.7c4.4,0,8.3-1.4,11.8-4.3
						c0.9-0.8,1.1-2.2,0.3-3.1C240.7,29,239.3,28.8,238.4,29.6L238.4,29.6z M238.4,42.2c-4.9,4.1-10.9,4.4-18.3,1
						c-7-3.2-15.2-5.6-23.3,1.2c-0.9,0.8-1.1,2.2-0.3,3.1c0.8,0.9,2.2,1.1,3.1,0.3c5.8-4.9,11.6-3.7,18.6-0.6
						c4,1.8,7.7,2.7,11.2,2.7c4.4,0,8.3-1.4,11.8-4.3c0.9-0.8,1.1-2.2,0.3-3.1C240.7,41.5,239.3,41.4,238.4,42.2L238.4,42.2z"/>
				</g>
			</g>
			<g>
				<g>
					<path id="path-16" class="st4" d="M551.4,29.9h-19.5l5.9,5.7c0.8,0.8,0.8,1.9,0,2.7c-0.4,0.4-0.9,0.6-1.4,0.6
						c-0.5,0-1-0.2-1.4-0.6l-9.3-9.3c-0.4-0.4-0.6-0.9-0.6-1.4c0-0.5,0.2-1,0.6-1.4l9.3-9.3c0.8-0.8,2-0.7,2.8,0
						c0.8,0.8,0.8,2.1,0,2.9l-5.9,6h19.5c1.1,0,2,0.9,2,2S552.5,29.9,551.4,29.9L551.4,29.9z M570.4,38.6c0.4-0.4,0.6-0.9,0.6-1.4
						c0-0.5-0.2-1-0.6-1.4l-9.3-9.3c-0.8-0.8-2-0.8-2.8,0c-0.8,0.8-0.8,1.9,0,2.7l5.9,5.7h-19.5c-1.1,0-2,0.9-2,2s0.9,2,2,2h19.5
						l-5.9,6c-0.8,0.8-0.8,2.1,0,2.9c0.4,0.4,0.9,0.6,1.4,0.6c0.5,0,1-0.2,1.4-0.6L570.4,38.6L570.4,38.6z"/>
				</g>
			</g>
			<g>
				<g>
					<path id="path-17" class="st4" d="M1122.8,92c0,12.2,1.3,14.2,4.7,14.2c1.1,0,2,0.8,2,1.9s-0.9,1.9-2,1.9h-13
						c-0.2,1.5-0.7,3.3-2,4.7c-1.1,1.1-2.5,1.8-4.1,1.8c-1.6,0-3.1-0.7-4.1-1.8c-1.2-1.3-1.7-3.2-1.8-4.7h-13c-1.1,0-2-0.8-2-1.9
						s0.9-1.9,2-1.9c3.4,0,4.8-2,4.8-14.2c0-9.8,4.6-15.9,12.6-16.6v-3c0-1.1,0.9-2,2-2c1.1,0,2,0.9,2,2v3.1
						C1118.5,76.4,1122.8,82.4,1122.8,92L1122.8,92z M1108.5,106c0.1,0,0.2,0,0.3,0h11.8c-1.9-3.5-1.9-8.9-1.9-14
						c0-8.1-3.5-12.5-10-12.5h-0.6c-6.4,0-10,4.3-10,12.5c0,5.1,0,10.5-1.9,14h11.8C1108.3,106,1108.4,106,1108.5,106L1108.5,106z
						 M1114.3,90.1c1-0.1,1.7-0.9,1.6-1.9c-0.3-4.5-4.1-6.1-4.3-6.2c-0.9-0.4-1.9,0.1-2.3,1c-0.4,0.9,0.1,1.9,0.9,2.3
						c0.2,0.1,2,0.9,2.1,3.1c0.1,0.9,0.8,1.6,1.7,1.6L1114.3,90.1L1114.3,90.1z M1109.6,111.9c-0.2,0.2-0.5,0.5-1.2,0.5
						c-0.7,0-1-0.3-1.1-0.5c-0.4-0.4-0.6-0.9-0.7-1.9h1.7c0.1,0,0.2,0,0.3,0c0.1,0,0.2,0,0.3,0h1.6
						C1110.3,111,1110,111.5,1109.6,111.9L1109.6,111.9z"/>
				</g>
			</g>
			<g>
				<g>
					<path id="path-18" class="st4" d="M959.1,189.3l0.1,0.1c2.6,2.6,0.5,8.8-0.5,11.4c-2.2,5.5-5.9,11.1-10.5,15.7
						c-6.2,6.2-12.5,9.2-15.7,10.5c-1.6,0.6-4.8,1.7-7.6,1.7c-1.5,0-2.9-0.3-3.8-1.3l-0.1-0.1l-4.7-5.4c-1.4-1.5-1.3-3.9,0.2-5.5
						c0.1-0.1,0.1-0.1,0.2-0.2l6.7-5.3c1.5-1.4,3.8-1.3,5.2,0.1c0.1,0.1,0.2,0.2,0.3,0.3l1.8,2.7c0.9-0.2,3.7-1.6,8.6-6.6
						c4.9-4.9,6.3-7.6,6.6-8.6l-2.7-1.8c-0.1-0.1-0.2-0.2-0.3-0.3c-1.4-1.4-1.5-3.8-0.1-5.2l5.3-6.7c0-0.1,0.1-0.1,0.2-0.2
						c0.7-0.7,1.6-1.1,2.6-1.2c1.1-0.1,2.1,0.2,2.9,1L959.1,189.3L959.1,189.3z M924.1,224.6c1.8,0.9,12.1-1.7,21.4-10.9
						c9.3-9.3,11.8-19.6,10.9-21.4l-5.2-4.5l-5.2,6.5l2.6,1.8c0.1,0,0.1,0.1,0.2,0.1c0.7,0.6,1.2,1.5,1.2,2.5
						c0.2,3.9-5.8,9.9-7.7,11.9c-8,8-10.9,7.8-11.9,7.8c-1-0.1-1.9-0.5-2.5-1.2c0,0-0.1-0.1-0.1-0.2l-1.8-2.6l-6.5,5.2L924.1,224.6
						L924.1,224.6z"/>
				</g>
			</g>
			<g>
				<g>
					<path id="path-19" class="st4" d="M1196.5,192.7c14.2,0,22.3,11.9,22.7,12.4c0.5,0.7,0.5,1.6,0,2.2
						c-0.3,0.5-8.5,12.4-22.7,12.4c-14.2,0-22.3-11.9-22.7-12.4c-0.5-0.7-0.5-1.6,0-2.2C1174.2,204.6,1182.3,192.7,1196.5,192.7
						L1196.5,192.7z M1196.5,215.7c-9.7,0-16.2-6.8-18.5-9.5c2.2-2.7,8.8-9.5,18.5-9.5c9.7,0,16.2,6.8,18.5,9.5
						C1212.7,208.9,1206.2,215.7,1196.5,215.7L1196.5,215.7z M1191.5,199.5c1.8-1.3,3.9-1.9,6.1-1.6c2.2,0.3,4.1,1.5,5.5,3.2
						c2.7,3.7,2,8.9-1.6,11.6c-1.4,1.1-3.2,1.7-5,1.7c-0.4,0-0.8,0-1.2-0.1c-2.2-0.3-4.1-1.5-5.5-3.2
						C1187.1,207.5,1187.9,202.3,1191.5,199.5L1191.5,199.5z M1199.7,210.4c-1.1,0.8-2.5,1.2-3.9,1c-1.4-0.2-2.6-0.9-3.5-2.1
						c-1.8-2.3-1.3-5.7,1-7.4c1.1-0.8,2.5-1.2,3.9-1c1.4,0.2,2.6,0.9,3.5,2.1C1202.5,205.3,1202,208.7,1199.7,210.4L1199.7,210.4z
						 M1199.5,203.2c0.4,0.4,0.6,0.9,0.6,1.4c0,0.5-0.2,1-0.6,1.4c-0.4,0.4-0.9,0.6-1.4,0.6c-0.5,0-1-0.2-1.4-0.6
						c-0.4-0.4-0.6-0.9-0.6-1.4c0-0.5,0.2-1,0.6-1.4c0.4-0.4,0.9-0.6,1.4-0.6C1198.6,202.6,1199.1,202.8,1199.5,203.2L1199.5,203.2z
						"/>
				</g>
			</g>
			<g>
				<g>
					<path id="path-20" class="st4" d="M911.8,136c-11.5-10.6-28.2-8.7-28.9-8.7c-1.5,0.2-2.6,1.6-2.4,3.1c0.2,1.5,1.5,2.6,3.1,2.4
						c0.1,0,14.9-1.7,24.5,7.2c6,5.6,8.9,14.3,8.4,25.8c-0.1,1.5,1.1,2.8,2.6,2.9l0.1,0c1.5,0,2.7-1.2,2.7-2.6
						C922.5,152.9,919.1,142.7,911.8,136L911.8,136z M906.4,168.7c1.5,0,2.7-1.2,2.7-2.6c0.4-8.8-1.9-15.5-6.8-20.1
						c-7.7-7.2-18.9-6-19.3-6c-1.5,0.2-2.6,1.5-2.4,3c0.2,1.5,1.5,2.6,3,2.4c0.1,0,9.2-0.9,15,4.6c3.7,3.4,5.3,8.8,5,15.8
						c-0.1,1.5,1.1,2.8,2.6,2.9L906.4,168.7L906.4,168.7z M887.5,155.4c-1.7,0-3.4,0.7-4.6,1.9c-1.2,1.2-1.9,2.9-1.9,4.6
						c0,1.7,0.7,3.4,1.9,4.6c1.2,1.2,2.9,1.9,4.6,1.9c1.7,0,3.4-0.7,4.6-1.9c1.2-1.2,1.9-2.9,1.9-4.6c0-1.7-0.7-3.4-1.9-4.6
						C890.9,156.1,889.2,155.4,887.5,155.4L887.5,155.4z"/>
				</g>
			</g>
			<g>
				<g>
					<path id="path-21" class="st4" d="M1185,165.9h2c1.1,0,2,0.9,2,2s-0.9,2-2,2h-32c-1.1,0-2-0.9-2-2s0.9-2,2-2h2v-5.2
						c0-2.9,2.9-5.4,5.7-7.7c1-0.8,2.3-2,2.8-2.6v-4.8c-0.5-0.6-1.8-1.8-2.8-2.6c-2.8-2.4-5.7-4.8-5.7-7.7v-5.2h-2c-1.1,0-2-0.9-2-2
						s0.9-2,2-2h32c1.1,0,2,0.9,2,2s-0.9,2-2,2h-2v5.2c0,2.9-2.9,5.4-5.7,7.7c-1,0.8-2.3,2-2.8,2.6v4.8c0.5,0.6,1.8,1.8,2.8,2.6
						c2.8,2.4,5.7,4.8,5.7,7.7V165.9L1185,165.9z M1161,160.7c0-1.1,2.8-3.4,4.3-4.7c2.4-2.1,4.2-3.5,4.2-5.4v-5.3
						c0-1.9-1.8-3.4-4.2-5.4c-1.5-1.3-4.3-3.6-4.3-4.7v-5.2h20v5.2c0,1.1-2.8,3.4-4.3,4.7c-2.4,2.1-4.2,3.5-4.2,5.4v5.3
						c0,1.9,1.8,3.4,4.2,5.4c1.5,1.3,4.3,3.6,4.3,4.7v5.2h-20V160.7L1161,160.7z M1175.5,134.4v-1c0-1,0.8-1.8,1.8-1.8
						s1.8,0.8,1.8,1.8v1c0,1-0.8,1.8-1.8,1.8S1175.5,135.4,1175.5,134.4L1175.5,134.4z"/>
				</g>
			</g>
			<g>
				<g>
					<path id="path-22" class="st4" d="M58.6,44.3c6.7,0,10.1-4.7,10.4-9.1c0.3-4-1.9-8.6-7.3-10.2c0.2-3.8-1.7-6.3-3.8-7.5
						c-2.4-1.4-5.4-1.3-7.9,0.1c-4-5.6-10.1-6.1-14.4-4.1c-4.2,2-7.3,6.6-6,12.1c-5.6,2.5-7.1,7.2-6.5,10.7c0.7,4.5,4.4,7.9,8.7,7.9
						l6.2,0.1c1.1,0,2-1,2-2.1c0-1.1-0.9-2.1-2-2.1l-6.2-0.1c-2.7,0-4.5-2.2-4.8-4.4c-0.2-1.2-0.3-5.2,5.7-7c0.5-0.2,1-0.6,1.2-1.1
						c0.2-0.5,0.3-1.1,0-1.6c-1.8-4.2,0.5-7.6,3.4-8.9c3-1.4,7.4-1.1,10.3,4.3c0.3,0.6,0.8,0.9,1.5,1c0.6,0.1,1.3-0.1,1.7-0.5
						c1.7-1.7,3.8-1.7,5.1-1c1.6,0.9,2.1,2.7,1.6,5.1c-0.1,0.5,0,1.1,0.3,1.6c0.3,0.5,0.8,0.8,1.4,0.9c4.3,0.6,6,3.7,5.8,6.4
						c-0.2,2.7-2.2,5.5-6.4,5.5c-3,0-4.6,0.1-4.6,0.1c-1.1,0-2,0.8-2,1.9c0,1.1,0.9,2,2,2C53.9,44.3,55.5,44.3,58.6,44.3L58.6,44.3z
						 M54.5,37.4c-0.5,0-1-0.2-1.4-0.6l-5-5.1l0.1,18.7c0,1.1-0.9,2-2,2c-1.1,0-2-0.9-2-2L44,31.7l-5.1,5.1c-0.8,0.8-2,0.8-2.8,0
						c-0.8-0.8-0.8-2,0-2.8l8.5-8.5c0.4-0.4,0.9-0.6,1.4-0.6c0.5,0,1,0.2,1.4,0.6l8.5,8.5c0.8,0.8,0.8,2,0,2.8
						C55.5,37.2,55,37.4,54.5,37.4L54.5,37.4z"/>
				</g>
			</g>
			<g>
				<g>
					<path id="path-23" class="st4" d="M1095.8,156c6.6,0,9.9-4.6,10.2-8.9c0.3-3.9-1.9-8.4-7.1-10c0.2-3.7-1.7-6.1-3.7-7.3
						c-2.4-1.4-5.3-1.3-7.7,0.1c-3.9-5.4-9.9-6-14.1-4c-4.1,1.9-7.1,6.5-5.9,11.8c-5.5,2.5-6.9,7-6.4,10.5c0.7,4.5,4.3,7.6,8.6,7.6
						l6.1,0c1.1,0,2-0.8,2-1.9c0-1.1-0.9-2-2-2l-6.1,0c-2.6,0-4.3-2.1-4.6-4.3c-0.2-1.1-0.3-5,5.5-6.8c0.5-0.2,1-0.6,1.2-1.1
						c0.2-0.5,0.3-1.1,0-1.6c-1.7-4.1,0.5-7.3,3.2-8.6c2.9-1.4,7.2-1.1,10,4.2c0.3,0.6,0.8,0.9,1.5,1c0.6,0.1,1.3-0.1,1.7-0.5
						c1.7-1.6,3.7-1.6,4.9-0.9c1.5,0.8,2.1,2.6,1.5,4.9c-0.1,0.5,0,1.1,0.3,1.6s0.8,0.8,1.4,0.9c4.2,0.6,5.8,3.5,5.6,6.2
						c-0.2,2.6-2.2,5.1-6.2,5.1c-3,0-4.5-0.1-4.5-0.1c-1.1,0-2,0.9-2,2c0,1.1,0.9,2,2,2C1091.2,156,1092.8,156,1095.8,156
						L1095.8,156z M1085.5,164.1l4.9-4.9c0.8-0.8,2-0.8,2.8,0c0.8,0.8,0.8,2,0,2.8l-8.3,8.3c-0.4,0.4-0.9,0.6-1.4,0.6
						c-0.5,0-1-0.2-1.4-0.6l-8.3-8.3c-0.8-0.8-0.8-2.1,0-2.8c0.8-0.8,2-0.8,2.8,0l4.8,4.8l-0.1-18.1c0-1.1,0.9-2,2-2
						c1.1,0,2,0.9,2,2L1085.5,164.1L1085.5,164.1z"/>
				</g>
			</g>
			<g>
				<g>
					<path id="path-24" class="st4" d="M1243.2,170.9h0.3c1.7,0,3.3-0.2,3.3-0.2c0.8-0.1,1.4-0.7,1.5-1.5l0.5-3.5
						c1.1-0.3,2.2-0.8,3.2-1.3l2.9,2.2c0.6,0.5,1.5,0.5,2.2,0c0.1,0,1.3-1,2.5-2.2l0.2-0.2c1.2-1.2,2.2-2.4,2.2-2.5
						c0.5-0.6,0.5-1.5,0-2.1l-2.1-2.8c0.5-1,1-2.1,1.3-3.2l3.6-0.5c0.8-0.1,1.4-0.7,1.5-1.5c0-0.1,0.2-1.6,0.2-3.3v-0.3
						c0-1.7-0.2-3.3-0.2-3.3c-0.1-0.8-0.7-1.4-1.5-1.5l-3.5-0.5c-0.3-1.1-0.8-2.2-1.3-3.2l2.2-2.9c0.5-0.6,0.5-1.5,0-2.2
						c0-0.1-1-1.3-2.2-2.5l-0.2-0.2c-1.2-1.2-2.4-2.2-2.5-2.2c-0.6-0.5-1.5-0.5-2.1,0l-2.8,2.1c-1-0.5-2.1-1-3.2-1.3l-0.5-3.6
						c-0.1-0.8-0.7-1.4-1.5-1.5c-0.1,0-1.6-0.2-3.3-0.2h-0.3c-1.7,0-3.3,0.2-3.3,0.2c-0.8,0.1-1.4,0.7-1.5,1.5l-0.5,3.5
						c-1.1,0.3-2.2,0.8-3.2,1.3l-2.9-2.2c-0.6-0.5-1.5-0.5-2.2,0c-0.1,0-1.3,1-2.5,2.2l-0.2,0.2c-1.2,1.2-2.2,2.4-2.2,2.5
						c-0.5,0.6-0.5,1.5,0,2.1l2.1,2.8c-0.5,1-1,2.1-1.3,3.2l-3.6,0.5c-0.8,0.1-1.4,0.7-1.5,1.5c0,0.1-0.2,1.6-0.2,3.3v0.3
						c0,1.7,0.2,3.3,0.2,3.3c0.1,0.8,0.7,1.4,1.5,1.5l3.5,0.5c0.3,1.1,0.8,2.2,1.3,3.2l-2.2,2.9c-0.5,0.6-0.5,1.5,0,2.2
						c0,0.1,1,1.3,2.2,2.5l0.2,0.2c1.2,1.2,2.4,2.2,2.5,2.2c0.6,0.5,1.5,0.5,2.1,0l2.8-2.1c1,0.5,2.1,1,3.2,1.3l0.5,3.6
						c0.1,0.8,0.7,1.4,1.5,1.5C1240,170.7,1241.5,170.9,1243.2,170.9L1243.2,170.9z M1243.2,167.4c-0.6,0-1.1,0-1.5-0.1l-0.5-3.3
						c-0.1-0.7-0.6-1.3-1.3-1.5c-1.5-0.4-2.9-0.9-4.2-1.7c-0.6-0.5-1.5-0.6-2.2-0.1l-2.7,2c-0.3-0.3-0.7-0.7-1.1-1.1l-0.2-0.2
						c-0.4-0.4-0.8-0.8-1.1-1.1l2-2.6c0.1-0.2,0.3-0.4,0.3-0.6c0.2-0.5,0.1-1-0.2-1.5c-0.8-1.3-1.4-2.7-1.7-4.2l0-0.1
						c-0.1-0.8-0.7-1.4-1.5-1.5l-3.3-0.5c0-0.5-0.1-1-0.1-1.5v-0.3c0-0.6,0-1.1,0.1-1.5l3.3-0.5c0.7-0.1,1.3-0.6,1.5-1.3
						c0.4-1.5,1-2.9,1.8-4.2l0.1-0.2c0.4-0.6,0.3-1.4-0.1-2l-2-2.7c0.3-0.3,0.7-0.7,1.1-1.1l0.2-0.2c0.4-0.4,0.8-0.8,1.1-1.1l2.6,2
						c0.2,0.2,0.4,0.3,0.7,0.4c0.5,0.1,1,0.1,1.4-0.2c1.3-0.8,2.8-1.4,4.3-1.8c0.8-0.1,1.4-0.7,1.5-1.5l0.5-3.3c0.5,0,1-0.1,1.5-0.1
						h0.3c0.6,0,1.1,0,1.5,0.1l0.5,3.3c0.1,0.7,0.6,1.3,1.3,1.5c1.5,0.4,2.9,1,4.3,1.8c0.6,0.5,1.5,0.5,2.1,0l2.7-2
						c0.3,0.3,0.7,0.7,1.1,1.1l0.2,0.2c0.4,0.4,0.8,0.8,1.1,1.1l-2,2.7c-0.4,0.5-0.5,1.1-0.3,1.7c0,0.1,0.1,0.3,0.2,0.4
						c0.8,1.4,1.4,2.8,1.8,4.3c0.2,0.7,0.8,1.3,1.5,1.4l3.3,0.5c0,0.5,0.1,1,0.1,1.6v0.3c0,0.6,0,1.1-0.1,1.5l-3.3,0.5
						c-0.8,0.1-1.4,0.7-1.5,1.5c-0.4,1.5-1,2.9-1.8,4.2c-0.4,0.6-0.4,1.4,0.1,2l2,2.7c-0.3,0.3-0.7,0.7-1.1,1.1l-0.2,0.2
						c-0.4,0.4-0.8,0.8-1.1,1.1l-2.6-2c-0.2-0.2-0.4-0.3-0.7-0.4c-0.5-0.1-0.9,0-1.3,0.2c-1.4,0.8-2.8,1.4-4.4,1.8
						c-0.7,0.2-1.3,0.8-1.4,1.5l-0.5,3.3c-0.5,0-1,0.1-1.5,0.1H1243.2L1243.2,167.4z M1233.9,147.9c0,5.3,4.3,9.6,9.6,9.6
						c5.3,0,9.6-4.3,9.6-9.6c0-5.3-4.3-9.6-9.6-9.6C1238.2,138.3,1233.9,142.6,1233.9,147.9L1233.9,147.9z M1243.5,141.8
						c-3.4,0-6.1,2.7-6.1,6.1c0,3.4,2.7,6.1,6.1,6.1c3.4,0,6.1-2.7,6.1-6.1C1249.6,144.6,1246.9,141.8,1243.5,141.8L1243.5,141.8z"
						/>
				</g>
			</g>
			<g>
				<g>
					<path id="path-25" class="st4" d="M697,147.9c0-12.7,10.3-23,23-23s23,10.3,23,23s-10.3,23-23,23S697,160.6,697,147.9
						L697,147.9z M718.5,139.8V129l-0.3,0c-1.3,1.4-4.8,5.3-6.7,11.1C713.6,139.9,715.9,139.8,718.5,139.8L718.5,139.8z M721.8,129
						c1.3,1.4,4.8,5.3,6.7,11.1c-2.1-0.1-4.5-0.2-7-0.3V129L721.8,129L721.8,129z M708.2,140.3c1.2-4.3,3.3-7.8,5.1-10.2
						c-5,1.9-9,5.9-11,10.9C703.7,140.8,705.7,140.5,708.2,140.3L708.2,140.3z M737.7,141c-1.4-0.2-3.4-0.5-5.9-0.7
						c-1.2-4.3-3.3-7.8-5.1-10.2C731.7,132,735.7,136,737.7,141L737.7,141z M710.6,143.1c-0.3,1.5-0.5,3.1-0.5,4.8
						c0,1.7,0.2,3.3,0.5,4.8c2.3,0.2,5,0.3,7.9,0.3v-10.2C715.6,142.9,712.9,143,710.6,143.1L710.6,143.1z M729.4,152.7
						c-2.3,0.2-4.9,0.3-7.9,0.3v-10.2c2.9,0,5.5,0.2,7.9,0.3c0.3,1.5,0.5,3.1,0.5,4.8C729.8,149.6,729.7,151.2,729.4,152.7
						L729.4,152.7z M701,147.9c0-1.3,0.1-2.5,0.4-3.7c1.1-0.2,3.2-0.5,6.2-0.8c-0.2,1.4-0.4,2.9-0.4,4.5c0,1.6,0.1,3.1,0.4,4.5
						c-2.9-0.3-5-0.6-6.2-0.8C701.1,150.4,701,149.2,701,147.9L701,147.9z M738.6,144.2c-1.1-0.2-3.2-0.5-6.2-0.8
						c0.2,1.4,0.4,2.9,0.4,4.5c0,1.6-0.1,3.1-0.4,4.5c3-0.3,5.1-0.6,6.2-0.8c0.2-1.2,0.4-2.4,0.4-3.7
						C739,146.7,738.9,145.4,738.6,144.2L738.6,144.2z M702.3,154.8c1.4,0.2,3.4,0.5,5.9,0.7c1.2,4.3,3.2,7.7,5,10.1
						C708.2,163.7,704.2,159.8,702.3,154.8L702.3,154.8z M726.8,165.7c1.8-2.4,3.8-5.8,5-10.1c2.5-0.2,4.5-0.5,5.9-0.7
						C735.7,159.8,731.8,163.7,726.8,165.7L726.8,165.7z M711.4,155.8c1.9,5.8,5.4,9.7,6.7,11.1l0.3,0V156
						C715.9,156,713.5,155.9,711.4,155.8L711.4,155.8z M721.8,166.8l-0.3,0V156c2.6,0,5-0.1,7.1-0.3
						C726.7,161.6,723.2,165.5,721.8,166.8L721.8,166.8z"/>
				</g>
			</g>
			<g>
				<g>
					<path id="path-26" class="st4" d="M183.5,189.8l8.5,9c0.7,0.8,0.7,2,0,2.8l-21,21c-0.4,0.4-0.9,0.6-1.4,0.6
						c-0.5,0-1-0.2-1.4-0.6l-21-21c-0.8-0.8-0.8-2,0-2.8l8.5-9c0.4-0.4,0.9-0.6,1.5-0.6H182C182.6,189.2,183.1,189.4,183.5,189.8
						L183.5,189.8z M157.8,193.2h5.9l-3.2,5h-7.6L157.8,193.2L157.8,193.2z M174.4,198.2l-3.2-5h-3.4l-3.2,5H174.4L174.4,198.2z
						 M186.1,198.2h-7.6l-3.2-5h5.9L186.1,198.2L186.1,198.2z M160.2,201.7l3.7,10.8l-10.8-10.8H160.2L160.2,201.7z M169.5,218.3
						l0-0.1l-5.6-16.5h11.2l-5.6,16.5L169.5,218.3L169.5,218.3z M185.9,201.7h-7.1l-3.7,10.8L185.9,201.7L185.9,201.7z"/>
				</g>
			</g>
			<g>
				<g>
					<path id="path-27" class="st4" d="M992.3,131.4l21,9.5c0.7,0.3,1.2,1,1.2,1.8c0,0.8-0.4,1.5-1.1,1.8l-7.9,4v8.2
						c0,0.3-0.1,0.6-0.3,0.9c-0.2,0.3-4.5,7.1-14,7.1c-9.2,0-13.8-6.8-13.9-7.1c-0.2-0.3-0.3-0.6-0.3-0.9v-8.5l-3-1.6v5.7
						c0,0.7-0.6,1.2-1.2,1.2c-0.7,0-1.2-0.6-1.2-1.2v-7l-1.8-0.9c-0.7-0.3-1.2-1.1-1.2-1.8c0-0.8,0.5-1.4,1.2-1.8l21-9.5
						C991.2,131.1,991.8,131.1,992.3,131.4L992.3,131.4z M975.1,142.7l16.4,8.3l16.4-8.3l-16.4-7.4L975.1,142.7L975.1,142.7z
						 M1002,156.1c-1,1.2-4.4,5.1-10.8,5.1c-6.2,0-9.8-3.9-10.8-5.1v-6.2l10.1,5.1c0.3,0.1,0.6,0.2,0.9,0.2s0.6-0.1,0.9-0.2l9.6-4.8
						V156.1L1002,156.1z M974.6,156.6c0-0.5-0.2-1-0.6-1.4c-0.4-0.4-0.9-0.6-1.4-0.6c-0.5,0-1,0.2-1.4,0.6c-0.4,0.4-0.6,0.9-0.6,1.4
						c0,0.5,0.2,1,0.6,1.4c0.4,0.4,0.9,0.6,1.4,0.6c0.5,0,1-0.2,1.4-0.6C974.3,157.6,974.6,157.1,974.6,156.6L974.6,156.6z"/>
				</g>
			</g>
			<g>
				<g>
					<path id="path-28" class="st4" d="M273.5,209.2c0.6,0,1.1,0.2,1.5,0.6c0.4,0.4,0.5,1,0.4,1.6c-1.7,10.3-10.6,17.8-21,17.8
						c-10.4,0-19.2-7.5-21-17.8c-0.1-0.6,0.1-1.1,0.4-1.6c0.4-0.4,0.9-0.6,1.5-0.6h6.4c1.1,0,2,0.9,2,2s-0.9,2-2,2H238
						c2,6.5,7.5,11.1,14.5,11.9v-26.5c-3.5-0.9-5.8-3.9-5.8-7.5c0-4.3,3.5-7.8,7.8-7.8c4.3,0,7.8,3.5,7.8,7.8c0,3.6-2.5,6.6-5.8,7.5
						V225c6.8-0.8,12.4-5.4,14.5-11.9h-3.9c-1.1,0-2-0.9-2-2s0.9-2,2-2H273.5L273.5,209.2z M254.5,187.2c-2.1,0-3.8,1.7-3.8,3.8
						s1.7,3.8,3.8,3.8s3.8-1.7,3.8-3.8S256.6,187.2,254.5,187.2L254.5,187.2z"/>
				</g>
			</g>
			<g>
				<g>
					<path id="path-29" class="st4" d="M831.5,125.9c0.7,0,1.4,0.4,1.8,1.1c0.3,0.7,0.2,1.4-0.2,2.1l-15.6,22.9v15.1
						c0,1.6-1.1,2.8-2.6,2.8h-6.7c-1.6,0-2.6-1.3-2.6-2.8v-15.1L789.9,129c-0.4-0.6-0.6-1.4-0.2-2.1c0.3-0.7,1-1.1,1.8-1.1H831.5
						L831.5,125.9z M821.2,139.5L821.2,139.5l6.5-9.6h-32.5l7,10.3c1.3-0.5,3.4-1.1,5.6-1.1c2,0,3.4,0.4,4.6,0.7
						c1.1,0.3,2,0.5,3.3,0.5C819.1,140.5,821.2,139.5,821.2,139.5L821.2,139.5z M816.6,134.8c0,0.5,0.2,1,0.6,1.4
						c0.4,0.4,0.9,0.6,1.4,0.6c0.5,0,1-0.2,1.4-0.6c0.4-0.4,0.6-0.9,0.6-1.4c0-0.5-0.2-1-0.6-1.4c-0.4-0.4-0.9-0.6-1.4-0.6
						c-0.5,0-1,0.2-1.4,0.6C816.8,133.8,816.6,134.3,816.6,134.8L816.6,134.8z M813.9,150.2c-0.2,0.3-0.4,0.7-0.4,1.1v14.6h-4v-14.6
						c0-0.4-0.2-0.8-0.4-1.1l-4.8-6.9c1-0.3,2.2-0.6,3.5-0.6c1.5,0,2.6,0.3,3.7,0.6c1.2,0.3,2.4,0.6,4.1,0.6c1,0,1.9,0,2.7-0.1
						L813.9,150.2L813.9,150.2z"/>
				</g>
			</g>
			<g>
				<g>
					<path id="path-30" class="st4" d="M681.8,194c0,1.1,0.9,2,2,2s2-0.9,2-2v-8.6c0-1.1-0.9-2-2-2s-2,0.9-2,2V194L681.8,194z
						 M677.8,198c0.9-0.6,1.1-1.9,0.4-2.8l-5.1-7c-0.6-0.9-1.9-1.1-2.8-0.4c-0.9,0.7-1.1,1.9-0.4,2.8l5.1,7c0.4,0.5,1,0.8,1.6,0.8
						C677,198.3,677.4,198.2,677.8,198L677.8,198z M697.6,190.6l-5.1,7c-0.4,0.5-1,0.8-1.6,0.8c-0.4,0-0.8-0.1-1.2-0.4
						c-0.9-0.7-1.1-1.9-0.4-2.8l5.1-7c0.6-0.9,1.9-1.1,2.8-0.4C698,188.4,698.2,189.7,697.6,190.6L697.6,190.6z M672.8,200.5
						c1.1,0.3,1.6,1.5,1.3,2.5c-0.3,0.8-1.1,1.4-1.9,1.4c-0.2,0-0.4,0-0.6-0.1l-8.2-2.7c-1.1-0.3-1.6-1.5-1.3-2.5
						c0.3-1.1,1.5-1.6,2.5-1.3L672.8,200.5L672.8,200.5z M704.1,201.7l-8.2,2.7c-0.2,0.1-0.4,0.1-0.6,0.1c-0.8,0-1.6-0.5-1.9-1.4
						c-0.3-1.1,0.2-2.2,1.3-2.5l8.2-2.7c1.1-0.3,2.2,0.2,2.5,1.3C705.7,200.2,705.2,201.3,704.1,201.7L704.1,201.7z M705.4,213.2
						c0.3-1.1-0.2-2.2-1.3-2.5l-8.2-2.7c-1.1-0.3-2.2,0.2-2.5,1.3c-0.3,1.1,0.2,2.2,1.3,2.5l8.2,2.7c0.2,0.1,0.4,0.1,0.6,0.1
						C704.3,214.6,705.1,214,705.4,213.2L705.4,213.2z M664.6,214.5l8.2-2.7c1.1-0.3,1.6-1.5,1.3-2.5c-0.3-1.1-1.5-1.6-2.5-1.3
						l-8.2,2.7c-1.1,0.3-1.6,1.5-1.3,2.5c0.3,0.8,1.1,1.4,1.9,1.4C664.2,214.6,664.4,214.6,664.6,214.5L664.6,214.5z M678.2,217.2
						l-5.1,7c-0.4,0.5-1,0.8-1.6,0.8c-0.4,0-0.8-0.1-1.2-0.4c-0.9-0.7-1.1-1.9-0.4-2.8l5.1-7c0.6-0.9,1.9-1.1,2.8-0.4
						C678.7,215,678.9,216.3,678.2,217.2L678.2,217.2z M697.6,221.8c0.6,0.9,0.5,2.1-0.4,2.8c-0.4,0.3-0.8,0.4-1.2,0.4
						c-0.6,0-1.2-0.3-1.6-0.8l-5.1-7c-0.6-0.9-0.5-2.1,0.4-2.8c0.9-0.7,2.1-0.5,2.8,0.4L697.6,221.8L697.6,221.8z M685.8,226.9v-8.6
						c0-1.1-0.9-2-2-2s-2,0.9-2,2v8.6c0,1.1,0.9,2,2,2S685.8,228,685.8,226.9L685.8,226.9z"/>
				</g>
			</g>
			<g>
				<g>
					<path id="path-31" class="st4" d="M404.5,224.2c-0.4,0-0.9-0.1-1.3-0.4c-1.2-0.7-1.6-2.2-0.9-3.4l6.1-10.2
						c0.4-0.7,1.2-1.2,2-1.2c0.8,0,1.6,0.3,2.1,1l2.6,3.6l5.5-9.4c0.4-0.7,1.2-1.2,2-1.2c0.8,0,1.6,0.3,2.1,1l4.8,6.5l12.6-21
						c0.7-1.2,2.2-1.6,3.4-0.9c1.2,0.7,1.6,2.2,0.9,3.4l-14.6,24.2c-0.4,0.7-1.2,1.2-2,1.2c-0.8,0-1.6-0.3-2.1-1l-4.8-6.4l-5.6,9.4
						c-0.4,0.7-1.2,1.2-2,1.2c-0.8,0-1.6-0.3-2.1-1l-2.6-3.6l-4.1,7"/>
				</g>
			</g>
			<g>
				<g>
					<path id="path-32" class="st4" d="M489.8,201.8h15.1c1,0,1.8-0.8,1.8-1.8v-15.1c0-1-0.8-1.8-1.8-1.8c-9.3,0-16.8,7.5-16.8,16.8
						C488,201,488.8,201.8,489.8,201.8L489.8,201.8z M491.1,208.6c0,11.3,9.6,20.6,21.5,20.6s21.5-9.6,21.5-21.5
						c0-11.6-9.4-21.5-20.6-21.5c-1.1,0-2,0.9-2,2v18.3h-18.3C492,206.6,491.1,207.5,491.1,208.6L491.1,208.6z M491.6,198.2h11.4
						v-11.4C497.1,187.6,492.4,192.3,491.6,198.2L491.6,198.2z M512.5,225.1c-8.9,0-16.3-6.4-17.3-14.5h18.2c1.1,0,2-0.9,2-2v-18.2
						c8.1,1.1,14.5,8.6,14.5,17.3C530,217.3,522.2,225.1,512.5,225.1L512.5,225.1z"/>
				</g>
			</g>
			<g>
				<g>
					<path id="path-33" class="st4" d="M586.8,225.4c2.4,1.7,12.2,3.8,18.4,3.8c2,0,3.6-0.2,4.5-0.7c2.4-1.4,5.8-9.7,7.7-14.9
						c2.6-2,3.9-4.5,3.5-7c-0.4-2.5-2.2-4.4-4.9-5.3c-1.5-0.5-4-1.1-6-1.5c3-4.3,4.8-9.7,3.1-13.5c-0.8-1.9-2.4-3-4.4-3
						c-4.1,0-5.4,3.7-6.3,6.4c-0.7,2.2-3.9,5.7-8.4,8.2c-3.7,2-7.2,4.8-7.3,4.9c-0.5,0.4-0.8,1-0.8,1.6v19.6
						C585.9,224.4,586.2,225,586.8,225.4L586.8,225.4z M589.9,222.6c3.8,1.6,15.5,3.3,17.7,2.4c1.2-1.1,4.1-7.7,6.2-13.4
						c0.1-0.4,0.4-0.7,0.8-1c1.7-1.1,2.5-2.4,2.4-3.5c-0.1-0.9-0.9-1.7-2.2-2c-2.5-0.8-8.7-2.2-8.8-2.2c-0.7-0.2-1.3-0.7-1.5-1.4
						c-0.2-0.7,0-1.4,0.4-2c4.5-4.8,5.3-9.8,4.4-11.8c-0.3-0.6-0.5-0.6-0.7-0.6c-1,0-1.5,0.7-2.5,3.7c-1.2,3.5-5.3,7.7-10.3,10.4
						c-2.4,1.3-4.8,3-6,3.9V222.6L589.9,222.6z M582,223.9v-20c0-1.8-1.5-3.3-3.3-3.3c-1.8,0-3.3,1.5-3.3,3.3v20
						c0,1.8,1.5,3.3,3.3,3.3C580.6,227.2,582,225.7,582,223.9L582,223.9z"/>
				</g>
			</g>
			<g>
				<g>
					<path id="path-34" class="st4" d="M350.3,226.8c0.3,0.2,0.7,0.3,1.1,0.3c0.4,0,0.8-0.1,1.2-0.4c0.7-0.5,1-1.4,0.7-2.2
						l-3.5-12.5l10.5-8.9c0.6-0.5,0.9-1.4,0.6-2.1c-0.3-0.8-0.9-1.3-1.8-1.4l-12.6-0.9l-5.7-12.4c-0.3-0.7-1-1.2-1.8-1.2
						s-1.5,0.5-1.8,1.2l-5.7,12.4l-12.6,0.9c-0.8,0.1-1.5,0.6-1.8,1.4c-0.3,0.8,0,1.6,0.6,2.1l10.5,8.9l-3.5,12.5
						c-0.2,0.8,0.1,1.7,0.7,2.2c0.7,0.5,1.6,0.5,2.3,0.1l11.3-7.3L350.3,226.8L350.3,226.8z M340.1,215.5c-0.3-0.2-0.7-0.3-1.1-0.3
						s-0.8,0.1-1.1,0.3l-7.9,5.1l2.4-8.6c0.2-0.8,0-1.6-0.6-2.1l-7.8-6.6l8.9-0.6c0.7-0.1,1.4-0.5,1.7-1.2l4.4-9.5l4.4,9.5
						c0.3,0.7,0.9,1.1,1.7,1.2l8.9,0.6l-7.8,6.6c-0.6,0.5-0.8,1.3-0.6,2.1l2.4,8.6L340.1,215.5L340.1,215.5z"/>
				</g>
			</g>
			<g>
				<g>
					<path id="path-35" class="st4" d="M307.4,128.4c4.6,0,8.9,2.9,11,7.5c2.1,4.7,1.2,10-2.5,14.1c-8.8,9.8-16.5,16.8-16.6,16.9
						c-0.4,0.3-0.9,0.5-1.3,0.5c-0.5,0-1-0.2-1.3-0.5c-0.1-0.1-7.8-7-16.6-16.9c-3.7-4.1-4.6-9.4-2.5-14.1c2-4.6,6.3-7.5,11-7.5
						c4.6,0,7.6,2,9.4,4.2C299.8,130.5,302.8,128.4,307.4,128.4L307.4,128.4z M312.9,147.4c-6.5,7.3-12.4,12.9-14.9,15.3
						c-2.6-2.4-8.5-8-14.9-15.3c-2.6-2.9-3.3-6.5-1.8-9.8c1.4-3.1,4.3-5.1,7.3-5.1c6,0,7.3,4.5,7.5,5c0.2,0.9,1,1.5,1.9,1.5
						c0.9,0,1.7-0.6,1.9-1.5c0.1-0.5,1.5-5,7.5-5c3,0,6,2.1,7.3,5.1C316.2,140.9,315.6,144.4,312.9,147.4L312.9,147.4z M310.8,143.4
						c1-0.1,1.7-0.9,1.6-1.9c-0.3-4.7-3.7-6.4-5.4-6.6c-1-0.1-1.9,0.5-2,1.5c-0.1,1,0.5,1.8,1.5,2c0.4,0.1,2.2,0.5,2.4,3.4
						c0.1,0.9,0.8,1.6,1.7,1.6L310.8,143.4L310.8,143.4z M310.6,145.9c0-0.5-0.2-1-0.6-1.4c-0.4-0.4-0.9-0.6-1.4-0.6
						c-0.5,0-1,0.2-1.4,0.6c-0.4,0.4-0.6,0.9-0.6,1.4c0,0.5,0.2,1,0.6,1.4c0.4,0.4,0.9,0.6,1.4,0.6c0.5,0,1-0.2,1.4-0.6
						C310.4,147,310.6,146.4,310.6,145.9L310.6,145.9z"/>
				</g>
			</g>
			<g>
				<g>
					<path id="path-36" class="st4" d="M128,149.3c0.4,0.4,0.6,0.9,0.6,1.4s-0.2,1-0.6,1.4l-14,13.7c-0.4,0.4-0.9,0.6-1.4,0.6
						c-0.5,0-1-0.2-1.4-0.6l-18.7-18.4c-0.4-0.3-0.6-0.8-0.6-1.3l-1-14.6c0-0.6,0.2-1.1,0.6-1.5c0.4-0.4,1-0.6,1.6-0.6l14.9,0.9
						c0.5,0,0.9,0.2,1.3,0.6L128,149.3L128,149.3z M136.5,152c0.3-0.3,0.5-0.8,0.5-1.2c0-0.5-0.2-0.9-0.5-1.2l-18.7-18.4
						c-0.7-0.7-1.8-0.7-2.5,0c-0.7,0.7-0.7,1.8,0,2.5l17.4,17.1l-12.7,12.5c-0.7,0.7-0.7,1.8,0,2.5c0.3,0.3,0.8,0.5,1.3,0.5
						c0.4,0,0.9-0.2,1.2-0.5L136.5,152L136.5,152z M112.7,161.6l-16.7-16.4l-0.8-11.6l11.9,0.8l16.7,16.4L112.7,161.6L112.7,161.6z
						 M104.9,140.1c0-0.8-0.3-1.6-0.9-2.1c-0.6-0.6-1.3-0.9-2.1-0.9s-1.6,0.3-2.1,0.9c-0.6,0.6-0.9,1.3-0.9,2.1s0.3,1.6,0.9,2.1
						c0.6,0.6,1.3,0.9,2.1,0.9s1.6-0.3,2.1-0.9C104.5,141.7,104.9,140.9,104.9,140.1L104.9,140.1z"/>
				</g>
			</g>
			<g>
				<g>
					<path id="path-37" class="st4" d="M465.5,144.4h10c1.1,0,2-0.9,2-2c0-1.1-0.9-2-2-2h-5.2l11.1-11.1c0.8-0.8,0.8-2,0-2.8
						c-0.8-0.8-2-0.8-2.8,0l-11.1,11.1v-5.2c0-1.1-0.9-2-2-2c-1.1,0-2,0.9-2,2l0,10c0,0.5,0.2,1,0.6,1.4
						C464.4,144.2,464.9,144.4,465.5,144.4L465.5,144.4z M452.5,132.6c0-1.1,0.9-2,2-2c1.1,0,2,0.9,2,2l0,10c0,0.5-0.2,1-0.6,1.4
						c-0.4,0.4-0.9,0.6-1.4,0.6l-10,0c-1.1,0-2-0.9-2-2c0-1.1,1-2,2-2v-0.1h5.1l-11-11c-0.8-0.8-0.8-2,0-2.8c0.8-0.8,2.1-0.8,2.8,0
						l11.1,11V132.6L452.5,132.6z M444.3,151.4h10c0.5,0,1,0.3,1.4,0.7c0.4,0.4,0.6,0.9,0.6,1.5l0,10c0,1.1-0.9,1.9-1.9,1.9h0
						c-1.1,0-1.9-0.7-1.9-1.8v-5.2l-11,10.9c-0.4,0.4-1,0.6-1.5,0.6c-0.5,0-1-0.2-1.4-0.6c-0.8-0.8-0.8-2.1,0-2.9l10.9-11h-5.2
						c-1.1,0-2-0.9-2-2S443.2,151.4,444.3,151.4L444.3,151.4z M481.2,169.3c0.8-0.8,0.8-2,0-2.8l-10.8-10.8h5.2c1.1,0,2-0.9,2-2
						c0-1.1-0.9-2-2-2l-10,0c-0.5,0-1.1,0.2-1.4,0.6s-0.6,0.9-0.6,1.4v10c0,1.1,0.9,2,2,2c1.1,0,2-0.9,2-2v-5.2l10.8,10.8
						c0.4,0.4,0.9,0.6,1.4,0.6C480.3,169.9,480.8,169.7,481.2,169.3L481.2,169.3z"/>
				</g>
			</g>
			<g>
				<g>
					<path id="path-38" class="st4" d="M633.5,124.9c4.4,0,8.4,1.4,11.2,4c3.5,3.1,5.3,7.8,5.3,13.5c0,12.6-14.5,27.3-15.1,27.9
						c-0.4,0.4-0.9,0.6-1.4,0.6s-1-0.2-1.4-0.6c-0.6-0.6-15.1-15.3-15.1-27.9c0-5.8,1.8-10.4,5.3-13.5
						C625.1,126.3,629.1,124.9,633.5,124.9L633.5,124.9z M633.5,166c-1.4-1.5-3.5-4-5.6-7c-4.5-6.4-6.9-12.1-6.9-16.6
						c0-12.5,9.6-13.5,12.5-13.5c11.6,0,12.5,10.3,12.5,13.5C646,151.2,637,162,633.5,166L633.5,166z M625.5,141.6
						c0-4.5,3.6-8.1,8-8.1c4.4,0,8,3.6,8,8.1s-3.6,8.1-8,8.1C629.1,149.7,625.5,146.1,625.5,141.6L625.5,141.6z M629,141.6
						c0,2.5,2,4.6,4.5,4.6s4.5-2.1,4.5-4.6s-2-4.6-4.5-4.6S629,139.1,629,141.6L629,141.6z"/>
				</g>
			</g>
			<g>
				<g>
					<path id="path-39" class="st4" d="M551.1,168.9c0.1,0,0.2,0,0.3,0c0.8,0,1.5-0.5,1.8-1.2l17.1-38c0.3-0.8,0.2-1.6-0.4-2.2
						c-0.6-0.6-1.5-0.8-2.2-0.4l-38,17.1c-0.8,0.4-1.3,1.3-1.2,2.1c0.1,0.9,0.9,1.6,1.8,1.7l17.4,1.8l1.8,17.4
						C549.5,168,550.2,168.8,551.1,168.9L551.1,168.9z M549.7,145.9l-11.6-1.2l26.4-11.9l-11.9,26.4l-1.2-11.6
						C551.4,146.8,550.6,146,549.7,145.9L549.7,145.9z"/>
				</g>
			</g>
			<g>
				<g>
					<path id="path-40" class="st4" d="M218.6,127.6l10.6,5c0.6,0.3,0.9,0.9,0.9,1.6v32.5c0,0.6-0.2,1.2-0.7,1.5
						c-0.3,0.2-0.5,0.3-0.8,0.3c-0.3,0-0.5-0.1-0.7-0.2l-9.9-4.6l-9.9,4.6c-0.1,0-0.2,0.1-0.3,0.1l-0.1,0c-0.1,0-0.2,0-0.3,0
						c-0.1,0-0.2,0-0.3,0l-0.1,0c-0.1,0-0.2-0.1-0.3-0.1l-9.9-4.6l-9.9,4.6c-0.2,0.1-0.5,0.2-0.8,0.2c-0.3,0-0.7-0.1-1-0.3
						c-0.5-0.3-0.9-0.9-0.9-1.5v-32.5c0-0.7,0.5-1.3,1.1-1.6l10.7-5c0,0,0.1,0,0.1,0c0.1,0,0.1-0.1,0.2-0.1c0.1,0,0.1,0,0.2,0
						c0.1,0,0.1,0,0.2,0c0.1,0,0.1,0,0.2,0c0.1,0,0.1,0,0.2,0c0.1,0,0.1,0,0.2,0.1c0,0,0.1,0,0.1,0l9.9,4.6l9.9-4.6c0,0,0.1,0,0.1,0
						c0.1,0,0.1-0.1,0.2-0.1c0.1,0,0.1,0,0.2,0c0.1,0,0.1,0,0.2,0s0.1,0,0.2,0c0.1,0,0.1,0,0.2,0
						C218.4,127.5,218.4,127.5,218.6,127.6L218.6,127.6L218.6,127.6z M194.5,132l-7,3.3v28.6l7-3.3V132L194.5,132z M205,163.9
						l-6.5-3.3V132l6.5,3.3V163.9L205,163.9z M209,135.3l7-3.3v28.6l-7,3.3V135.3L209,135.3z M226.5,163.9l-7-3.3V132l7,3.3V163.9
						L226.5,163.9z"/>
				</g>
			</g>
			<g>
				<g>
					<path id="path-41" class="st4" d="M84.4,207.1c3.8-3.7,9.1-8.9,11.2-8.9h2.6l-2.7,2.8c-0.8,0.8-0.8,2.1,0,2.9
						c0.4,0.4,0.9,0.6,1.4,0.6c0.5,0,1-0.2,1.4-0.6l6.2-6.1c0.4-0.4,0.6-0.9,0.6-1.4c0-0.5-0.2-1-0.6-1.4l-6.2-6.1
						c-0.8-0.8-2-0.8-2.8,0c-0.8,0.8-0.8,2,0,2.8l2.7,2.7h-2.6c-3.7,0-8.5,4.7-14,10.1c-4.5,4.4-10.1,9.9-12.9,9.9H66
						c-1.1,0-2,0.9-2,2c0,1.1,0.9,2,2,2h2.7C73.1,218.2,78.6,212.7,84.4,207.1L84.4,207.1z M66,198.2h2.7c2.1,0,5.2,2.7,7.8,5
						c0.4,0.3,0.9,0.6,1.3,0.6c0.5,0,1.1-0.2,1.5-0.6c0.7-0.8,0.7-2.1-0.1-2.9c-3.9-3.6-7.2-6-10.4-6H66c-1.1,0-2,0.9-2,2
						S64.9,198.2,66,198.2L66,198.2z M98.3,208.4c-0.8-0.8-2-0.8-2.8,0c-0.8,0.8-0.8,2.1,0,2.9l2.7,2.8h-2.6c-1.6,0-4.4-2.4-7.1-5
						c-0.8-0.8-2.1-0.8-2.8,0.1c-0.8,0.8-0.7,2.1,0.1,2.9c4.1,3.9,6.9,6,9.8,6h2.6l-2.7,2.7c-0.8,0.8-0.8,2,0,2.8
						c0.4,0.4,0.9,0.6,1.4,0.6c0.5,0,1-0.2,1.4-0.6l6.2-6.2c0.4-0.4,0.6-0.9,0.6-1.4c0-0.5-0.2-1-0.6-1.4L98.3,208.4L98.3,208.4z"/>
				</g>
			</g>
			<g>
				<g>
					<path id="path-42" class="st4" d="M1102.7,185.8c0.6-0.6,1.4-0.8,2.1-0.4c0.7,0.3,1.2,1,1.2,1.8v38c0,0.8-0.4,1.5-1.2,1.8
						c-0.2,0.1-0.4,0.2-0.7,0.2c-0.5,0-1-0.2-1.4-0.6l-9.9-9.9h-4.9c-1.1,0-2-0.9-2-2v-17c0-1.1,0.9-2,2-2h4.9L1102.7,185.8
						L1102.7,185.8z M1124.9,224c-0.4,0.4-0.9,0.7-1.5,0.7c-0.5,0-1-0.2-1.3-0.5c-0.8-0.7-0.9-2-0.2-2.8c5.6-6.3,7.3-13.3,5.1-20.8
						c-1.7-5.7-5.1-9.5-5.1-9.5c-0.7-0.8-0.7-2.1,0.2-2.8c0.8-0.7,2.1-0.7,2.8,0.2C1125.1,188.5,1140.7,206.4,1124.9,224L1124.9,224
						z M1118.6,220c-0.4,0.4-0.9,0.7-1.5,0.7c-0.5,0-1-0.2-1.3-0.5c-0.8-0.7-0.9-2-0.2-2.8c9.9-11,0.4-21.8,0-22.3
						c-0.7-0.8-0.7-2.1,0.2-2.8c0.8-0.7,2.1-0.7,2.8,0.2C1118.8,192.5,1130.9,206.3,1118.6,220L1118.6,220z M1102,220.3l-7-7.1
						c-0.4-0.4-0.8-0.6-1.3-0.6h-3.7v-13h3.7c0.5,0,1-0.2,1.3-0.6l7-7.1V220.3L1102,220.3z M1111.1,215.3c0.6,0,1.1-0.2,1.5-0.7
						c6-6.7,2.6-14,0-16.9c-0.7-0.8-2-0.9-2.8-0.2c-0.8,0.7-0.9,2-0.2,2.8c0.5,0.6,5,6,0,11.6c-0.7,0.8-0.7,2.1,0.2,2.8
						C1110.1,215.1,1110.6,215.3,1111.1,215.3L1111.1,215.3z"/>
				</g>
			</g>
			<g>
				<g>
					<path id="path-43" class="st4" d="M1045,217.5l0-12.7c0-5.7-2.2-11.1-6.3-15.1c-4-4-9.4-6.3-15.2-6.3h-0.1
						c-11.8,0-21.5,9.6-21.5,21.3l0,12.7c0,1.1,0.9,2,2,2c1.1,0,2-0.9,2-2l0-12.7c0-9.6,7.9-17.3,17.5-17.3h0
						c4.7,0,9.1,1.8,12.4,5.1c3.3,3.3,5.1,7.7,5.1,12.3l0,12.6c0,1.1,0.9,1.9,2,1.9C1044.1,219.4,1045,218.6,1045,217.5L1045,217.5z
						 M1018.8,205.9c0.3,0.3,0.5,0.7,0.5,1.2l0,20.2c0,1-0.8,1.6-1.8,1.6c-6.6,0-8.8-3.8-9-5.9l0-0.1l0-11.4c0-0.1,0-0.1,0-0.2
						c0.2-2.1,2.4-5.9,9-5.9h0C1018,205.4,1018.5,205.5,1018.8,205.9L1018.8,205.9z M1038.6,211.5l0,11.4c0,0.1,0,0.1,0,0.1
						c-0.2,2.1-2.4,5.9-9,5.9c-1,0-1.7-0.7-1.8-1.6l-0.1-20.2c0-0.5,0.2-0.9,0.5-1.2c0.3-0.3,0.8-0.5,1.2-0.5h0c6.6,0,8.8,3.9,9,5.9
						C1038.6,211.4,1038.6,211.4,1038.6,211.5L1038.6,211.5z M1012,211.7c0.1-0.4,0.6-2.2,3.8-2.7l0,16.5c-3.1-0.5-3.7-2.3-3.8-2.7
						L1012,211.7L1012,211.7z M1035.1,222.8l0-11.1c-0.1-0.4-0.7-2.2-3.8-2.7l0,16.5C1034.5,225,1035,223.2,1035.1,222.8
						L1035.1,222.8z"/>
				</g>
			</g>
			<g>
				<g>
					<path id="path-44" class="st4" d="M372,150.2c0,1,0.4,2,1.1,2.8c0.8,1,1.9,1.5,2.9,1.5l4.9-0.1c2.3,0,4.1-2.3,4.1-4.3l0-20.8
						c0-2-1.8-4.4-4.1-4.4h-4.9c-1.1,0-2.1,0.6-2.9,1.5c-0.7,0.9-1.1,1.9-1.1,2.9L372,150.2L372,150.2z M376.3,150.6
						c-0.1-0.1-0.2-0.3-0.3-0.4l0-20.9c0-0.1,0.1-0.3,0.3-0.4l4.3,0c0.1,0.1,0.2,0.3,0.3,0.4l0,20.9c0,0.1-0.1,0.3-0.3,0.4
						L376.3,150.6L376.3,150.6z M389.2,139.4c-1,0-1.8,0.8-1.8,1.7l0,13c0,0.8-0.3,1.4-0.8,2c-0.5,0.5-1.2,0.8-1.9,0.8l-12.5,0
						c-0.7,0-1.4-0.3-1.9-0.8c-0.5-0.5-0.8-1.2-0.8-2l0-13c0-1-0.8-1.7-1.8-1.7c-1,0-1.8,0.8-1.8,1.7l0,13c0,1.7,0.6,3.2,1.8,4.4
						c1.2,1.2,2.8,1.9,4.4,1.9l12.5,0c1.7,0,3.3-0.7,4.4-1.9c1.2-1.2,1.8-2.8,1.8-4.4l0-13C391,140.2,390.2,139.4,389.2,139.4
						L389.2,139.4z M387.6,170.9c1.1,0,2-0.9,2-2c0-1.1-0.9-2-2-2h-7.3l0-3.4c0-1-0.8-1.7-1.8-1.8c-1,0-1.8,0.8-1.8,1.7l0,3.4h-7.4
						c-1.1,0-2,0.9-2,2c0,1.1,0.9,2,2,2H387.6L387.6,170.9z"/>
				</g>
			</g>
			<g>
				<g>
					<path id="path-45" class="st4" d="M43.7,126.4c0.5,0.4,0.7,1,0.7,1.6l0,28.5c0,0.6,0,0.8,0,0.8c-0.3,4-4.2,7-8.9,7
						c-4.9,0-8.9-3.3-8.9-7.6c0-2.1,1-4,2.7-5.4c1.7-1.4,3.8-2,6.1-2c1.8,0,3.4,0.3,4.8,1.1l0-11.9l-21.3,4.3L19,162.5
						c0,2.1-0.9,3.9-2.6,5.4c-1.7,1.4-3.7,1.9-6,1.9c-4.9,0-8.9-3.3-8.9-7.5c0-2.1,1-3.9,2.7-5.4c1.7-1.4,3.8-2.1,6.1-2.1
						c1.8,0,3.5,0.4,4.9,1.2l0-23c0-1,0.7-1.8,1.6-2l25.2-5.1C42.7,125.9,43.3,126.1,43.7,126.4L43.7,126.4z M19.3,134.8l0,4.6
						l21.2-4.3l0-4.6L19.3,134.8L19.3,134.8z M30.7,156.7c0,2,2.2,3.6,4.9,3.6c2.5,0,4.4-1.4,4.9-3.2v-0.6c0-1.9-2.4-3.2-4.9-3.2
						c-1.4,0-2.7,0.3-3.6,1.1C31.2,155.1,30.7,155.8,30.7,156.7L30.7,156.7z M14,164.8c-0.9,0.8-2.2,1-3.6,1c-2.6,0-4.9-1.5-4.9-3.5
						c0-0.9,0.5-1.7,1.3-2.4c0.9-0.8,2.2-1.1,3.6-1.1c2.6,0,4.9,1.6,4.9,3.6C15.3,163.4,14.8,164.1,14,164.8L14,164.8z"/>
				</g>
			</g>
			<g>
				<g>
					<path id="path-46" class="st4" d="M952.5,105.4v-24c0-1.1-0.9-2-2-2s-2,0.9-2,2v10h-23v-10c0-1.1-0.9-2-2-2s-2,0.9-2,2v24
						c0,1.1,0.9,2,2,2s2-0.9,2-2v-10h23v10c0,1.1,0.9,2,2,2S952.5,106.5,952.5,105.4L952.5,105.4z M917,84.4c-1.1,0-2,0.9-2,2v14.1
						c0,1.1,0.9,2,2,2s2-0.9,2-2V86.4C919,85.2,918.1,84.4,917,84.4L917,84.4z M957,84.4c-1.1,0-2,0.9-2,2v14.1c0,1.1,0.9,2,2,2
						s2-0.9,2-2V86.4C959,85.2,958.1,84.4,957,84.4L957,84.4z"/>
				</g>
			</g>
			<g>
				<g>
					<path id="path-47" class="st4" d="M868.9,111c0.8,0.8,0.8,2,0,2.8c-0.4,0.4-0.9,0.6-1.4,0.6c-0.5,0-1-0.2-1.4-0.6l-15.9-15.9
						l-15.7,15.9c-0.4,0.4-0.9,0.6-1.4,0.6c-0.5,0-1-0.2-1.4-0.6c-0.8-0.8-0.8-2,0-2.8l15.7-15.9l-2.7-2.7l-0.4,0.4
						c-1.3,1.3-3,2-4.8,2c-1.8,0-3.5-0.7-4.8-2l-6.6-6.6c-0.8-0.8-0.8-2,0-2.8c0.8-0.8,2-0.8,2.8,0l6.6,6.6c0.5,0.5,1.2,0.8,1.9,0.8
						s1.4-0.3,1.9-0.8l0.4-0.4l-8.6-8.6c-0.8-0.8-0.8-2,0-2.8c0.8-0.8,2-0.8,2.8,0l8.6,8.6l0.5-0.5c1.1-1.1,1.1-2.8,0-3.9l-6.6-6.6
						c-0.8-0.8-0.8-2,0-2.8c0.8-0.8,2-0.8,2.8,0l6.6,6.6c2.6,2.6,2.6,6.9,0,9.5l-0.5,0.5l2.6,2.6l17.6-17.9c0.4-0.4,0.9-0.6,1.4-0.6
						c0.5,0,1,0.2,1.4,0.6c4.4,4.4,3.7,10.7-1.9,16.3l-6.8,6.8c-0.8,0.8-2,0.8-2.8,0c-0.8-0.8-0.8-2,0-2.8l6.8-6.8
						c4.1-4.1,4-7.1,3.1-9l-16,16.2L868.9,111z"/>
				</g>
			</g>
			<g>
				<g>
					<path id="path-48" class="st4" d="M613.1,84.2c1.3,0.7,2.3,1.9,2.7,3.4c0.4,1.5,0.3,3-0.5,4.3c-1,1.6-2.7,2.5-4.1,3l2.9,10.3
						c0.2,0.7,0,1.5-0.5,2c-0.4,0.4-0.9,0.6-1.4,0.6c-0.2,0-0.4,0-0.5-0.1c-10.1-2.9-13.9-3-22.2-1.8l-2.9,0.8l0.7,2.3
						c0.2,0.5,0.5,1,0.9,1.4l1,1c0.8,0.8,0.8,2,0.1,2.8c-0.4,0.4-0.9,0.6-1.5,0.6c-0.5,0-1-0.2-1.4-0.5l-1-1c-0.9-0.9-1.6-2-2-3.2
						l-0.7-2.3c-0.8,0.2-1.6,0.3-2.4,0.3c-1.7,0-3.4-0.4-5-1.3c-2.4-1.3-4.2-3.6-4.9-6.2c-1.6-5.5,1.6-11.2,7.1-12.8l6.2-1.8
						c7.9-3.5,10.8-5.4,18-13.4c0.5-0.5,1.2-0.8,1.9-0.6c0.7,0.2,1.3,0.7,1.5,1.4l2.9,10.3C609.4,83.4,611.4,83.3,613.1,84.2
						L613.1,84.2z M590.5,101.7c2.7-0.4,4.9-0.6,7.2-0.6c3.5,0,6.9,0.5,11.6,1.7l-7.1-24.9c-5.6,5.9-9,8.1-15.3,11l0.7,2.5
						L590.5,101.7L590.5,101.7z M599.2,86.4c0.6,0.8,0.4,1.9-0.4,2.4c-1.8,1.3-3.9,2.4-4,2.5c-0.3,0.1-0.5,0.2-0.8,0.2
						c-0.6,0-1.2-0.3-1.6-0.9c-0.4-0.9-0.1-1.9,0.7-2.4c0,0,2-1,3.6-2.2C597.5,85.5,598.6,85.7,599.2,86.4L599.2,86.4z M611.8,89.8
						c-0.3,0.5-1.1,1-1.8,1.3l-1-3.5c0.8-0.1,1.6-0.1,2.2,0.2c0.2,0.1,0.5,0.3,0.7,0.9C612.1,89.2,612,89.5,611.8,89.8L611.8,89.8z
						 M577.3,103.3c-1.5-0.8-2.6-2.2-3-3.8c-1-3.4,1-6.9,4.3-7.9l4.5-1.3l2.1,7.3l1.4,5l-4.5,1.3
						C580.4,104.3,578.7,104.1,577.3,103.3L577.3,103.3z"/>
				</g>
			</g>
			<g>
				<g>
					<path id="path-49" class="st4" d="M264.5,70.5c1,0.1,1.8,0.8,1.8,1.8c0.7,8.4-1.6,15.8-6.8,21.9c-1.7,2-3.7,3.8-6,5.5
						c1,3.1,0.7,6.5-1,9.5c-1.7,2.9-4.4,5.4-7.8,7c-0.3,0.1-0.6,0.2-0.9,0.2c-0.5,0-1.1-0.2-1.4-0.6c-0.6-0.6-0.7-1.6-0.3-2.3
						c1.7-3.2,1.4-6.8-0.8-9l0-0.1l-8.8-8.8c-2.2-2.2-5.8-2.5-9-0.8c-0.8,0.4-1.7,0.3-2.3-0.3c-0.6-0.6-0.8-1.5-0.4-2.3
						c1.6-3.4,4.1-6.2,7-7.8c3-1.7,6.4-2.1,9.5-1.1C242.8,75.7,251.9,69.5,264.5,70.5L264.5,70.5z M243.2,100.8l-7-7
						c3.5-9.5,12.3-19.6,26.4-19.3C263,91.2,249.1,98.4,243.2,100.8L243.2,100.8z M257,83.1c0-0.9-0.3-1.7-0.9-2.3
						c-0.6-0.6-1.4-0.9-2.3-0.9s-1.7,0.3-2.3,0.9c-0.6,0.6-1,1.4-1,2.3s0.4,1.7,1,2.3s1.4,1,2.3,1s1.7-0.3,2.3-1S257,84,257,83.1
						L257,83.1z M227.2,89.8c2.1-2.1,4.9-3.4,7.7-2.9c-0.8,1.4-1.5,2.8-2,4.2C231.2,90.2,229.2,89.7,227.2,89.8L227.2,89.8z
						 M227.9,101.6c-2.3,2.3-2.4,6.9-2.4,7.8c0,1.1,0.9,2,2,2h0.1c1,0,5.4-0.2,7.7-2.4c1.4-1.4,1.7-2.9,1.7-3.8
						c0-1.3-0.6-2.6-1.6-3.7C232.9,99,229.8,99.8,227.9,101.6L227.9,101.6z M245.8,104c0.9,1.7,1.4,3.7,1.3,5.7
						c2.1-2.1,3.4-4.9,2.9-7.8C248.7,102.7,247.3,103.4,245.8,104L245.8,104z M232.5,106.1c-0.5,0.5-1.6,0.8-2.7,1
						c0.2-1.1,0.5-2.2,1-2.7c0.3-0.3,0.6-0.5,1-0.5c0.3,0,0.5,0.1,0.8,0.4c0.3,0.3,0.4,0.6,0.4,0.8
						C233,105.5,232.7,105.9,232.5,106.1L232.5,106.1z"/>
				</g>
			</g>
			<g>
				<g>
					<path id="path-50" class="st4" d="M1166.6,31.3c2.2-0.3,4.1-1.3,5.6-2.8c4.1-4.2,3.9-11.5,3.9-11.8c0-0.9-0.8-1.7-1.7-1.7h-7.5
						v-1.5c0-1.1-0.8-2-1.9-2h-23.1c-1.1,0-2,0.9-2,2v1.5h-7.5c-0.9,0-1.7,0.8-1.7,1.7c0,0.3-0.2,7.6,3.9,11.8
						c1.5,1.6,3.4,2.5,5.6,2.8c1.1,6.7,5.8,10.1,11.3,10.8v7.4h-4.3c-1.1,0-2,0.9-2,2s0.9,2,2,2h12.6c1.1,0,2-0.9,2-2s-0.9-2-2-2
						h-4.3v-7.4C1160.7,41.4,1165.5,38,1166.6,31.3L1166.6,31.3z M1143.8,15.4h19v13c0,7.2-4.9,9.8-9.5,9.8s-9.5-2.6-9.5-9.8V15.4
						L1143.8,15.4z M1157.3,19.1v4.5c0,1,0.8,1.8,1.8,1.8s1.8-0.8,1.8-1.8v-4.5c0-1-0.8-1.8-1.8-1.8S1157.3,18.1,1157.3,19.1
						L1157.3,19.1z M1136.9,26c0.8,0.8,1.8,1.4,2.8,1.7v-9.2h-5.7C1134.2,20.4,1134.9,23.9,1136.9,26L1136.9,26z M1172.4,18.4
						c-0.2,2.5-0.9,5.6-2.9,7.6c-0.8,0.8-1.8,1.4-2.8,1.7v-9.2H1172.4L1172.4,18.4z M1158.9,30.3c0.5,0,1-0.2,1.4-0.6
						c0.4-0.4,0.6-0.9,0.6-1.4s-0.2-1-0.6-1.4c-0.4-0.4-0.9-0.6-1.4-0.6c-0.5,0-1,0.2-1.4,0.6c-0.4,0.4-0.6,0.9-0.6,1.4
						c0,0.5,0.2,1,0.6,1.4C1157.9,30.1,1158.4,30.3,1158.9,30.3L1158.9,30.3z"/>
				</g>
			</g>
			<g>
				<g>
					<path id="path-51" class="st4" d="M482.5,93.4c0-12.7,10.3-23,23-23s23,10.3,23,23s-10.3,23-23,23S482.5,106.1,482.5,93.4
						L482.5,93.4z M499.5,94.5c1.2,0.1,2.6,0.2,4,0.2V74.5c-4.2,0.4-8.1,2.3-11,5.1C494.3,81.5,499.1,87.2,499.5,94.5L499.5,94.5z
						 M511.5,94.5c-1.2,0.1-2.6,0.2-4,0.2V74.5c4.2,0.4,8.1,2.3,11,5.1C516.7,81.5,511.9,87.2,511.5,94.5L511.5,94.5z M489.9,82.6
						c1.6,1.7,5.1,6,5.6,11.4c-4.8-0.7-7.7-1.8-8.8-2.4C486.9,88.4,488.1,85.3,489.9,82.6L489.9,82.6z M515.6,94.1
						c4.9-0.7,7.7-1.8,8.8-2.4c-0.3-3.3-1.5-6.4-3.3-9.1C519.6,84.4,516.1,88.7,515.6,94.1L515.6,94.1z M495.2,98.1
						c-3.9-0.6-6.7-1.4-8.5-2c0.5,3.6,2,6.9,4.3,9.6C492.3,104.5,494.5,102,495.2,98.1L495.2,98.1z M520,105.7
						c-1.3-1.2-3.5-3.7-4.2-7.6c3.9-0.6,6.7-1.4,8.5-2C523.8,99.7,522.3,103,520,105.7L520,105.7z M499.2,98.5
						c1.3,0.1,2.8,0.2,4.3,0.2v13.6c-3.6-0.4-6.9-1.8-9.6-3.9C495.7,106.7,498.3,103.4,499.2,98.5L499.2,98.5z M507.5,98.7
						c1.5,0,3-0.1,4.3-0.2c0.9,4.9,3.6,8.2,5.3,9.9c-2.7,2.1-6,3.5-9.6,3.9V98.7L507.5,98.7z"/>
				</g>
			</g>
			<g>
				<g>
					<path id="path-52" class="st4" d="M779.1,82.4c2,0,3.7,1.6,3.9,3.6l2.9,27.7c0.1,0.6-0.1,1.1-0.5,1.6c-0.4,0.4-0.9,0.7-1.5,0.7
						h-37c-0.6,0-1.1-0.2-1.5-0.7c-0.4-0.4-0.6-1-0.5-1.6l2.9-27.7c0.2-2,1.9-3.6,3.9-3.6h3.6v-0.9c0-5.8,4.3-10.6,9.9-10.6h0.2
						c5.6,0,9.9,4.8,9.9,10.6v0.9H779.1L779.1,82.4z M759.5,81.5c0-3.6,2.5-6.6,5.9-6.6h0.2c3.4,0,5.9,3,5.9,6.6v0.9h-12V81.5
						L759.5,81.5z M749.2,111.9l2.7-25.5h27.2l2.7,25.5H749.2L749.2,111.9z"/>
				</g>
			</g>
			<g>
				<g>
					<path id="path-53" class="st4" d="M703.5,98.9c0,1.1-0.9,2-2,2h-9.4c-0.8,0-1.6-0.5-1.9-1.3l-1.5-4.2l-4.9,16.6
						c-0.3,0.9-1,1.4-1.9,1.4c0,0,0,0-0.1,0c-0.9,0-1.7-0.7-1.9-1.6l-6.5-27.9l-3.9,15.5c-0.2,0.9-1,1.5-1.9,1.5h-8.2
						c-1.1,0-2-0.9-2-2s0.9-2,2-2h6.6l5.5-22.1c0.2-0.9,1-1.5,2-1.5c0.9,0,1.7,0.6,1.9,1.5l6.6,28.6l4.5-15.2c0.2-0.8,1-1.4,1.9-1.4
						c0.9,0,1.7,0.5,1.9,1.3l3.1,8.7h8"/>
				</g>
			</g>
			<g>
				<g>
					<path id="path-54" class="st4" d="M321.8,75.3c7.5-2.3,19-2.8,30.8,7.5c1,0.9,1.1,2.5,0.2,3.5c-0.5,0.6-1.2,0.8-1.9,0.8
						c-0.6,0-1.2-0.2-1.6-0.6c-8.1-7.1-16.9-9.3-26.1-6.5c-7,2.1-11.5,6.3-11.5,6.3c-1,0.9-2.6,0.9-3.5-0.1s-0.9-2.6,0.1-3.5
						C308.5,82.6,313.7,77.7,321.8,75.3L321.8,75.3z M345.7,93.1c0.9-1,0.9-2.6-0.1-3.5c-11.5-10.5-24.7-4.8-30.1-0.2
						c-1.1,0.9-1.2,2.4-0.3,3.5s2.5,1.2,3.5,0.3c0.5-0.4,12.4-10.1,23.5,0.1c0.5,0.4,1.1,0.7,1.7,0.7
						C344.5,93.9,345.2,93.6,345.7,93.1L345.7,93.1z M321.8,100c-0.9-1.1-0.7-2.6,0.4-3.5c3.1-2.4,10.4-5.4,16.5,0.2
						c1,0.9,1.1,2.5,0.1,3.5c-0.5,0.5-1.2,0.8-1.8,0.8c-0.6,0-1.2-0.2-1.7-0.7c-4.5-4.2-9.8-0.1-10,0.1
						C324.3,101.2,322.7,101,321.8,100L321.8,100z M330.6,103.5c-1.2,0-2.5,0.5-3.4,1.4c-0.9,0.9-1.4,2.1-1.4,3.3s0.5,2.5,1.4,3.3
						c0.9,0.9,2.1,1.4,3.4,1.4s2.5-0.5,3.4-1.4c0.9-0.9,1.4-2.1,1.4-3.3s-0.5-2.5-1.4-3.3C333.1,104,331.9,103.5,330.6,103.5
						L330.6,103.5z"/>
				</g>
			</g>
			<g>
				<g>
					<path id="path-55" class="st4" d="M1256.7,10.6c0.4-0.9,1.3-1.4,2.2-1.2c0.9,0.2,1.6,1,1.6,2c-0.1,11.7-5.3,20.7-12.8,22.4
						c-3.6,0.8-6.4-0.1-8.9-0.9c-2.2-0.7-4.1-1.4-6.5-0.8c-4,0.9-6.6,4.3-7.5,5.7l3.4,15.1c0.2,1.1-0.4,2.1-1.5,2.4
						c-0.1,0-0.3,0-0.4,0c-0.9,0-1.7-0.6-1.9-1.6l-5.8-25.9l-2-8.9c-0.1-0.5,0-0.9,0.2-1.3c0.1-0.3,3.4-6.5,10.3-7.8
						c4.7-0.9,8.4,1.8,11.6,4.2c2.6,1.9,5,3.7,7.6,3.6C1250.8,17.4,1256.1,11.9,1256.7,10.6L1256.7,10.6z M1240.1,29.1
						c2.3,0.8,4.2,1.4,6.7,0.8c4.9-1.1,7.9-6.6,9.1-12.6c-2.7,2.2-6.1,4.1-9.5,4.3c-4,0.2-7.2-2.2-10.1-4.4c-3-2.2-5.5-4.1-8.5-3.5
						c-4,0.8-6.3,3.8-7.2,5.1l2.9,13l0.2,0.9c1.7-1.9,4.3-3.9,7.7-4.6C1234.9,27.4,1237.7,28.3,1240.1,29.1L1240.1,29.1z"/>
				</g>
			</g>
			<g>
				<g>
					<path id="path-56" class="st4" d="M433.5,84.9h5.5c1.1,0,2,0.7,2,1.8v7.5c0,1.1-0.9,2.2-2,2.2h-0.6l-3.8,15.2
						c-0.4,1.7-2,2.8-3.7,2.8h-25.7c-1.8,0-3.3-1.1-3.7-2.8l-3.8-15.2H397c-1.1,0-2-1.1-2-2.2v-7.5c0-1.1,0.9-1.8,2-1.8h5.5
						c0,0,0-0.1,0.1-0.2l9.5-11.6c0.7-0.9,2-1,2.8-0.2c0.9,0.7,1,2,0.3,2.9l-7.4,9.1h20.7l-7.4-9.1c-0.7-0.9-0.6-2.2,0.3-2.9
						c0.9-0.7,2.1-0.6,2.8,0.3l9.5,11.6C433.5,84.8,433.5,84.9,433.5,84.9L433.5,84.9z M399,88.9h38v3.5h-38V88.9L399,88.9z
						 M430.7,110.4h-25.5l-3.5-14h32.5L430.7,110.4L430.7,110.4z"/>
				</g>
			</g>
			<g>
				<g>
					<path id="path-57" class="st4" d="M825.6,44.8l4.8-22.9c0.1-0.4,0-0.8-0.2-1.1c-0.2-0.3-0.6-0.6-1-0.6l-31.6-6.4
						c-0.8-0.2-1.6,0.3-1.8,1.1l-1,4.6c-0.2,0.8,0.3,1.6,1.1,1.8c0.8,0.2,1.6-0.3,1.8-1.1l0.7-3.2l28.7,5.8l-4.4,21.4
						c-0.2,0.8,0.4,1.6,1.2,1.8c0.1,0,0.2,0,0.3,0C824.8,45.9,825.4,45.5,825.6,44.8L825.6,44.8z M821,49.2c0,1.1-0.9,2-2,2h-32.5
						c-1.1,0-2-0.9-2-2V24.7c0-1.1,0.9-2,2-2H819c1.1,0,2,0.9,2,2V49.2L821,49.2z M788.5,39V26.7h28v12.3l-1.7-1.7
						c-0.7-0.6-1.4-0.6-2,0l-4,3.4l-9.5-8.4c-0.6-0.6-1.7-0.6-2.4,0L788.5,39L788.5,39z M808.2,34.8c1.7,0,3.1-1.4,3.1-3.1
						c0-1.7-1.4-3.1-3.1-3.1s-3.1,1.4-3.1,3.1C805.1,33.4,806.5,34.8,808.2,34.8L808.2,34.8z M816.5,47.2v-3.6l-2.8-2.7l-3.8,3.4
						c-0.7,0.6-1.6,0.6-2.2,0l-9.7-8.4l-9.5,7.7v3.6H816.5L816.5,47.2z"/>
				</g>
			</g>
			<g>
				<g>
					<path id="path-58" class="st4" d="M23,194.4c0,0.1,0,0.1,0,0.2l0,0v23c0,1.1-0.9,2-2,2h-42c-1.1,0-2-0.9-2-2v-23l0,0
						c0-0.1,0-0.1,0-0.2c0-0.1,0-0.1,0-0.2c0-0.1,0-0.1,0.1-0.2c0-0.1,0-0.1,0.1-0.2c0-0.1,0.1-0.1,0.1-0.2c0-0.1,0.1-0.1,0.1-0.2
						l0,0c0,0,0.1-0.1,0.1-0.1c0-0.1,0.1-0.1,0.1-0.2c0,0,0.1-0.1,0.2-0.1c0.1,0,0.1-0.1,0.2-0.1c0.1,0,0.1-0.1,0.2-0.1
						c0.1,0,0.1-0.1,0.2-0.1c0.1,0,0.1,0,0.2-0.1c0.1,0,0.1,0,0.2,0c0.1,0,0.1,0,0.2,0c0,0,0.1,0,0.1,0h42c0,0,0.1,0,0.1,0
						c0.1,0,0.1,0,0.2,0c0.1,0,0.1,0,0.2,0c0.1,0,0.1,0,0.2,0.1c0.1,0,0.1,0.1,0.2,0.1c0.1,0,0.1,0.1,0.2,0.1c0.1,0,0.1,0.1,0.2,0.1
						c0.1,0,0.1,0.1,0.2,0.1c0.1,0,0.1,0.1,0.1,0.2c0,0,0.1,0.1,0.1,0.1l0,0c0,0.1,0.1,0.1,0.1,0.2c0,0.1,0.1,0.1,0.1,0.2
						c0,0.1,0,0.1,0.1,0.2c0,0.1,0,0.1,0.1,0.2C23,194.3,23,194.3,23,194.4L23,194.4z M15,196.7L0,207.8l-15-11.1H15L15,196.7z
						 M-19,215.7v-17l17.8,13.2c0.4,0.3,0.8,0.4,1.2,0.4c0.4,0,0.8-0.1,1.2-0.4L19,198.6v17H-19L-19,215.7z"/>
				</g>
			</g>
			<g>
				<g>
					<path id="path-59" class="st4" d="M1309,194.4c0,0.1,0,0.1,0,0.2l0,0v23c0,1.1-0.9,2-2,2h-42c-1.1,0-2-0.9-2-2v-23l0,0
						c0-0.1,0-0.1,0-0.2c0-0.1,0-0.1,0-0.2c0-0.1,0-0.1,0.1-0.2c0-0.1,0-0.1,0.1-0.2c0-0.1,0.1-0.1,0.1-0.2c0-0.1,0.1-0.1,0.1-0.2
						l0,0c0,0,0.1-0.1,0.1-0.1c0-0.1,0.1-0.1,0.1-0.2c0,0,0.1-0.1,0.2-0.1c0.1,0,0.1-0.1,0.2-0.1c0.1,0,0.1-0.1,0.2-0.1
						c0.1,0,0.1-0.1,0.2-0.1c0.1,0,0.1,0,0.2-0.1c0.1,0,0.1,0,0.2,0c0.1,0,0.1,0,0.2,0c0,0,0.1,0,0.1,0h42c0,0,0.1,0,0.1,0
						c0.1,0,0.1,0,0.2,0c0.1,0,0.1,0,0.2,0c0.1,0,0.1,0,0.2,0.1c0.1,0,0.1,0.1,0.2,0.1c0.1,0,0.1,0.1,0.2,0.1c0.1,0,0.1,0.1,0.2,0.1
						c0.1,0,0.1,0.1,0.2,0.1c0.1,0,0.1,0.1,0.1,0.2c0,0,0.1,0.1,0.1,0.1l0,0c0,0.1,0.1,0.1,0.1,0.2c0,0.1,0.1,0.1,0.1,0.2
						c0,0.1,0,0.1,0.1,0.2c0,0.1,0,0.1,0.1,0.2C1309,194.3,1309,194.3,1309,194.4L1309,194.4z M1301,196.7l-15,11.1l-15-11.1H1301
						L1301,196.7z M1267,215.7v-17l17.8,13.2c0.4,0.3,0.8,0.4,1.2,0.4c0.4,0,0.8-0.1,1.2-0.4l17.8-13.2v17H1267L1267,215.7z"/>
				</g>
			</g>
			<g>
				<g>
					<path id="path-60" class="st4" d="M1217,81.7c0,0.1,0,0.1,0,0.2l0,0v23c0,1.1-0.9,2-2,2h-42c-1.1,0-2-0.9-2-2v-23l0,0
						c0-0.1,0-0.1,0-0.2c0-0.1,0-0.1,0-0.2c0-0.1,0-0.1,0.1-0.2c0-0.1,0-0.1,0.1-0.2c0-0.1,0.1-0.1,0.1-0.2c0-0.1,0.1-0.1,0.1-0.2
						l0,0c0,0,0.1-0.1,0.1-0.1c0-0.1,0.1-0.1,0.1-0.2c0,0,0.1-0.1,0.2-0.1c0.1,0,0.1-0.1,0.2-0.1c0.1,0,0.1-0.1,0.2-0.1
						c0.1,0,0.1-0.1,0.2-0.1c0.1,0,0.1,0,0.2-0.1c0.1,0,0.1,0,0.2,0c0.1,0,0.1,0,0.2,0c0,0,0.1,0,0.1,0h42c0,0,0.1,0,0.1,0
						c0.1,0,0.1,0,0.2,0c0.1,0,0.1,0,0.2,0c0.1,0,0.1,0,0.2,0.1c0.1,0,0.1,0.1,0.2,0.1c0.1,0,0.1,0.1,0.2,0.1c0.1,0,0.1,0.1,0.2,0.1
						c0.1,0,0.1,0.1,0.2,0.1c0.1,0,0.1,0.1,0.1,0.2c0,0,0.1,0.1,0.1,0.1l0,0c0,0.1,0.1,0.1,0.1,0.2c0,0.1,0.1,0.1,0.1,0.2
						c0,0.1,0,0.1,0.1,0.2c0,0.1,0,0.1,0.1,0.2C1217,81.5,1217,81.6,1217,81.7L1217,81.7z M1209,83.9L1194,95l-15-11.1H1209
						L1209,83.9z M1175,102.9v-17l17.8,13.2c0.4,0.3,0.8,0.4,1.2,0.4c0.4,0,0.8-0.1,1.2-0.4l17.8-13.2v17H1175L1175,102.9z"/>
				</g>
			</g>
			<g>
				<g>
					<path id="path-61" class="st4" d="M830.5,186.2h42c1.1,0,2,0.9,2,2v25.5c0,1.1-0.9,2-2,2H866l-8.3,9.8c-0.4,0.5-1,0.7-1.6,0.7
						c-0.2,0-0.5,0-0.7-0.1c-0.8-0.3-1.4-1-1.4-1.9v-8.5h-23.5c-1.1,0-2-0.9-2-2v-25.5C828.5,187.1,829.4,186.2,830.5,186.2
						L830.5,186.2z M870.5,211.7h-5.4c-0.6,0-1.3,0.3-1.6,0.7l-5.5,6.3v-5c0-1.1-0.7-2-1.8-2h-23.7v-21.5h38V211.7L870.5,211.7z
						 M839.8,195.2c-1.1,0-2,0.9-2,2s0.9,2,2,2h14.5c1.1,0,2-0.9,2-2s-0.9-2-2-2H839.8L839.8,195.2z M859.2,197.3
						c0,0.5,0.2,1,0.6,1.4c0.4,0.4,0.9,0.6,1.4,0.6s1-0.2,1.4-0.6c0.4-0.4,0.6-0.9,0.6-1.4s-0.2-1-0.6-1.4c-0.4-0.4-0.9-0.6-1.4-0.6
						c-0.5,0-1,0.2-1.4,0.6C859.4,196.2,859.2,196.8,859.2,197.3L859.2,197.3z"/>
				</g>
			</g>
			<g>
				<g>
					<path id="path-62" class="st4" d="M134,20.9h19.5c1.1,0,2,1.3,2,2.5v16.8c0,1.1-0.9,2.2-2,2.2h-3.2l-7.5,7.6
						c-0.4,0.4-0.9,0.5-1.4,0.5c-0.3,0-0.5,0-0.7-0.1c-0.8-0.3-1.2-1-1.2-1.9v-6.1h-13.7c-1.1,0-2.3-1.1-2.3-2.2v-9.3h-3v3.2
						c0,0.6-0.3,1.2-0.9,1.4c-0.2,0.1-0.3,0.1-0.4,0.1c-0.4,0-0.8-0.1-1.1-0.4l-4-4.3h-3c-0.8,0-1.5-1-1.5-1.8V16.3
						c0-0.8,0.7-1.9,1.5-1.9h21.1c0.8,0,1.9,1.1,1.9,1.9V20.9L134,20.9z M119.2,27.9c-0.8,0-1.7,0.4-1.7,1.2v1l-1.7-1.9
						c-0.3-0.3-0.6-0.3-1.1-0.3h-2.2V17.4h18v3.5h-4.7c-1.1,0-2.3,1.3-2.3,2.5v4.5H119.2L119.2,27.9z M149.4,38.4h2.1V24.9h-24v13.5
						h13.8c1.1,0,2.2,0.7,2.2,1.8v3.3l4.5-4.6C148.4,38.5,148.9,38.4,149.4,38.4L149.4,38.4z M144.9,30.4c-0.3-0.3-0.4-0.7-0.4-1.1
						c0-0.4,0.2-0.8,0.4-1.1c0.6-0.6,1.6-0.6,2.1,0c0.3,0.3,0.4,0.7,0.4,1.1c0,0.4-0.2,0.8-0.4,1.1c-0.3,0.3-0.7,0.4-1.1,0.4
						C145.6,30.8,145.2,30.7,144.9,30.4L144.9,30.4z M130.4,29.4c0-0.8,0.7-1.5,1.5-1.5h9.6c0.8,0,1.5,0.7,1.5,1.5s-0.7,1.5-1.5,1.5
						h-9.6C131.1,30.9,130.4,30.2,130.4,29.4L130.4,29.4z"/>
				</g>
			</g>
			<g>
				<g>
					<path id="path-63" class="st4" d="M783.5,183.9l3.6,3.6c0.6,0.6,0.6,1.5,0,2.1l-21,21.2c-0.1,0.1-0.3,0.3-0.5,0.3l-5.9,2.3
						c-0.2,0.1-0.4,0.1-0.6,0.1c-0.4,0-0.8-0.2-1.1-0.4c-0.4-0.4-0.6-1.1-0.3-1.6l2.3-6c0.1-0.2,0.2-0.4,0.3-0.5l20.9-21.2
						c0.3-0.3,0.7-0.4,1.1-0.4C782.8,183.4,783.2,183.6,783.5,183.9L783.5,183.9z M779.5,206.7v20.2c0,1.1-1,2-2.1,2H749
						c-1.1,0-2-0.9-2-2v-38.1c0-1.1,0.9-1.9,2-1.9h20.8c1.1,0,2,0.9,2,2s-0.9,2-2,2H751v34h24.5v-18.2c0-1.1,0.9-2,2-2
						S779.5,205.6,779.5,206.7L779.5,206.7z M764.2,208.5l-2.4,1l1-2.5l19.7-19.9l1.5,1.5L764.2,208.5L764.2,208.5z"/>
				</g>
			</g>
		</g>
	</g>
</g>
</svg>
