<svg id="Layer_1" data-name="Layer 1" xmlns="http://www.w3.org/2000/svg" width="150" height="184" viewBox="0 0 150 184"><title>positions</title><path d="M147.52,151.31c-4.21-8.2-31-15.47-46.66-19.29-10-2.45-7.07-42.27-7.07-42.27H56.12s3,39.82-7.07,42.27C33.41,135.84,6.6,143.11,2.39,151.31-1.19,158.31.31,184,.31,184H149.59S151.09,158.31,147.52,151.31Z" fill="#f9bb90"/><path d="M43.29,56.67c-5.24.9-9.88,5.31-6.89,14.63,2.27,7.07-.94,14.64,9.48,14.64Z" fill="#f9bb90"/><path d="M107,56.67c5.24.9,9.88,5.31,6.89,14.63-2.27,7.07.94,14.64-9.48,14.64Z" fill="#f9bb90"/><path d="M105.83,57.66c0-.75,0-1.51,0-2.27,0-20.77-12.37-32.87-27.74-32.87A28.16,28.16,0,0,0,75,22.7a27.9,27.9,0,0,0-3.19-.18C56.39,22.52,44,34.62,44,55.39c0,.76,0,1.52.06,2.27-.65,13.81-2.6,35.43,3.63,43.88s16,17.4,20.57,17.4H81.62c4.62,0,14.43-9.06,20.57-17.4S106.48,71.47,105.83,57.66Z" fill="#ffcaa6"/><path d="M107.89,34.65c-2.64-21.34-15.7-24.31-27.49-24-6.59-.16-14.58,3-31.65-9.35-5-3.65-8.54,27.74-8.08,38.11.31,7.14,2.49,29.32,2.89,26.92C45.2,56.47,51,34.37,53.72,35.41A56.3,56.3,0,0,0,75,39.24a51.45,51.45,0,0,0,20.52-3.51c2.69-1,9.24,20.74,10.88,30.58C106.75,68.71,108.77,41.75,107.89,34.65Z" fill="#fca922"/><path d="M147.52,151.31c-4.21-8.2-31-15.47-46.66-19.29l-13,7.25-13,3-13-3-13-7.25C33.41,135.84,6.6,143.11,2.39,151.31-1.19,158.31.31,184,.31,184H149.59S151.09,158.31,147.52,151.31Z" fill="#b5afa2"/><path d="M147.52,151.31c-4.21-8.2-31-15.47-46.66-19.29h0c0,.17,0,.34,0,.51,0,9.93-11.6,18-25.91,18s-25.9-8.06-25.9-18c0-.17,0-.34,0-.51h0C33.41,135.84,6.6,143.11,2.39,151.31-1.19,158.31.31,184,.31,184H149.59S151.09,158.31,147.52,151.31Z" fill="#28b2d8"/><path d="M75,152.9c15.59,0,28.27-9.09,28.33-20.28l-2.42-.6a5.08,5.08,0,0,1-2.7-1.87,10.62,10.62,0,0,1,.28,2.39c0,8.61-10.54,15.61-23.49,15.61s-23.48-7-23.48-15.61a10.46,10.46,0,0,1,.27-2.38A5,5,0,0,1,49.05,132l-2.42.6C46.68,143.81,59.37,152.9,75,152.9Z" fill="#1975ba"/><polygon points="74.95 142.25 87.91 158.27 100.86 132.02 95.33 123.62 74.95 142.25" fill="#fffffa"/><polygon points="74.95 142.25 62 158.27 49.05 132.02 54.58 123.62 74.95 142.25" fill="#fffffa"/><path d="M147.52,151.31a9.88,9.88,0,0,0-2.15-2.64,19.26,19.26,0,0,0-2-1.55c-.49-.35-1-.69-1.56-1-1-.64-2.19-1.27-3.42-1.89l-.92-.45c-10.35-5-26.07-9.14-36.66-11.73h0l-5.53-8.4a56.89,56.89,0,0,1-1.33-8h0c0-.35-.07-.71-.11-1.06a2.29,2.29,0,0,0,0-.25c0-.27-.05-.54-.07-.82,0-.1,0-.2,0-.3l-.06-.8a2.64,2.64,0,0,1,0-.28l-.06-.89h0a77.4,77.4,0,0,0,8.55-9.71c2.57-3.48,3.75-9.21,4.2-15.71,8-1,5.38-8,7.49-14.53,2.91-9.06-1.4-13.48-6.46-14.55.54-7.8,1-18.1.47-22.1-2.64-21.34-15.7-24.31-27.49-24-1.68,0-3.46.13-5.45.21V184h74.64s.33-5.64.32-12.36h0c0-5.91-.31-12.65-1.32-17.11A14.94,14.94,0,0,0,147.52,151.31Z" opacity="0.15"/><path d="M0,151.6V184H32.4A32.5,32.5,0,0,1,0,151.6Z" fill="#fff"/><path d="M117.6,184H150V151.6A32.5,32.5,0,0,1,117.6,184Z" fill="#fff"/></svg>