<svg xmlns="http://www.w3.org/2000/svg" xmlns:xlink="http://www.w3.org/1999/xlink" width="300" height="393.16" viewBox="0 0 300 393.16"><defs><linearGradient id="linear-gradient" x1="151.2" y1="104.85" x2="151.2" y2="137.15" gradientUnits="userSpaceOnUse"><stop offset="0" stop-color="#ffb07b"/><stop offset="0.15" stop-color="#ffb989"/><stop offset="0.41" stop-color="#ffc69b"/><stop offset="0.69" stop-color="#ffcea5"/><stop offset="1" stop-color="#ffd0a9"/></linearGradient><linearGradient id="linear-gradient-2" x1="151.2" y1="102.76" x2="151.2" y2="112.12" gradientUnits="userSpaceOnUse"><stop offset="0" stop-color="#ffb072"/><stop offset="0.25" stop-color="#ffb87f"/><stop offset="0.6" stop-color="#ffbf89"/><stop offset="1" stop-color="#ffc18d"/></linearGradient><linearGradient id="linear-gradient-3" x1="123.24" y1="73.77" x2="114.1" y2="73.77" gradientUnits="userSpaceOnUse"><stop offset="0" stop-color="#ff8f78"/><stop offset="0.07" stop-color="#ff957b"/><stop offset="0.42" stop-color="#ffae89"/><stop offset="0.74" stop-color="#ffbe91"/><stop offset="1" stop-color="#ffc394"/></linearGradient><linearGradient id="linear-gradient-4" x1="177.45" y1="73.77" x2="188.68" y2="73.77" xlink:href="#linear-gradient-3"/><linearGradient id="linear-gradient-5" x1="151.2" y1="32.75" x2="151.2" y2="106.57" xlink:href="#linear-gradient"/><linearGradient id="linear-gradient-6" x1="151.2" y1="110.1" x2="151.2" y2="77.54" gradientUnits="userSpaceOnUse"><stop offset="0" stop-color="#62361e"/><stop offset="1" stop-color="#855321"/></linearGradient><linearGradient id="linear-gradient-7" x1="140.98" y1="80.45" x2="154.05" y2="73.8" xlink:href="#linear-gradient-3"/><linearGradient id="linear-gradient-8" x1="150.36" y1="51.42" x2="150.36" y2="5.52" xlink:href="#linear-gradient-6"/><linearGradient id="linear-gradient-9" x1="100.16" y1="197.77" x2="44.67" y2="135.62" xlink:href="#linear-gradient"/><linearGradient id="linear-gradient-10" x1="73.44" y1="205.2" x2="73.44" y2="219.8" xlink:href="#linear-gradient-2"/><linearGradient id="linear-gradient-11" x1="-171.11" y1="197.77" x2="-226.6" y2="135.62" gradientTransform="matrix(-1, 0, 0, 1, 28.74, 0)" xlink:href="#linear-gradient"/><linearGradient id="linear-gradient-12" x1="226.54" y1="205.2" x2="226.54" y2="219.94" xlink:href="#linear-gradient-2"/><linearGradient id="linear-gradient-13" x1="78.65" y1="216.97" x2="23.16" y2="154.82" xlink:href="#linear-gradient"/><linearGradient id="linear-gradient-14" x1="75.14" y1="220.11" x2="19.65" y2="157.97" xlink:href="#linear-gradient"/><linearGradient id="linear-gradient-15" x1="72.08" y1="222.84" x2="16.58" y2="160.7" xlink:href="#linear-gradient"/><linearGradient id="linear-gradient-16" x1="86.85" y1="209.65" x2="31.36" y2="147.5" xlink:href="#linear-gradient"/><linearGradient id="linear-gradient-17" x1="82.79" y1="200.2" x2="110.09" y2="140.34" gradientUnits="userSpaceOnUse"><stop offset="0" stop-color="#9ac6ea"/><stop offset="1" stop-color="#6397e3"/></linearGradient><linearGradient id="linear-gradient-18" x1="-192.61" y1="216.97" x2="-248.1" y2="154.82" gradientTransform="matrix(-1, 0, 0, 1, 28.74, 0)" xlink:href="#linear-gradient"/><linearGradient id="linear-gradient-19" x1="-196.13" y1="220.11" x2="-251.62" y2="157.97" gradientTransform="matrix(-1, 0, 0, 1, 28.74, 0)" xlink:href="#linear-gradient"/><linearGradient id="linear-gradient-20" x1="-199.19" y1="222.84" x2="-254.68" y2="160.7" gradientTransform="matrix(-1, 0, 0, 1, 28.74, 0)" xlink:href="#linear-gradient"/><linearGradient id="linear-gradient-21" x1="-184.41" y1="209.65" x2="-239.9" y2="147.5" gradientTransform="matrix(-1, 0, 0, 1, 28.74, 0)" xlink:href="#linear-gradient"/><linearGradient id="linear-gradient-22" x1="-188.48" y1="200.2" x2="-161.17" y2="140.34" gradientTransform="matrix(-1, 0, 0, 1, 28.74, 0)" xlink:href="#linear-gradient-17"/><linearGradient id="linear-gradient-23" x1="218.5" y1="201.16" x2="188.74" y2="138.85" xlink:href="#linear-gradient-17"/><linearGradient id="linear-gradient-24" x1="150" y1="127.34" x2="150" y2="235.55" xlink:href="#linear-gradient-17"/><clipPath id="clip-path"><path d="M224.79,199.68c-14.27-14.83-19-51.2-21.72-64l-36.78-10.31a52.65,52.65,0,0,0-32.81,0L96.93,135.72c-2.67,12.76-7.45,49.13-21.72,64l12.86,12.38c6.91-7.18,12.66-17.39,17.29-27.91L116.12,246h67.76l10.76-61.83c4.63,10.52,10.38,20.73,17.29,27.91Z" fill="none"/></clipPath><linearGradient id="linear-gradient-25" x1="15.07" y1="171.56" x2="146.49" y2="171.56" gradientUnits="userSpaceOnUse"><stop offset="0" stop-color="#9ac6ea"/><stop offset="1" stop-color="#7eaee6"/></linearGradient><linearGradient id="linear-gradient-26" x1="34.57" y1="170.47" x2="168.91" y2="170.47" xlink:href="#linear-gradient-25"/><linearGradient id="linear-gradient-27" x1="54.07" y1="171.02" x2="185.49" y2="171.02" xlink:href="#linear-gradient-25"/><linearGradient id="linear-gradient-28" x1="73.57" y1="170.47" x2="206.85" y2="170.47" xlink:href="#linear-gradient-25"/><linearGradient id="linear-gradient-29" x1="93.08" y1="170.37" x2="226.5" y2="170.37" xlink:href="#linear-gradient-25"/><linearGradient id="linear-gradient-30" x1="112.58" y1="169.46" x2="244" y2="169.46" xlink:href="#linear-gradient-25"/><linearGradient id="linear-gradient-31" x1="132.08" y1="170.47" x2="263.9" y2="170.47" xlink:href="#linear-gradient-25"/><linearGradient id="linear-gradient-32" x1="151.58" y1="171.46" x2="283" y2="171.46" xlink:href="#linear-gradient-25"/><linearGradient id="linear-gradient-33" x1="-220.52" y1="170.47" x2="-85.8" y2="170.47" gradientTransform="matrix(-1, 0, 0, 1, 65.79, 0)" xlink:href="#linear-gradient-25"/><linearGradient id="linear-gradient-34" x1="-197.71" y1="169.46" x2="-66.29" y2="169.46" gradientTransform="matrix(-1, 0, 0, 1, 65.79, 0)" xlink:href="#linear-gradient-25"/><linearGradient id="linear-gradient-35" x1="-178.21" y1="171.42" x2="-46.79" y2="171.42" gradientTransform="matrix(-1, 0, 0, 1, 65.79, 0)" xlink:href="#linear-gradient-25"/><linearGradient id="linear-gradient-36" x1="-158.71" y1="170.47" x2="-25.2" y2="170.47" gradientTransform="matrix(-1, 0, 0, 1, 65.79, 0)" xlink:href="#linear-gradient-25"/><linearGradient id="linear-gradient-37" x1="-142.32" y1="170.47" x2="-7.79" y2="170.47" gradientTransform="matrix(-1, 0, 0, 1, 65.79, 0)" xlink:href="#linear-gradient-25"/><linearGradient id="linear-gradient-38" x1="-119.71" y1="170.47" x2="11.71" y2="170.47" gradientTransform="matrix(-1, 0, 0, 1, 65.79, 0)" xlink:href="#linear-gradient-25"/><linearGradient id="linear-gradient-39" x1="-103.13" y1="170.47" x2="31.22" y2="170.47" gradientTransform="matrix(-1, 0, 0, 1, 65.79, 0)" xlink:href="#linear-gradient-25"/><linearGradient id="linear-gradient-40" x1="-80.7" y1="170.47" x2="53.01" y2="170.47" gradientTransform="matrix(-1, 0, 0, 1, 65.79, 0)" xlink:href="#linear-gradient-25"/><linearGradient id="linear-gradient-41" x1="85.1" y1="196.09" x2="85.1" y2="209.83" xlink:href="#linear-gradient-17"/><linearGradient id="linear-gradient-42" x1="214.62" y1="196.08" x2="214.62" y2="209.5" xlink:href="#linear-gradient-17"/><linearGradient id="linear-gradient-43" x1="160.86" y1="181.44" x2="184.81" y2="181.44" xlink:href="#linear-gradient-17"/><linearGradient id="linear-gradient-44" x1="160.04" y1="124.28" x2="160.04" y2="140.62" xlink:href="#linear-gradient-17"/><linearGradient id="linear-gradient-45" x1="140.57" y1="124.28" x2="140.57" y2="140.62" xlink:href="#linear-gradient-17"/><linearGradient id="linear-gradient-46" x1="153.36" y1="236.4" x2="153.36" y2="319.9" gradientUnits="userSpaceOnUse"><stop offset="0" stop-color="#c37e25"/><stop offset="1" stop-color="#a26b25"/></linearGradient><linearGradient id="linear-gradient-47" x1="150" y1="124.15" x2="150" y2="140.59" xlink:href="#linear-gradient-17"/><linearGradient id="linear-gradient-48" x1="150" y1="140.56" x2="150" y2="157.01" xlink:href="#linear-gradient-17"/><linearGradient id="linear-gradient-49" x1="150" y1="156.97" x2="150" y2="173.42" xlink:href="#linear-gradient-17"/><linearGradient id="linear-gradient-50" x1="150.59" y1="251.67" x2="150.59" y2="245.53" xlink:href="#linear-gradient-46"/><linearGradient id="linear-gradient-51" x1="150.59" y1="249" x2="150.59" y2="243.26" gradientUnits="userSpaceOnUse"><stop offset="0" stop-color="#bbbcbe"/><stop offset="1" stop-color="#a2a5a8"/></linearGradient><linearGradient id="linear-gradient-52" x1="150" y1="176.05" x2="150" y2="240.66" gradientUnits="userSpaceOnUse"><stop offset="0" stop-color="#dbddde"/><stop offset="1" stop-color="#c3c6c8"/></linearGradient><linearGradient id="linear-gradient-53" x1="150" y1="203.18" x2="150" y2="221.21" xlink:href="#linear-gradient-51"/><linearGradient id="linear-gradient-54" x1="121.18" y1="299.39" x2="121.18" y2="321.89" xlink:href="#linear-gradient-46"/><linearGradient id="linear-gradient-55" x1="-144" y1="299.39" x2="-144" y2="321.89" gradientTransform="matrix(-1, 0, 0, 1, 41.54, 0)" xlink:href="#linear-gradient-46"/><linearGradient id="linear-gradient-56" x1="129.14" y1="201.02" x2="129.14" y2="176.67" xlink:href="#linear-gradient-46"/><linearGradient id="linear-gradient-57" x1="-136.05" y1="201.02" x2="-136.05" y2="176.67" gradientTransform="matrix(-1, 0, 0, 1, 41.54, 0)" xlink:href="#linear-gradient-46"/><linearGradient id="linear-gradient-58" x1="136.12" y1="56.39" x2="139.63" y2="56.39" gradientUnits="userSpaceOnUse"><stop offset="0" stop-color="#6d4121"/><stop offset="1" stop-color="#855321"/></linearGradient><linearGradient id="linear-gradient-59" x1="162.88" y1="53.68" x2="166.8" y2="53.68" xlink:href="#linear-gradient-58"/><linearGradient id="linear-gradient-60" x1="166.86" y1="54.06" x2="170.79" y2="54.06" xlink:href="#linear-gradient-58"/><linearGradient id="linear-gradient-61" x1="133.7" y1="56.39" x2="137.21" y2="56.39" xlink:href="#linear-gradient-58"/><linearGradient id="linear-gradient-62" x1="113" y1="24.02" x2="127.56" y2="24.02" xlink:href="#linear-gradient-58"/><linearGradient id="linear-gradient-63" x1="123.45" y1="17.44" x2="131.41" y2="17.44" xlink:href="#linear-gradient-58"/><linearGradient id="linear-gradient-64" x1="133.41" y1="20.23" x2="136.5" y2="20.23" xlink:href="#linear-gradient-58"/><linearGradient id="linear-gradient-65" x1="134.87" y1="95.92" x2="146.58" y2="95.92" xlink:href="#linear-gradient-58"/><linearGradient id="linear-gradient-66" x1="165.26" y1="94.46" x2="176.26" y2="94.46" xlink:href="#linear-gradient-58"/><linearGradient id="linear-gradient-67" x1="156.85" y1="95.84" x2="166.49" y2="95.84" xlink:href="#linear-gradient-58"/><linearGradient id="linear-gradient-68" x1="126.3" y1="94.45" x2="137.11" y2="94.45" xlink:href="#linear-gradient-58"/></defs><title>position-3</title><g style="isolation:isolate"><g id="Layer_1" data-name="Layer 1"><rect x="140.57" y="102.68" width="21.26" height="26.06" fill="url(#linear-gradient)"/><path d="M161.83,102.68v9a27.87,27.87,0,0,1-7.46,1h-2.14a27.24,27.24,0,0,1-11.66-2.59v-7.4Z" opacity="0.45" fill="url(#linear-gradient-2)" style="mix-blend-mode:multiply"/><path d="M118.68,81.15h0a6.08,6.08,0,0,1-6.07-6.06V72.45a6.08,6.08,0,0,1,6.07-6.06h0a6.08,6.08,0,0,1,6.06,6.06v2.64A6.08,6.08,0,0,1,118.68,81.15Z" fill="url(#linear-gradient-3)"/><path d="M122.13,76.92a.8.8,0,0,1-.76-.58,7.55,7.55,0,0,0-5.07-5.09.79.79,0,1,1,.43-1.51,9.13,9.13,0,0,1,6.16,6.17.79.79,0,0,1-.54,1Z" fill="#ad7552"/><path d="M116.07,74.87a.78.78,0,0,1-.59-1.3,5.28,5.28,0,0,1,4.38-1.75.78.78,0,0,1,.72.85.79.79,0,0,1-.86.71,3.69,3.69,0,0,0-3.06,1.23A.8.8,0,0,1,116.07,74.87Z" fill="#ad7552"/><path d="M183.72,81.15h0a6.08,6.08,0,0,1-6.07-6.06V72.45a6.08,6.08,0,0,1,6.07-6.06h0a6.08,6.08,0,0,1,6.06,6.06v2.64A6.08,6.08,0,0,1,183.72,81.15Z" fill="url(#linear-gradient-4)"/><path d="M180.49,76.92a.78.78,0,0,1-.22,0,.79.79,0,0,1-.54-1,9.11,9.11,0,0,1,6.16-6.17.79.79,0,1,1,.43,1.51,7.56,7.56,0,0,0-5.08,5.09A.78.78,0,0,1,180.49,76.92Z" fill="#ad7552"/><path d="M186.55,74.87a.79.79,0,0,1-.59-.26,3.72,3.72,0,0,0-3.07-1.23.78.78,0,1,1-.14-1.56,5.29,5.29,0,0,1,4.39,1.75.78.78,0,0,1-.07,1.11A.8.8,0,0,1,186.55,74.87Z" fill="#ad7552"/><path d="M180.6,45.46V82.59a28.3,28.3,0,0,1-28.3,28.3h-2.2a28.31,28.31,0,0,1-28.31-28.3V45.46A13.37,13.37,0,0,1,135.16,32.1h32.08A13.36,13.36,0,0,1,180.6,45.46Z" fill="url(#linear-gradient-5)"/><path d="M180.6,81.15v1.44a28.27,28.27,0,0,1-13.41,24.07c-.63.4-1.27.76-1.93,1.1a27.83,27.83,0,0,1-7.09,2.52c-.43.1-.88.18-1.32.25a28.41,28.41,0,0,1-4.55.37h-2.21a29,29,0,0,1-3.51-.22c-.48-.06-1-.13-1.43-.22a28,28,0,0,1-8-2.72c-.71-.36-1.4-.76-2.07-1.18a0,0,0,0,0,0,0,28.29,28.29,0,0,1-13.24-24V81.15Z" fill="url(#linear-gradient-6)"/><path d="M135.6,73.69c-3.49,0-6.34-3.66-6.34-8.16a.79.79,0,0,1,1.58,0c0,3.63,2.14,6.59,4.76,6.59s4.77-3,4.77-6.59a.79.79,0,0,1,1.58,0C142,70,139.1,73.69,135.6,73.69Z" fill="#ad7552"/><path d="M167,73.69c-3.5,0-6.34-3.66-6.34-8.16a.79.79,0,1,1,1.57,0c0,3.63,2.14,6.59,4.77,6.59s4.77-3,4.77-6.59a.79.79,0,1,1,1.58,0C173.36,70,170.51,73.69,167,73.69Z" fill="#ad7552"/><path d="M132.56,53.53h9.59a0,0,0,0,1,0,0v2a3.68,3.68,0,0,1-3.68,3.68h-9.59a0,0,0,0,1,0,0v-2A3.68,3.68,0,0,1,132.56,53.53Z" fill="#6d4121"/><path d="M160.54,51h9.59a3.68,3.68,0,0,1,3.68,3.68v2a0,0,0,0,1,0,0h-9.59a3.68,3.68,0,0,1-3.68-3.68V51A0,0,0,0,1,160.54,51Z" transform="translate(328.46 123.44) rotate(-174.55)" fill="#6d4121"/><path d="M152.44,62.39c-2.19,0-4.73,10.16-5.2,14.81-2.63-.94-5.9-.66-6.68,2-.82,2.84,1.36,4.85,3.22,5.95A12.83,12.83,0,0,0,149.6,87c1.7.07,3.69,0,5.07-1.39,1.86-1.82,2.27-6.48,2-10.13C156.34,71.39,154.53,62.39,152.44,62.39Z" fill="url(#linear-gradient-7)"/><path d="M125.25,36.17v25c0,3.89-2.44,7.07-5.41,7.07V47.36A14.24,14.24,0,0,1,125.25,36.17Z" fill="#a6918a"/><path d="M182.67,47.36V68.22c-3,0-5.4-3.18-5.4-7.07v-25A14.24,14.24,0,0,1,182.67,47.36Z" fill="#a6918a"/><path d="M182.67,43.08v8.75a6.82,6.82,0,0,1-5.4-5.48,6.23,6.23,0,0,1-.12-1.3c0-.15,0-1.41,0-3a8.84,8.84,0,0,0-8.66-8.93H134a8.64,8.64,0,0,0-2.6.43,8.48,8.48,0,0,0-1,.39,8.75,8.75,0,0,0-2.86,2.18,6.71,6.71,0,0,0-.65.84A8.93,8.93,0,0,0,125.35,42c0,1.64,0,2.89,0,3a6.23,6.23,0,0,1-.13,1.3,6.82,6.82,0,0,1-5.4,5.48V43.4a25.83,25.83,0,0,1-9.77-19.92A23.12,23.12,0,0,1,113,12.55c.27-.48.54-1,.83-1.42a25.66,25.66,0,0,1,10.66-9.66c.4-.17.8-.34,1.2-.48a14.37,14.37,0,0,1,5.63-1c-.94,3,.86,5.37,4.25,7.36.3.18.61.35.93.52,11.2,5.88,36.37,7.94,43.08,9.32a13.83,13.83,0,0,1,11,12.05A13.68,13.68,0,0,1,182.67,43.08Z" fill="url(#linear-gradient-8)"/><path d="M118.63,137.66s-4-.7-8-1.24c-7.52-1-10-1.17-10.47,1.22-.67,3.26-1.45,6.57-2.21,9.77l-.46,2C93.53,166,87.93,184.83,76.13,199c-5.84,7-16.41,10.58-24,4.33-8.06-6.66-10.06-20.56-10.9-31.91-.13-1.83-.19-3.33-.24-4.43l-.12-4.17H27.34l-.06,4.34c0,1.22,0,2.88.06,5,.3,9.44,1.35,21.66,6.86,32.58a38,38,0,0,0,4.42,6.94,31.72,31.72,0,0,0,6.73,6.25,29.38,29.38,0,0,0,16.77,5.29c10.5,0,20.47-5.56,27.05-12.83a91,91,0,0,0,13.36-20.23,202.34,202.34,0,0,0,10.4-24.87,239.18,239.18,0,0,0,6.93-23.18l1-4.07Z" fill="url(#linear-gradient-9)"/><path d="M78.36,218.88a35.21,35.21,0,0,1-3.72,1.77l-6.13-15.58Z" opacity="0.42" fill="url(#linear-gradient-10)" style="mix-blend-mode:multiply"/><path d="M181.37,137.66s4-.7,8-1.24c7.52-1,10-1.17,10.47,1.22.67,3.26,1.45,6.57,2.21,9.77l.46,2c3.93,16.59,9.53,35.47,21.33,49.68,5.84,7,16.41,10.58,24,4.33,8.06-6.66,10.06-20.56,10.9-31.91.13-1.83.19-3.33.24-4.43l.12-4.17h13.56l.06,4.34c0,1.22,0,2.88-.06,5-.3,9.44-1.35,21.66-6.86,32.58a38,38,0,0,1-4.42,6.94,31.72,31.72,0,0,1-6.73,6.25,29.38,29.38,0,0,1-16.77,5.29c-10.5,0-20.47-5.56-27-12.83a91,91,0,0,1-13.36-20.23,202.34,202.34,0,0,1-10.4-24.87,239.18,239.18,0,0,1-6.93-23.18l-1-4.07Z" fill="url(#linear-gradient-11)"/><path d="M231.49,205.07l-5.76,15.73a26.12,26.12,0,0,1-4.14-1.92Z" opacity="0.42" fill="url(#linear-gradient-12)" style="mix-blend-mode:multiply"/><path d="M151.2,96.49a31,31,0,0,1-7.79-1,1.05,1.05,0,1,1,.52-2,28.82,28.82,0,0,0,14.53,0,1.05,1.05,0,0,1,.53,2,31.28,31.28,0,0,1-7.58,1Z" fill="#d79a6e"/><path d="M31.77,165.68a3.69,3.69,0,0,1-2.43-.91L9.14,147.1A3.69,3.69,0,0,1,14,141.54l20.21,17.67a3.69,3.69,0,0,1-2.44,6.47Z" fill="url(#linear-gradient-13)"/><path d="M30.76,164.63a3.44,3.44,0,0,1-1.22-.21l-24.6-8.59a3.7,3.7,0,0,1,2.44-7l24.6,8.6a3.69,3.69,0,0,1-1.22,7.18Z" fill="url(#linear-gradient-14)"/><path d="M31.77,165.68H3.69a3.7,3.7,0,0,1,0-7.39H31.77a3.7,3.7,0,1,1,0,7.39Z" fill="url(#linear-gradient-15)"/><path d="M35.47,142.77h0A4.08,4.08,0,0,0,38,146.48a6.15,6.15,0,1,1-4.87,0A3.82,3.82,0,0,0,35.47,143v-.28A4,4,0,0,0,30,139a14.17,14.17,0,1,0,11,0A4,4,0,0,0,35.47,142.77Z" fill="url(#linear-gradient-16)"/><path d="M88.07,212.06,75.21,199.68c14.27-14.83,19.05-51.2,21.72-64l22.73,3.64C119.23,141.43,108.84,190.48,88.07,212.06Z" fill="url(#linear-gradient-17)"/><path d="M268.23,165.68a3.69,3.69,0,0,0,2.43-.91l20.2-17.67a3.69,3.69,0,1,0-4.86-5.56l-20.21,17.67a3.69,3.69,0,0,0,2.44,6.47Z" fill="url(#linear-gradient-18)"/><path d="M269.24,164.63a3.44,3.44,0,0,0,1.22-.21l24.6-8.59a3.7,3.7,0,0,0-2.44-7l-24.6,8.6a3.69,3.69,0,0,0,1.22,7.18Z" fill="url(#linear-gradient-19)"/><path d="M268.23,165.68h28.08a3.7,3.7,0,0,0,0-7.39H268.23a3.7,3.7,0,1,0,0,7.39Z" fill="url(#linear-gradient-20)"/><path d="M264.53,142.77h0a4.08,4.08,0,0,1-2.48,3.71,6.15,6.15,0,1,0,4.87,0,3.82,3.82,0,0,1-2.39-3.49v-.28A4,4,0,0,1,270,139a14.17,14.17,0,1,1-11,0A4,4,0,0,1,264.53,142.77Z" fill="url(#linear-gradient-21)"/><path d="M211.93,212.06l12.86-12.38c-14.27-14.83-19-51.2-21.72-64l-22.73,3.64C180.77,141.43,191.16,190.48,211.93,212.06Z" fill="url(#linear-gradient-22)"/><path d="M211.93,212.06l12.86-12.38c-14.27-14.83-19-51.2-21.72-64l-22.73,3.64C180.77,141.43,191.16,190.48,211.93,212.06Z" fill="url(#linear-gradient-23)"/><path d="M96.93,135.72l36.55-10.29a52.65,52.65,0,0,1,32.81,0l36.78,10.31L183.88,246H116.12Z" fill="url(#linear-gradient-24)"/><g opacity="0.45"><g clip-path="url(#clip-path)"><g opacity="0.42" style="mix-blend-mode:multiply"><polygon points="19.96 249.34 15.07 245.16 144.16 93.79 146.49 95.77 19.96 249.34" fill="url(#linear-gradient-25)"/><polygon points="36.9 247.15 34.57 245.16 163.66 93.79 168.91 98.27 36.9 247.15" fill="url(#linear-gradient-26)"/><polygon points="61.34 248.25 54.07 245.16 183.16 93.79 185.49 95.77 61.34 248.25" fill="url(#linear-gradient-27)"/><polygon points="75.9 247.15 73.57 245.16 202.66 93.79 206.85 97.36 75.9 247.15" fill="url(#linear-gradient-28)"/><polygon points="97.97 249.34 93.08 245.16 222.17 93.79 226.5 91.39 97.97 249.34" fill="url(#linear-gradient-29)"/><polygon points="114.91 247.15 112.58 245.16 239.32 91.78 244 95.77 114.91 247.15" fill="url(#linear-gradient-30)"/><polygon points="134.41 247.15 132.08 245.16 261.17 93.79 263.9 99.57 134.41 247.15" fill="url(#linear-gradient-31)"/><polygon points="156.23 249.13 151.58 245.16 280.67 93.79 283 95.77 156.23 249.13" fill="url(#linear-gradient-32)"/><polygon points="280.67 247.15 286.3 242.34 153.91 93.79 151.58 95.77 280.67 247.15" fill="url(#linear-gradient-33)"/><polygon points="261.17 247.15 263.5 245.16 136.76 91.78 132.08 95.77 261.17 247.15" fill="url(#linear-gradient-34)"/><polygon points="239.43 249.05 244 245.16 114.91 93.79 112.58 95.77 239.43 249.05" fill="url(#linear-gradient-35)"/><polygon points="222.17 247.15 224.5 245.16 95.41 93.79 90.98 97.56 222.17 247.15" fill="url(#linear-gradient-36)"/><polygon points="202.66 247.15 208.11 242.5 75.9 93.79 73.57 95.77 202.66 247.15" fill="url(#linear-gradient-37)"/><polygon points="183.16 247.15 185.49 245.16 60.2 93.79 54.07 95.77 183.16 247.15" fill="url(#linear-gradient-38)"/><polygon points="163.66 247.15 168.91 243.66 36.9 93.79 34.57 95.77 163.66 247.15" fill="url(#linear-gradient-39)"/><polygon points="144.16 247.15 146.49 245.16 17.4 93.79 12.78 97.73 144.16 247.15" fill="url(#linear-gradient-40)"/></g></g></g><polygon points="78.41 195.78 91.78 207.79 89.18 211.03 78.41 195.78" opacity="0.35" fill="url(#linear-gradient-41)"/><polygon points="221.59 195.78 207.65 207.06 210.71 210.67 221.59 195.78" opacity="0.35" fill="url(#linear-gradient-42)"/><polygon points="92.35 212.4 78.52 221.03 68.51 205.07 77.38 194.55 92.35 212.4" fill="#aed1ee"/><path d="M184.81,170.67c0,11.89-5.36,21.53-12,21.53s-12-9.64-12-21.53Z" opacity="0.35" fill="url(#linear-gradient-43)" style="mix-blend-mode:multiply"/><path d="M184.81,168.57c0,11.89-5.36,21.53-12,21.53s-12-9.64-12-21.53Z" fill="#aed1ee"/><g opacity="0.35" style="mix-blend-mode:multiply"><polygon points="171.82 130.79 156.01 138.87 148.26 123 168.26 120.43 171.82 130.79" fill="url(#linear-gradient-44)"/><polygon points="129.4 130.32 144.81 138.87 151.74 123.13 132.81 119.82 129.4 130.32" fill="url(#linear-gradient-45)"/></g><polygon points="169.66 130.32 156.01 135.72 150 122.8 169.32 115.71 169.66 130.32" fill="#aed1ee"/><polygon points="131.15 129.79 144.81 135.72 150 122.8 130.68 115.71 131.15 129.79" fill="#aed1ee"/><polygon points="207.65 212.4 221.48 221.03 231.49 205.07 222.62 194.55 207.65 212.4" fill="#aed1ee"/><path d="M230.21,322.57H169.12V298.94h61.09c5.15,0,15-8.58,15-20.3a20.33,20.33,0,0,0-20.3-20.3H81.76a20.3,20.3,0,1,0,0,40.6h55.85v23.63H81.76a43.93,43.93,0,0,1,0-87.86H225a44,44,0,0,1,43.93,43.93,46,46,0,0,1-11.75,30.52C249.58,317.68,239.76,322.57,230.21,322.57Z" fill="url(#linear-gradient-46)"/><path d="M225.08,306.77h-2.63V305.2h2.63Zm-6.3,0h-2.63V305.2h2.63Zm-6.3,0h-2.63V305.2h2.63Zm-6.31,0h-2.62V305.2h2.62Zm-6.3,0h-2.62V305.2h2.62Zm-6.3,0H191V305.2h2.62Zm-6.3,0h-2.63V305.2h2.63Zm-6.3,0h-2.63V305.2H181Zm-6.3,0H172V305.2h2.63Zm-6.31,0h-2.62V305.2h2.62Zm-6.3,0h-2.62V305.2h2.62Zm-6.3,0h-2.63V305.2h2.63Zm-6.3,0h-2.63V305.2h2.63Zm-6.3,0h-2.63V305.2h2.63Zm-6.31,0h-2.62V305.2h2.62Zm-6.3,0h-2.62V305.2h2.62Zm-6.3,0h-2.62V305.2h2.62Zm-6.3,0h-2.63V305.2H118Zm-6.3,0H109V305.2h2.63Zm-6.3,0h-2.63V305.2h2.63Zm-6.31,0H96.42V305.2H99Zm-6.3,0H90.12V305.2h2.62Zm-6.3,0H83.81V305.2h2.63Zm-6.34,0a26.65,26.65,0,0,1-2.69-.29l.24-1.56a24.16,24.16,0,0,0,2.53.28Zm147,0-.12-1.57a23.63,23.63,0,0,0,2.53-.32l.27,1.55A23.93,23.93,0,0,1,227.14,306.69ZM73.72,305.58a26.62,26.62,0,0,1-2.54-.92l.61-1.45a25.44,25.44,0,0,0,2.4.87Zm159.77-.15-.49-1.5a25.16,25.16,0,0,0,2.37-.91l.64,1.43A25.74,25.74,0,0,1,233.49,305.43ZM67.81,303c-.77-.46-1.53-1-2.25-1.5l.94-1.27a25.26,25.26,0,0,0,2.12,1.42Zm171.54-.27-.83-1.33c.72-.46,1.42-.94,2.09-1.46l1,1.25C240.86,301.68,240.12,302.2,239.35,302.68ZM62.69,299a26.46,26.46,0,0,1-1.83-2l1.21-1a25.4,25.4,0,0,0,1.72,1.87Zm181.71-.36-1.13-1.11a23.4,23.4,0,0,0,1.69-1.9l1.23,1A26.36,26.36,0,0,1,244.4,298.63ZM58.64,293.94a24.77,24.77,0,0,1-1.31-2.36l1.41-.7A24.3,24.3,0,0,0,60,293.11Zm189.71-.44-1.35-.81c.43-.72.83-1.48,1.19-2.24l1.43.67C249.24,291.93,248.81,292.73,248.35,293.5ZM55.9,288.08q-.42-1.29-.72-2.61l1.54-.34c.18.83.41,1.65.67,2.46Zm195.08-.5-1.5-.46a23.3,23.3,0,0,0,.62-2.46l1.55.3A25.12,25.12,0,0,1,251,287.58ZM54.64,281.73c-.06-.68-.08-1.36-.08-2,0-.22,0-.45,0-.67l1.57,0c0,.21,0,.42,0,.63,0,.64,0,1.28.08,1.92Zm197.48-.52-1.57-.09c0-.47,0-.95,0-1.43s0-.74,0-1.11l1.58-.07c0,.39,0,.78,0,1.18S252.15,280.71,252.12,281.21ZM56.48,275.52l-1.56-.26a25.83,25.83,0,0,1,.58-2.64L57,273Q56.69,274.26,56.48,275.52ZM250.16,275a24.12,24.12,0,0,0-.59-2.48l1.51-.44a23.94,23.94,0,0,1,.63,2.63Zm-192-5.37L56.75,269c.35-.82.76-1.63,1.19-2.42l1.38.76A24.24,24.24,0,0,0,58.2,269.67Zm190.13-.44c-.35-.77-.74-1.53-1.16-2.27l1.36-.79c.45.78.87,1.59,1.24,2.41ZM61.26,264.39,60,263.45c.54-.72,1.13-1.42,1.73-2.08l1.16,1.07C62.32,263.06,61.77,263.72,61.26,264.39ZM245.17,264a25.22,25.22,0,0,0-1.67-1.92l1.14-1.09c.62.65,1.22,1.34,1.77,2ZM65.48,260l-1-1.22a26.48,26.48,0,0,1,2.17-1.61l.87,1.31A25.1,25.1,0,0,0,65.48,260Zm175.39-.3a24.45,24.45,0,0,0-2.07-1.48l.85-1.33c.75.49,1.49,1,2.2,1.57Zm-170.26-3-.68-1.42c.81-.39,1.65-.74,2.49-1.05l.54,1.48C72.17,256,71.38,256.33,70.61,256.7Zm165.06-.21a25.2,25.2,0,0,0-2.36-.94l.51-1.49c.85.29,1.69.63,2.51,1ZM76.38,254.73l-.33-1.54a27,27,0,0,1,2.67-.43l.17,1.57A23.82,23.82,0,0,0,76.38,254.73Zm153.48-.1a23.15,23.15,0,0,0-2.52-.35l.15-1.57c.89.08,1.79.21,2.67.37Zm-6.12-.45h-2.62V252.6h2.62Zm-6.3,0h-2.62V252.6h2.62Zm-6.3,0h-2.63V252.6h2.63Zm-6.3,0h-2.63V252.6h2.63Zm-6.3,0h-2.63V252.6h2.63Zm-6.31,0h-2.62V252.6h2.62Zm-6.3,0h-2.62V252.6h2.62Zm-6.3,0H177V252.6h2.62Zm-6.3,0H170.7V252.6h2.63Zm-6.3,0H164.4V252.6H167Zm-6.3,0H158.1V252.6h2.63Zm-6.31,0H151.8V252.6h2.62Zm-6.3,0H145.5V252.6h2.62Zm-6.3,0h-2.63V252.6h2.63Zm-6.3,0h-2.63V252.6h2.63Zm-6.3,0h-2.63V252.6h2.63Zm-6.31,0h-2.62V252.6h2.62Zm-6.3,0H114V252.6h2.62Zm-6.3,0h-2.62V252.6h2.62Zm-6.3,0h-2.63V252.6H104Zm-6.3,0H95.08V252.6h2.63Zm-6.3,0H88.78V252.6h2.63Zm-6.31,0H82.48V252.6H85.1Z" fill="#6d4121"/><rect x="151" y="234.71" width="2.63" height="23.63" fill="#6d4121"/><rect x="148.16" y="257.03" width="1.58" height="1.31" fill="#6d4121"/><path d="M149.74,253.61h-1.58v-2.45h1.58Zm0-5.87h-1.58V245.3h1.58Zm0-5.86h-1.58v-2.44h1.58Z" fill="#6d4121"/><rect x="148.16" y="234.71" width="1.58" height="1.31" fill="#6d4121"/><path d="M153.36,309a10,10,0,0,0-10-10h-6.62v41.68h16.59Z" fill="#6d4121"/><path d="M153.36,340.66H136.77a15,15,0,0,0,14.95,14.95h1.64Z" fill="#8c6034"/><path d="M153.36,309v1.22A11.19,11.19,0,0,1,142.17,299h1.22A10,10,0,0,1,153.36,309Z" fill="#8c6034"/><path d="M152.5,303h.86a0,0,0,0,1,0,0V356.4a0,0,0,0,1,0,0h-.86a.78.78,0,0,1-.78-.78V303.79A.78.78,0,0,1,152.5,303Z"/><path d="M144.34,324.79h-7.57a.79.79,0,1,1,0-1.58h7.57a.79.79,0,1,1,0,1.58Z"/><path d="M144.34,328.85h-7.57a.79.79,0,0,1,0-1.58h7.57a.79.79,0,1,1,0,1.58Z"/><path d="M144.34,332.91h-7.57a.79.79,0,1,1,0-1.58h7.57a.79.79,0,1,1,0,1.58Z"/><path d="M153.36,309a10,10,0,0,1,10-10H170v41.68H153.36Z" fill="#6d4121"/><path d="M153.36,340.66H170A15,15,0,0,1,155,355.61h-1.64Z" fill="#8c6034"/><path d="M153.36,309v1.22A11.19,11.19,0,0,0,164.55,299h-1.22A10,10,0,0,0,153.36,309Z" fill="#8c6034"/><path d="M154.14,303H155a0,0,0,0,1,0,0V356.4a0,0,0,0,1,0,0h-.86a.78.78,0,0,1-.78-.78V303.79A.78.78,0,0,1,154.14,303Z" transform="translate(308.36 659.41) rotate(180)"/><path d="M170,324.79h-7.56a.79.79,0,0,1,0-1.58H170a.79.79,0,1,1,0,1.58Z"/><path d="M170,328.85h-7.56a.79.79,0,0,1,0-1.58H170a.79.79,0,0,1,0,1.58Z"/><path d="M170,332.91h-7.56a.79.79,0,0,1,0-1.58H170a.79.79,0,1,1,0,1.58Z"/><circle cx="150" cy="139.3" r="2.07" fill="url(#linear-gradient-47)"/><circle cx="150" cy="155.71" r="2.07" fill="url(#linear-gradient-48)"/><circle cx="150" cy="172.12" r="2.07" fill="url(#linear-gradient-49)"/><rect x="90.04" y="245.13" width="121.09" height="7.55" rx="2.83" opacity="0.45" fill="url(#linear-gradient-50)" style="mix-blend-mode:multiply"/><rect x="92.82" y="242.89" width="115.53" height="7.04" rx="2.25" fill="url(#linear-gradient-51)"/><path d="M202,246.31H98a1.57,1.57,0,0,1-1.58-1.57l-15.8-68.57a1.8,1.8,0,0,1,2-1.57H217.41a1.8,1.8,0,0,1,2,1.57l-15.8,68.57A1.57,1.57,0,0,1,202,246.31Z" fill="url(#linear-gradient-52)"/><path d="M154.2,204.42c.15-.46,1.13-.57,1.43-.57a1,1,0,0,1,1,1c0,.27-.76,2.31-1.18,3.52h2.12c.42,0,.87.19.87.68,0,.64-.42,1.66-1.1,1.66h-2.68l-1.29,3.67h1.86c.56,0,.6.53.6,1s-.41,1.33-1.1,1.33h-2.3l-1.29,3.85c-.19.5-.57.65-1.21.65s-1.28-.31-1.28-.87a27.83,27.83,0,0,1,1.17-3.63H146.6l-1.55,4c-.19.42-1,.46-1.4.46a1,1,0,0,1-1-1,32.81,32.81,0,0,1,1.25-3.51h-1.59a.82.82,0,0,1-.79-.76c0-.64.57-1.59,1.29-1.59h2l1.51-3.63h-2.12c-.49,0-.68-.3-.68-.79s.3-1.55,1-1.55h2.61l1.55-3.9c.19-.56,1-.64,1.36-.64a1.08,1.08,0,0,1,1.1,1l-1.36,3.52h2.91ZM152,210.77h-2.95l-1.51,3.59h3.14Z" fill="url(#linear-gradient-53)"/><polygon points="123.35 298.94 120.13 298.94 119.02 322.61 121.18 322.61 123.35 298.94" opacity="0.45" fill="url(#linear-gradient-54)" style="mix-blend-mode:multiply"/><polygon points="183.38 298.94 186.59 298.94 187.71 322.61 185.54 322.61 183.38 298.94" opacity="0.45" fill="url(#linear-gradient-55)" style="mix-blend-mode:multiply"/><path d="M137.72,298l-14.17-.43a1.06,1.06,0,0,0-1.08,1l-2.92,25a1,1,0,0,0,1.1,1.17l15.1-.77a1.05,1.05,0,0,0,1.1-1l1.88-23.89A1.06,1.06,0,0,0,137.72,298Z" fill="url(#linear-gradient-56)"/><path d="M169,298l14.16-.43a1.06,1.06,0,0,1,1.08,1l2.92,25a1,1,0,0,1-1.1,1.17L171,324a1.06,1.06,0,0,1-1.1-1L168,299.13A1.07,1.07,0,0,1,169,298Z" fill="url(#linear-gradient-57)"/><g opacity="0.46" style="mix-blend-mode:screen"><path d="M139.63,53.53a12,12,0,0,1-2.15,5.71h-1.36a11,11,0,0,0,1.79-3.09,10.88,10.88,0,0,0,.63-2.62Z" fill="url(#linear-gradient-58)"/></g><g opacity="0.46" style="mix-blend-mode:screen"><path d="M166.8,56.73l-1.52-.14a11.94,11.94,0,0,1-1.7-3.06,12.65,12.65,0,0,1-.7-2.9l1.11.11a10.77,10.77,0,0,0,.6,2.41A11.21,11.21,0,0,0,166.8,56.73Z" fill="url(#linear-gradient-59)"/></g><g opacity="0.46" style="mix-blend-mode:screen"><path d="M170.79,57.12,169.27,57a11.78,11.78,0,0,1-2.41-6l1.1.1a10.5,10.5,0,0,0,.6,2.41A11.06,11.06,0,0,0,170.79,57.12Z" fill="url(#linear-gradient-60)"/></g><g opacity="0.46" style="mix-blend-mode:screen"><path d="M137.21,53.53a11.51,11.51,0,0,1-.71,3,12.37,12.37,0,0,1-1.44,2.71H133.7a11,11,0,0,0,1.79-3.09,10.88,10.88,0,0,0,.63-2.62Z" fill="url(#linear-gradient-61)"/></g><path d="M229.15,386.79c0,3.52-35.44,6.37-79.15,6.37s-79.15-2.85-79.15-6.37,35.44-6.37,79.15-6.37S229.15,383.27,229.15,386.79Z" fill="#d1d3d4" opacity="0"/><path d="M227.91,386.79c0,3.43-34.88,6.21-77.91,6.21s-77.91-2.78-77.91-6.21S107,380.58,150,380.58,227.91,383.36,227.91,386.79Z" fill="#d0d2d3" opacity="0.03"/><path d="M226.67,386.79c0,3.34-34.33,6-76.67,6s-76.67-2.71-76.67-6,34.33-6.06,76.67-6.06S226.67,383.45,226.67,386.79Z" fill="#d0d2d3" opacity="0.06"/><path d="M225.42,386.79c0,3.25-33.76,5.89-75.42,5.89S74.58,390,74.58,386.79s33.76-5.9,75.42-5.9S225.42,383.53,225.42,386.79Z" fill="#cfd1d2" opacity="0.1"/><path d="M224.18,386.79c0,3.17-33.21,5.73-74.18,5.73S75.82,390,75.82,386.79,109,381.05,150,381.05,224.18,383.62,224.18,386.79Z" fill="#ced0d1" opacity="0.13"/><path d="M222.94,386.79c0,3.08-32.65,5.57-72.94,5.57s-72.94-2.49-72.94-5.57,32.65-5.58,72.94-5.58S222.94,383.71,222.94,386.79Z" fill="#ced0d1" opacity="0.16"/><path d="M221.7,386.79c0,3-32.1,5.42-71.7,5.42s-71.7-2.43-71.7-5.42,32.1-5.42,71.7-5.42S221.7,383.8,221.7,386.79Z" fill="#cdcfd0" opacity="0.19"/><path d="M220.46,386.79c0,2.9-31.55,5.26-70.46,5.26s-70.46-2.36-70.46-5.26,31.55-5.26,70.46-5.26S220.46,383.88,220.46,386.79Z" fill="#cccecf" opacity="0.23"/><path d="M219.22,386.79c0,2.81-31,5.1-69.22,5.1s-69.22-2.29-69.22-5.1,31-5.1,69.22-5.1S219.22,384,219.22,386.79Z" fill="#cccecf" opacity="0.26"/><path d="M218,386.79c0,2.73-30.44,4.94-68,4.94s-68-2.21-68-4.94,30.44-4.94,68-4.94S218,384.06,218,386.79Z" fill="#cbcdce" opacity="0.29"/><path d="M216.74,386.79c0,2.64-29.88,4.78-66.74,4.78s-66.74-2.14-66.74-4.78S113.14,382,150,382,216.74,384.15,216.74,386.79Z" fill="#caccce" opacity="0.32"/><path d="M215.5,386.79c0,2.55-29.33,4.62-65.5,4.62s-65.5-2.07-65.5-4.62,29.33-4.62,65.5-4.62S215.5,384.24,215.5,386.79Z" fill="#cacccd" opacity="0.35"/><path d="M214.26,386.79c0,2.46-28.77,4.46-64.26,4.46s-64.26-2-64.26-4.46,28.77-4.47,64.26-4.47S214.26,384.32,214.26,386.79Z" fill="#c9cbcc" opacity="0.39"/><path d="M213,386.79c0,2.38-28.22,4.3-63,4.3s-63-1.92-63-4.3,28.22-4.31,63-4.31S213,384.41,213,386.79Z" fill="#c8cacc" opacity="0.42"/><path d="M211.77,386.79c0,2.29-27.65,4.14-61.77,4.14s-61.77-1.85-61.77-4.14,27.65-4.15,61.77-4.15S211.77,384.5,211.77,386.79Z" fill="#c8cacb" opacity="0.45"/><ellipse cx="150" cy="386.79" rx="60.53" ry="3.99" fill="#c7c9ca" opacity="0.48"/><ellipse cx="150" cy="386.79" rx="59.29" ry="3.83" fill="#c6c8ca" opacity="0.52"/><ellipse cx="150" cy="386.79" rx="58.05" ry="3.67" fill="#c5c7c9" opacity="0.55"/><ellipse cx="150" cy="386.79" rx="56.81" ry="3.51" fill="#c5c7c8" opacity="0.58"/><ellipse cx="150" cy="386.79" rx="55.57" ry="3.35" fill="#c4c6c8" opacity="0.61"/><ellipse cx="150" cy="386.79" rx="54.33" ry="3.19" fill="#c3c5c7" opacity="0.65"/><ellipse cx="150" cy="386.79" rx="53.09" ry="3.03" fill="#c3c5c6" opacity="0.68"/><ellipse cx="150" cy="386.79" rx="51.85" ry="2.87" fill="#c2c4c6" opacity="0.71"/><ellipse cx="150" cy="386.79" rx="50.61" ry="2.72" fill="#c1c3c5" opacity="0.74"/><ellipse cx="150" cy="386.79" rx="49.37" ry="2.56" fill="#c1c3c5" opacity="0.77"/><ellipse cx="150" cy="386.79" rx="48.12" ry="2.4" fill="#c0c2c4" opacity="0.81"/><ellipse cx="150" cy="386.79" rx="46.88" ry="2.24" fill="#bfc1c3" opacity="0.84"/><ellipse cx="150" cy="386.79" rx="45.64" ry="2.08" fill="#bfc1c3" opacity="0.87"/><ellipse cx="150" cy="386.79" rx="44.4" ry="1.92" fill="#bec0c2" opacity="0.9"/><ellipse cx="150" cy="386.79" rx="43.16" ry="1.76" fill="#bdbfc1" opacity="0.94"/><ellipse cx="150" cy="386.79" rx="41.92" ry="1.6" fill="#bdbfc1" opacity="0.97"/><ellipse cx="150" cy="386.79" rx="40.68" ry="1.44" fill="#bcbec0"/><g opacity="0.3" style="mix-blend-mode:multiply"><path d="M127.56,36.08a6.71,6.71,0,0,0-.65.84,41.68,41.68,0,0,1-7.08-7.85A42,42,0,0,1,113,12.55c.27-.48.54-1,.83-1.42a40.92,40.92,0,0,0,6.87,17.34A40.37,40.37,0,0,0,127.56,36.08Z" fill="url(#linear-gradient-62)"/></g><g opacity="0.3" style="mix-blend-mode:multiply"><path d="M131.41,33.51a8.48,8.48,0,0,0-1,.39,41.7,41.7,0,0,1-5.93-32.43c.4-.17.8-.34,1.2-.48a40.68,40.68,0,0,0,5.72,32.52Z" fill="url(#linear-gradient-63)"/></g><g opacity="0.3" style="mix-blend-mode:multiply"><path d="M134.51,22.84a42.31,42.31,0,0,0,1.73,10.24h-1.1a43.71,43.71,0,0,1,.43-25.71c.3.18.61.35.93.52A43,43,0,0,0,134.51,22.84Z" fill="url(#linear-gradient-64)"/></g><g opacity="0.3" style="mix-blend-mode:multiply"><path d="M146.58,110.68c-.48-.06-1-.13-1.43-.22a58.88,58.88,0,0,1-10.28-29.31h1a57.78,57.78,0,0,0,10.66,29.53Z" fill="url(#linear-gradient-65)"/></g><g opacity="0.3" style="mix-blend-mode:multiply"><path d="M176.26,81.15a66.12,66.12,0,0,1-9.07,25.51c-.63.4-1.27.76-1.93,1.1a65.36,65.36,0,0,0,9.94-26.61Z" fill="url(#linear-gradient-66)"/></g><g opacity="0.3" style="mix-blend-mode:multiply"><path d="M166.49,81.15a71.51,71.51,0,0,1-2.18,13.39,72.82,72.82,0,0,1-6.14,15.74c-.43.1-.88.18-1.32.25a71.18,71.18,0,0,0,8.58-29.38Z" fill="url(#linear-gradient-67)"/></g><g opacity="0.3" style="mix-blend-mode:multiply"><path d="M137.11,107.74c-.71-.36-1.4-.76-2.07-1.18a0,0,0,0,0,0,0,55.2,55.2,0,0,1-8.73-25.4h1.06a54,54,0,0,0,9.75,26.59Z" fill="url(#linear-gradient-68)"/></g></g></g></svg>