<svg id="Layer_1" data-name="Layer 1" xmlns="http://www.w3.org/2000/svg" width="119" height="162" viewBox="0 0 119 162"><title>positions</title><path d="M28.88,74.51A52.87,52.87,0,0,1,25,54.72a4.06,4.06,0,0,0-2.37.08c-3.18,1.16-4.1,6.46-2.07,11.84,1.3,3.45,3.51,6.09,5.76,7.24A5.2,5.2,0,0,0,28.88,74.51Z" fill="#f9bb90"/><path d="M98.06,66.64C100.1,61.26,99.17,56,96,54.8a4.05,4.05,0,0,0-2.37-.08,52.87,52.87,0,0,1-3.89,19.79C92.72,74.65,96.25,71.42,98.06,66.64Z" fill="#f9bb90"/><path d="M115.77,125.64c-5.43-5.93-31.33-2.17-40-13-1.58-2-3.13-8.31-4.41-15.15a20.7,20.7,0,0,1-11.77,4.09v0l-.33,0-.34,0v0a20.66,20.66,0,0,1-11.66-4c-1.28,6.83-2.82,13.15-4.39,15.11a17,17,0,0,1-6.27,4.61c-11.2,5.13-29.3,3.51-33.74,8.36C.62,128.09,0,133.64,0,138.72V162H118.63V138.72C118.61,133.64,118,128.09,115.77,125.64Z" fill="#f9bb90"/><path d="M28.88,74.51A54.46,54.46,0,0,0,44.27,95.25a36.55,36.55,0,0,0,3,2.31,20.66,20.66,0,0,0,11.66,4v0l.34,0,.33,0v0a20.7,20.7,0,0,0,11.77-4.09,36.4,36.4,0,0,0,2.9-2.23A54.43,54.43,0,0,0,89.73,74.51a52.87,52.87,0,0,0,3.89-19.79A71.3,71.3,0,0,0,91.75,38.1c-4.48-19.81-18.7-27.76-32-28H59C45.7,10.3,31.46,18.22,26.93,38A71.76,71.76,0,0,0,25,54.72,52.87,52.87,0,0,0,28.88,74.51Z" fill="#ffcaa6"/><path d="M83.79,118s-14,33.38-24.47,33.38S34.84,118,34.84,118c-4.69,1.77-10.29,2.59-15.54,3.28V162h80V121.29C94.08,120.61,88.48,119.79,83.79,118Z" fill="#e8453e"/><path d="M85.48,5.83S16.19-19.83,6.88,41a54.24,54.24,0,0,0,0,17.65h0a42.23,42.23,0,0,0,2.61,9c2.92,12,6.23,33.59-1.91,50.73-14.79,31.17,25.58,40.9,25.58,40.9s-7.28-6.54,2.54-21.65a46.27,46.27,0,0,0,6.21-15.14h0L43.8,111c1.24-2.84,2.44-8,3.46-13.46a36.55,36.55,0,0,1-3-2.31S38.52,90.8,34.4,80.4l-1.75-4.72c-4.92-13-6.13-29.76,3.11-46,0,0,17.21,22.84,48.44,22.43,0,0,5.57,29.68-9.94,43.17,0,0,20.07,2.18,32.79-27.59C107.05,67.7,120.62,23.38,85.48,5.83Z" fill="#853d38"/><path d="M99.33,121.3h0a81.31,81.31,0,0,1-13.63-2.63l-.19,0c-.58-.19-1.16-.39-1.71-.6a18.36,18.36,0,0,1-8-5.34c-1.58-2-3.13-8.31-4.41-15.15a36.4,36.4,0,0,0,2.9-2.23s20.07,2.18,32.79-27.59c0,0,13.57-44.32-21.57-61.87A102,102,0,0,0,59.32.62V162h59.31V138.72c0-5.08-.62-10.63-2.86-13.08C113.31,123,106.67,122.26,99.33,121.3Z" opacity="0.15"/><path d="M0,136.26V162H25.74A25.81,25.81,0,0,1,0,136.26Z" fill="#fff"/><path d="M93.26,162H119V136.26A25.81,25.81,0,0,1,93.26,162Z" fill="#fff"/></svg>