<svg xmlns="http://www.w3.org/2000/svg" xmlns:xlink="http://www.w3.org/1999/xlink" width="300" height="391.83" viewBox="0 0 300 391.83"><defs><linearGradient id="linear-gradient" x1="151.2" y1="103.52" x2="151.2" y2="135.82" gradientUnits="userSpaceOnUse"><stop offset="0" stop-color="#ffb07b"/><stop offset="0.15" stop-color="#ffb989"/><stop offset="0.41" stop-color="#ffc69b"/><stop offset="0.69" stop-color="#ffcea5"/><stop offset="1" stop-color="#ffd0a9"/></linearGradient><linearGradient id="linear-gradient-2" x1="100.16" y1="196.44" x2="44.67" y2="134.3" xlink:href="#linear-gradient"/><linearGradient id="linear-gradient-3" x1="73.44" y1="203.87" x2="73.44" y2="218.47" gradientUnits="userSpaceOnUse"><stop offset="0" stop-color="#ffb072"/><stop offset="0.25" stop-color="#ffb87f"/><stop offset="0.6" stop-color="#ffbf89"/><stop offset="1" stop-color="#ffc18d"/></linearGradient><linearGradient id="linear-gradient-4" x1="78.65" y1="215.64" x2="23.16" y2="153.5" xlink:href="#linear-gradient"/><linearGradient id="linear-gradient-5" x1="75.14" y1="218.78" x2="19.65" y2="156.64" xlink:href="#linear-gradient"/><linearGradient id="linear-gradient-6" x1="72.08" y1="221.52" x2="16.58" y2="159.37" xlink:href="#linear-gradient"/><linearGradient id="linear-gradient-7" x1="86.85" y1="208.32" x2="31.36" y2="146.18" xlink:href="#linear-gradient"/><linearGradient id="linear-gradient-8" x1="82.79" y1="198.88" x2="110.09" y2="139.01" gradientUnits="userSpaceOnUse"><stop offset="0" stop-color="#b0c621"/><stop offset="1" stop-color="#83a200"/></linearGradient><linearGradient id="linear-gradient-9" x1="-171.11" y1="196.44" x2="-226.6" y2="134.3" gradientTransform="matrix(-1, 0, 0, 1, 28.74, 0)" xlink:href="#linear-gradient"/><linearGradient id="linear-gradient-10" x1="226.54" y1="203.87" x2="226.54" y2="218.61" xlink:href="#linear-gradient-3"/><linearGradient id="linear-gradient-11" x1="-192.61" y1="215.64" x2="-248.1" y2="153.5" gradientTransform="matrix(-1, 0, 0, 1, 28.74, 0)" xlink:href="#linear-gradient"/><linearGradient id="linear-gradient-12" x1="-196.13" y1="218.78" x2="-251.62" y2="156.64" gradientTransform="matrix(-1, 0, 0, 1, 28.74, 0)" xlink:href="#linear-gradient"/><linearGradient id="linear-gradient-13" x1="-199.19" y1="221.52" x2="-254.68" y2="159.37" gradientTransform="matrix(-1, 0, 0, 1, 28.74, 0)" xlink:href="#linear-gradient"/><linearGradient id="linear-gradient-14" x1="-184.41" y1="208.32" x2="-239.9" y2="146.18" gradientTransform="matrix(-1, 0, 0, 1, 28.74, 0)" xlink:href="#linear-gradient"/><linearGradient id="linear-gradient-15" x1="-188.48" y1="198.88" x2="-161.17" y2="139.01" gradientTransform="matrix(-1, 0, 0, 1, 28.74, 0)" xlink:href="#linear-gradient-8"/><linearGradient id="linear-gradient-16" x1="218.5" y1="199.84" x2="188.74" y2="137.52" xlink:href="#linear-gradient-8"/><linearGradient id="linear-gradient-17" x1="150" y1="126.02" x2="150" y2="234.22" xlink:href="#linear-gradient-8"/><clipPath id="clip-path"><path d="M224.79,198.35c-14.27-14.82-19-51.19-21.72-64l-36.78-10.31a52.65,52.65,0,0,0-32.81,0L96.93,134.39c-2.67,12.77-7.45,49.14-21.72,64l12.86,12.38c6.91-7.17,12.66-17.39,17.29-27.9l10.76,61.83h67.76l10.76-61.83c4.63,10.51,10.38,20.73,17.29,27.9Z" fill="none"/></clipPath><linearGradient id="linear-gradient-18" x1="15.07" y1="170.24" x2="146.49" y2="170.24" gradientUnits="userSpaceOnUse"><stop offset="0" stop-color="#9ac6ea"/><stop offset="1" stop-color="#7eaee6"/></linearGradient><linearGradient id="linear-gradient-19" x1="34.57" y1="169.14" x2="168.91" y2="169.14" xlink:href="#linear-gradient-18"/><linearGradient id="linear-gradient-20" x1="54.07" y1="169.69" x2="185.49" y2="169.69" xlink:href="#linear-gradient-18"/><linearGradient id="linear-gradient-21" x1="73.57" y1="169.14" x2="206.85" y2="169.14" xlink:href="#linear-gradient-18"/><linearGradient id="linear-gradient-22" x1="93.08" y1="169.04" x2="226.5" y2="169.04" xlink:href="#linear-gradient-18"/><linearGradient id="linear-gradient-23" x1="112.58" y1="168.14" x2="244" y2="168.14" xlink:href="#linear-gradient-18"/><linearGradient id="linear-gradient-24" x1="132.08" y1="169.14" x2="263.9" y2="169.14" xlink:href="#linear-gradient-18"/><linearGradient id="linear-gradient-25" x1="151.58" y1="170.13" x2="283" y2="170.13" xlink:href="#linear-gradient-18"/><linearGradient id="linear-gradient-26" x1="-220.52" y1="169.14" x2="-85.8" y2="169.14" gradientTransform="matrix(-1, 0, 0, 1, 65.79, 0)" xlink:href="#linear-gradient-18"/><linearGradient id="linear-gradient-27" x1="-197.71" y1="168.14" x2="-66.29" y2="168.14" gradientTransform="matrix(-1, 0, 0, 1, 65.79, 0)" xlink:href="#linear-gradient-18"/><linearGradient id="linear-gradient-28" x1="-178.21" y1="170.09" x2="-46.79" y2="170.09" gradientTransform="matrix(-1, 0, 0, 1, 65.79, 0)" xlink:href="#linear-gradient-18"/><linearGradient id="linear-gradient-29" x1="-158.71" y1="169.14" x2="-25.2" y2="169.14" gradientTransform="matrix(-1, 0, 0, 1, 65.79, 0)" xlink:href="#linear-gradient-18"/><linearGradient id="linear-gradient-30" x1="-142.32" y1="169.14" x2="-7.79" y2="169.14" gradientTransform="matrix(-1, 0, 0, 1, 65.79, 0)" xlink:href="#linear-gradient-18"/><linearGradient id="linear-gradient-31" x1="-119.71" y1="169.14" x2="11.71" y2="169.14" gradientTransform="matrix(-1, 0, 0, 1, 65.79, 0)" xlink:href="#linear-gradient-18"/><linearGradient id="linear-gradient-32" x1="-103.13" y1="169.14" x2="31.22" y2="169.14" gradientTransform="matrix(-1, 0, 0, 1, 65.79, 0)" xlink:href="#linear-gradient-18"/><linearGradient id="linear-gradient-33" x1="-80.7" y1="169.14" x2="53.01" y2="169.14" gradientTransform="matrix(-1, 0, 0, 1, 65.79, 0)" xlink:href="#linear-gradient-18"/><linearGradient id="linear-gradient-34" x1="85.1" y1="194.77" x2="85.1" y2="208.5" xlink:href="#linear-gradient-8"/><linearGradient id="linear-gradient-35" x1="214.62" y1="194.76" x2="214.62" y2="208.17" xlink:href="#linear-gradient-8"/><linearGradient id="linear-gradient-36" x1="160.86" y1="180.11" x2="184.81" y2="180.11" xlink:href="#linear-gradient-8"/><linearGradient id="linear-gradient-37" x1="160.04" y1="122.96" x2="160.04" y2="139.3" xlink:href="#linear-gradient-8"/><linearGradient id="linear-gradient-38" x1="140.57" y1="122.96" x2="140.57" y2="139.3" xlink:href="#linear-gradient-8"/><linearGradient id="linear-gradient-39" x1="145.07" y1="59.02" x2="145.07" y2="10.53" gradientUnits="userSpaceOnUse"><stop offset="0" stop-color="#6d4121"/><stop offset="1" stop-color="#855321"/></linearGradient><linearGradient id="linear-gradient-40" x1="161.66" y1="59.02" x2="161.66" y2="10.53" xlink:href="#linear-gradient-39"/><linearGradient id="linear-gradient-41" x1="153.36" y1="235.07" x2="153.36" y2="318.58" gradientUnits="userSpaceOnUse"><stop offset="0" stop-color="#889eba"/><stop offset="1" stop-color="#648092"/></linearGradient><linearGradient id="linear-gradient-42" x1="153.36" y1="59.02" x2="153.36" y2="10.53" xlink:href="#linear-gradient-39"/><linearGradient id="linear-gradient-43" x1="152.31" y1="59.02" x2="152.31" y2="10.53" xlink:href="#linear-gradient-39"/><linearGradient id="linear-gradient-44" x1="148.95" y1="59.02" x2="148.95" y2="10.53" xlink:href="#linear-gradient-39"/><linearGradient id="linear-gradient-45" x1="150.59" y1="250.3" x2="150.59" y2="244.16" xlink:href="#linear-gradient-41"/><linearGradient id="linear-gradient-46" x1="150.59" y1="247.63" x2="150.59" y2="241.9" gradientUnits="userSpaceOnUse"><stop offset="0" stop-color="#bbbcbe"/><stop offset="1" stop-color="#a2a5a8"/></linearGradient><linearGradient id="linear-gradient-47" x1="150" y1="174.68" x2="150" y2="239.29" gradientUnits="userSpaceOnUse"><stop offset="0" stop-color="#dbddde"/><stop offset="1" stop-color="#c3c6c8"/></linearGradient><linearGradient id="linear-gradient-48" x1="150" y1="201.82" x2="150" y2="219.84" xlink:href="#linear-gradient-46"/><linearGradient id="linear-gradient-49" x1="150" y1="122.82" x2="150" y2="139.27" xlink:href="#linear-gradient-8"/><linearGradient id="linear-gradient-50" x1="150" y1="139.23" x2="150" y2="155.68" xlink:href="#linear-gradient-8"/><linearGradient id="linear-gradient-51" x1="150" y1="155.65" x2="150" y2="172.09" xlink:href="#linear-gradient-8"/><linearGradient id="linear-gradient-52" x1="123.98" y1="72.58" x2="115.08" y2="72.58" gradientUnits="userSpaceOnUse"><stop offset="0" stop-color="#ff8f78"/><stop offset="0.05" stop-color="#ff937a"/><stop offset="0.41" stop-color="#ffac84"/><stop offset="0.74" stop-color="#ffbc8b"/><stop offset="1" stop-color="#ffc18d"/></linearGradient><linearGradient id="linear-gradient-53" x1="176.76" y1="72.58" x2="187.69" y2="72.58" xlink:href="#linear-gradient-52"/><linearGradient id="linear-gradient-54" x1="151.2" y1="101.44" x2="151.2" y2="110.8" xlink:href="#linear-gradient-3"/><linearGradient id="linear-gradient-55" x1="151.2" y1="32.64" x2="151.2" y2="104.51" xlink:href="#linear-gradient-3"/><linearGradient id="linear-gradient-56" x1="151.19" y1="86.61" x2="151.19" y2="63.77" gradientUnits="userSpaceOnUse"><stop offset="0" stop-color="#ff8f78"/><stop offset="0.36" stop-color="#f9a67e"/><stop offset="0.72" stop-color="#f4b683"/><stop offset="1" stop-color="#f3bb84"/></linearGradient><linearGradient id="linear-gradient-57" x1="151.19" y1="86.63" x2="151.19" y2="65.08" xlink:href="#linear-gradient-56"/><linearGradient id="linear-gradient-58" x1="135.82" y1="59.02" x2="135.82" y2="10.49" xlink:href="#linear-gradient-39"/><linearGradient id="linear-gradient-59" x1="166.63" y1="59.02" x2="166.63" y2="10.53" xlink:href="#linear-gradient-39"/><linearGradient id="linear-gradient-60" x1="150.38" y1="61.55" x2="150.38" y2="9.34" gradientUnits="userSpaceOnUse"><stop offset="0" stop-color="#5d3526"/><stop offset="1" stop-color="#855321"/></linearGradient><linearGradient id="linear-gradient-61" x1="121.18" y1="298.02" x2="121.18" y2="320.52" xlink:href="#linear-gradient-41"/><linearGradient id="linear-gradient-62" x1="-144" y1="298.02" x2="-144" y2="320.52" gradientTransform="matrix(-1, 0, 0, 1, 41.54, 0)" xlink:href="#linear-gradient-41"/><linearGradient id="linear-gradient-63" x1="129.14" y1="199.65" x2="129.14" y2="175.31" xlink:href="#linear-gradient-41"/><linearGradient id="linear-gradient-64" x1="-136.05" y1="199.65" x2="-136.05" y2="175.31" gradientTransform="matrix(-1, 0, 0, 1, 41.54, 0)" xlink:href="#linear-gradient-41"/><linearGradient id="linear-gradient-65" x1="115.81" y1="21.09" x2="129.71" y2="21.09" xlink:href="#linear-gradient-39"/><linearGradient id="linear-gradient-66" x1="126.44" y1="16.24" x2="138.36" y2="16.24" xlink:href="#linear-gradient-39"/><linearGradient id="linear-gradient-67" x1="136.17" y1="22.29" x2="150.99" y2="22.29" xlink:href="#linear-gradient-39"/><linearGradient id="linear-gradient-68" x1="136.73" y1="55.65" x2="140.15" y2="55.65" xlink:href="#linear-gradient-39"/><linearGradient id="linear-gradient-69" x1="162.74" y1="53.04" x2="166.56" y2="53.04" xlink:href="#linear-gradient-39"/><linearGradient id="linear-gradient-70" x1="166.62" y1="53.42" x2="170.45" y2="53.42" xlink:href="#linear-gradient-39"/><linearGradient id="linear-gradient-71" x1="134.38" y1="55.65" x2="137.8" y2="55.65" xlink:href="#linear-gradient-39"/></defs><title>position-4</title><g style="isolation:isolate"><g id="Layer_1" data-name="Layer 1"><rect x="140.57" y="101.36" width="21.26" height="26.06" fill="url(#linear-gradient)"/><path d="M120.84,136.71l-1,4.07A238.35,238.35,0,0,1,112.93,164a203,203,0,0,1-10.4,24.88,91.18,91.18,0,0,1-13.36,20.22,41.06,41.06,0,0,1-10.81,8.5,37.3,37.3,0,0,1-3.72,1.77,33,33,0,0,1-12.51,2.56,29.37,29.37,0,0,1-16.78-5.29,31.93,31.93,0,0,1-6.73-6.24,37.89,37.89,0,0,1-4.42-7c-5.5-10.91-6.55-23.14-6.86-32.58-.06-2.08-.06-3.74-.06-5l.06-4.35H40.91l.12,4.18c0,1.09.1,2.59.23,4.42.84,11.36,2.84,25.25,10.9,31.92,7.56,6.25,18.13,2.7,24-4.34,11.8-14.2,17.4-33.08,21.32-49.68l.47-1.95c.76-3.2,1.54-6.5,2.21-9.76.47-2.4,3-2.27,10.47-1.23,4,.55,8,1.24,8,1.25Z" fill="url(#linear-gradient-2)"/><path d="M78.36,217.56a37.3,37.3,0,0,1-3.72,1.77l-6.13-15.59Z" opacity="0.42" fill="url(#linear-gradient-3)" style="mix-blend-mode:multiply"/><path d="M31.77,164.36a3.65,3.65,0,0,1-2.43-.92L9.14,145.77A3.69,3.69,0,0,1,14,140.21l20.21,17.67a3.7,3.7,0,0,1-2.44,6.48Z" fill="url(#linear-gradient-4)"/><path d="M30.76,163.31a3.68,3.68,0,0,1-1.22-.21l-24.6-8.6a3.7,3.7,0,0,1,2.44-7l24.6,8.6a3.7,3.7,0,0,1-1.22,7.19Z" fill="url(#linear-gradient-5)"/><path d="M31.77,164.36H3.69a3.7,3.7,0,0,1,0-7.39H31.77a3.7,3.7,0,1,1,0,7.39Z" fill="url(#linear-gradient-6)"/><path d="M35.47,141.44h0A4.07,4.07,0,0,0,38,145.15a6.15,6.15,0,1,1-4.87,0,3.81,3.81,0,0,0,2.39-3.49v-.28a4,4,0,0,0-5.5-3.63,14.19,14.19,0,1,0,11,0A4,4,0,0,0,35.47,141.44Z" fill="url(#linear-gradient-7)"/><path d="M88.07,210.73,75.21,198.35c14.27-14.82,19.05-51.19,21.72-64L119.66,138C119.23,140.11,108.84,189.16,88.07,210.73Z" fill="url(#linear-gradient-8)"/><path d="M181.37,136.33s4-.69,8-1.24c7.52-1,10-1.17,10.47,1.22.67,3.27,1.45,6.57,2.21,9.77l.46,1.95c3.93,16.6,9.53,35.47,21.33,49.68,5.84,7,16.41,10.59,24,4.34,8.06-6.67,10.06-20.56,10.9-31.92.13-1.83.19-3.33.24-4.42l.12-4.18h13.56l.06,4.35c0,1.21,0,2.87-.06,5-.3,9.44-1.35,21.67-6.86,32.58a38,38,0,0,1-4.42,6.94,31.47,31.47,0,0,1-6.73,6.25,29.38,29.38,0,0,1-16.77,5.29c-10.5,0-20.47-5.55-27-12.82a91.26,91.26,0,0,1-13.36-20.23A202.37,202.37,0,0,1,187.07,164a238.35,238.35,0,0,1-6.93-23.18l-1-4.07Z" fill="url(#linear-gradient-9)"/><path d="M231.49,203.74l-5.76,15.74a26.12,26.12,0,0,1-4.14-1.92Z" opacity="0.42" fill="url(#linear-gradient-10)" style="mix-blend-mode:multiply"/><path d="M268.23,164.36a3.65,3.65,0,0,0,2.43-.92l20.2-17.67a3.69,3.69,0,1,0-4.86-5.56l-20.21,17.67a3.7,3.7,0,0,0,2.44,6.48Z" fill="url(#linear-gradient-11)"/><path d="M269.24,163.31a3.68,3.68,0,0,0,1.22-.21l24.6-8.6a3.7,3.7,0,0,0-2.44-7l-24.6,8.6a3.7,3.7,0,0,0,1.22,7.19Z" fill="url(#linear-gradient-12)"/><path d="M268.23,164.36h28.08a3.7,3.7,0,0,0,0-7.39H268.23a3.7,3.7,0,1,0,0,7.39Z" fill="url(#linear-gradient-13)"/><path d="M264.53,141.44h0a4.07,4.07,0,0,1-2.48,3.71,6.15,6.15,0,1,0,4.87,0,3.81,3.81,0,0,1-2.39-3.49v-.28a4,4,0,0,1,5.5-3.63,14.19,14.19,0,1,1-11,0A4,4,0,0,1,264.53,141.44Z" fill="url(#linear-gradient-14)"/><path d="M211.93,210.73l12.86-12.38c-14.27-14.82-19-51.19-21.72-64L180.34,138C180.77,140.11,191.16,189.16,211.93,210.73Z" fill="url(#linear-gradient-15)"/><path d="M211.93,210.73l12.86-12.38c-14.27-14.82-19-51.19-21.72-64L180.34,138C180.77,140.11,191.16,189.16,211.93,210.73Z" fill="url(#linear-gradient-16)"/><path d="M96.93,134.39l36.55-10.28a52.65,52.65,0,0,1,32.81,0l36.78,10.31L183.88,244.66H116.12Z" fill="url(#linear-gradient-17)"/><g opacity="0.45"><g clip-path="url(#clip-path)"><g opacity="0.42" style="mix-blend-mode:multiply"><polygon points="19.96 248.01 15.07 243.83 144.16 92.46 146.49 94.45 19.96 248.01" fill="url(#linear-gradient-18)"/><polygon points="36.9 245.82 34.57 243.83 163.66 92.46 168.91 96.94 36.9 245.82" fill="url(#linear-gradient-19)"/><polygon points="61.34 246.92 54.07 243.83 183.16 92.46 185.49 94.45 61.34 246.92" fill="url(#linear-gradient-20)"/><polygon points="75.9 245.82 73.57 243.83 202.66 92.46 206.85 96.03 75.9 245.82" fill="url(#linear-gradient-21)"/><polygon points="97.97 248.01 93.08 243.83 222.17 92.46 226.5 90.07 97.97 248.01" fill="url(#linear-gradient-22)"/><polygon points="114.91 245.82 112.58 243.83 239.32 90.46 244 94.45 114.91 245.82" fill="url(#linear-gradient-23)"/><polygon points="134.41 245.82 132.08 243.83 261.17 92.46 263.9 98.25 134.41 245.82" fill="url(#linear-gradient-24)"/><polygon points="156.23 247.8 151.58 243.83 280.67 92.46 283 94.45 156.23 247.8" fill="url(#linear-gradient-25)"/><polygon points="280.67 245.82 286.3 241.02 153.91 92.46 151.58 94.45 280.67 245.82" fill="url(#linear-gradient-26)"/><polygon points="261.17 245.82 263.5 243.83 136.76 90.46 132.08 94.45 261.17 245.82" fill="url(#linear-gradient-27)"/><polygon points="239.43 247.73 244 243.83 114.91 92.46 112.58 94.45 239.43 247.73" fill="url(#linear-gradient-28)"/><polygon points="222.17 245.82 224.5 243.83 95.41 92.46 90.98 96.23 222.17 245.82" fill="url(#linear-gradient-29)"/><polygon points="202.66 245.82 208.11 241.18 75.9 92.46 73.57 94.45 202.66 245.82" fill="url(#linear-gradient-30)"/><polygon points="183.16 245.82 185.49 243.83 60.2 92.46 54.07 94.45 183.16 245.82" fill="url(#linear-gradient-31)"/><polygon points="163.66 245.82 168.91 242.33 36.9 92.46 34.57 94.45 163.66 245.82" fill="url(#linear-gradient-32)"/><polygon points="144.16 245.82 146.49 243.83 17.4 92.46 12.78 96.4 144.16 245.82" fill="url(#linear-gradient-33)"/></g></g></g><polygon points="78.41 194.46 91.78 206.46 89.18 209.7 78.41 194.46" opacity="0.35" fill="url(#linear-gradient-34)"/><polygon points="221.59 194.46 207.65 205.73 210.71 209.34 221.59 194.46" opacity="0.35" fill="url(#linear-gradient-35)"/><polygon points="92.35 211.08 78.52 219.7 68.51 203.74 77.38 193.22 92.35 211.08" fill="#b5d155"/><path d="M184.81,169.35c0,11.89-5.36,21.53-12,21.53s-12-9.64-12-21.53Z" opacity="0.35" fill="url(#linear-gradient-36)" style="mix-blend-mode:multiply"/><path d="M184.81,167.25c0,11.89-5.36,21.53-12,21.53s-12-9.64-12-21.53Z" fill="#b5d155"/><g opacity="0.35" style="mix-blend-mode:multiply"><polygon points="171.82 129.47 156.01 137.54 148.26 121.67 168.26 119.1 171.82 129.47" fill="url(#linear-gradient-37)"/><polygon points="129.4 128.99 144.81 137.54 151.74 121.81 132.81 118.49 129.4 128.99" fill="url(#linear-gradient-38)"/></g><path d="M169.66,129,156,134.39l-6-12.92,17.1-6.27a2.32,2.32,0,0,1,3.11,2.29Z" fill="#b5d155"/><path d="M131.15,128.47l13.66,5.92L150,121.47l-16.09-5.9a2.32,2.32,0,0,0-3.11,2.26Z" fill="#b5d155"/><polygon points="207.65 211.08 221.48 219.7 231.49 203.74 222.62 193.22 207.65 211.08" fill="#b5d155"/><path d="M153.36,307.62a10,10,0,0,0-10-10h-6.62v41.67h16.59Z" fill="url(#linear-gradient-39)"/><path d="M153.36,339.33H136.77a15,15,0,0,0,14.95,15h1.64Z" fill="#8c6034"/><path d="M153.36,307.62v1.22a11.18,11.18,0,0,1-11.19-11.18h1.22A10,10,0,0,1,153.36,307.62Z" fill="#8c6034"/><path d="M152.5,301.69h.86a0,0,0,0,1,0,0v53.39a0,0,0,0,1,0,0h-.86a.78.78,0,0,1-.78-.78V302.46A.78.78,0,0,1,152.5,301.69Z"/><path d="M144.34,323.46h-7.57a.79.79,0,0,1,0-1.58h7.57a.79.79,0,1,1,0,1.58Z"/><path d="M144.34,327.52h-7.57a.79.79,0,0,1,0-1.58h7.57a.79.79,0,1,1,0,1.58Z"/><path d="M144.34,331.58h-7.57a.79.79,0,1,1,0-1.57h7.57a.79.79,0,1,1,0,1.57Z"/><path d="M153.36,307.62a10,10,0,0,1,10-10H170v41.67H153.36Z" fill="url(#linear-gradient-40)"/><path d="M153.36,339.33H170a15,15,0,0,1-14.95,15h-1.64Z" fill="#8c6034"/><path d="M153.36,307.62v1.22a11.18,11.18,0,0,0,11.19-11.18h-1.22A10,10,0,0,0,153.36,307.62Z" fill="#8c6034"/><path d="M154.14,301.69H155a0,0,0,0,1,0,0v53.39a0,0,0,0,1,0,0h-.86a.78.78,0,0,1-.78-.78V302.46A.78.78,0,0,1,154.14,301.69Z" transform="translate(308.36 656.76) rotate(180)"/><path d="M170,323.46h-7.56a.79.79,0,1,1,0-1.58H170a.79.79,0,0,1,0,1.58Z"/><path d="M170,327.52h-7.56a.79.79,0,1,1,0-1.58H170a.79.79,0,0,1,0,1.58Z"/><path d="M170,331.58h-7.56a.79.79,0,1,1,0-1.57H170a.79.79,0,1,1,0,1.57Z"/><path d="M230.21,321.24H170.69l-1.57-23.63h61.09c5.15,0,15-8.57,15-20.3A20.33,20.33,0,0,0,225,257H81.76a20.3,20.3,0,1,0,0,40.6h55.85L136,321.24H81.76a43.93,43.93,0,0,1,0-87.86H225a44,44,0,0,1,43.93,43.93,46,46,0,0,1-11.75,30.52C249.58,316.35,239.76,321.24,230.21,321.24Z" fill="url(#linear-gradient-41)"/><path d="M225.08,305.45h-2.63v-1.58h2.63Zm-6.3,0h-2.63v-1.58h2.63Zm-6.3,0h-2.63v-1.58h2.63Zm-6.31,0h-2.62v-1.58h2.62Zm-6.3,0h-2.62v-1.58h2.62Zm-6.3,0H191v-1.58h2.62Zm-6.3,0h-2.63v-1.58h2.63Zm-6.3,0h-2.63v-1.58H181Zm-6.3,0H172v-1.58h2.63Zm-37.82,0h-2.62v-1.58h2.62Zm-6.3,0h-2.62v-1.58h2.62Zm-6.3,0h-2.62v-1.58h2.62Zm-6.3,0h-2.63v-1.58H118Zm-6.3,0H109v-1.58h2.63Zm-6.3,0h-2.63v-1.58h2.63Zm-6.31,0H96.42v-1.58H99Zm-6.3,0H90.12v-1.58h2.62Zm-6.3,0H83.81v-1.58h2.63Zm-6.34-.05a26.65,26.65,0,0,1-2.69-.29l.24-1.55c.84.13,1.69.22,2.53.27Zm147,0L227,303.8c.85-.07,1.7-.17,2.53-.32l.27,1.55A26.52,26.52,0,0,1,227.14,305.37ZM73.72,304.26c-.85-.27-1.71-.58-2.54-.93l.61-1.45a25.44,25.44,0,0,0,2.4.87Zm159.77-.16-.49-1.49c.8-.27,1.6-.58,2.37-.92l.64,1.44C235.19,303.49,234.34,303.82,233.49,304.1ZM67.81,301.62a25.87,25.87,0,0,1-2.25-1.5l.94-1.26a25.15,25.15,0,0,0,2.12,1.41Zm171.54-.27-.83-1.33a25.2,25.2,0,0,0,2.09-1.46l1,1.25A24.37,24.37,0,0,1,239.35,301.35ZM62.69,297.66c-.64-.63-1.26-1.3-1.83-2l1.21-1c.54.64,1.12,1.27,1.72,1.87Zm181.71-.36-1.13-1.1a25.36,25.36,0,0,0,1.69-1.91l1.23,1A26.36,26.36,0,0,1,244.4,297.3ZM58.64,292.61a23.61,23.61,0,0,1-1.31-2.36l1.41-.69c.37.75.79,1.5,1.24,2.22Zm189.71-.43-1.35-.81c.43-.73.83-1.48,1.19-2.25l1.43.67C249.24,290.6,248.81,291.41,248.35,292.18ZM55.9,286.75c-.28-.85-.52-1.73-.72-2.61l1.54-.33c.18.82.41,1.65.67,2.45ZM251,286.26l-1.5-.46a23.47,23.47,0,0,0,.62-2.47l1.55.31A26.47,26.47,0,0,1,251,286.26ZM54.64,280.4c-.06-.67-.08-1.36-.08-2,0-.22,0-.44,0-.66l1.57,0c0,.2,0,.41,0,.62,0,.64,0,1.29.08,1.92Zm197.48-.51-1.57-.09c0-.48,0-1,0-1.44s0-.74,0-1.11l1.58-.07c0,.39,0,.79,0,1.18S252.15,279.38,252.12,279.89Zm-195.64-5.7-1.56-.26c.15-.88.34-1.77.58-2.64l1.52.42C56.8,272.52,56.62,273.36,56.48,274.19Zm193.68-.48a23.34,23.34,0,0,0-.59-2.47l1.51-.44a23.41,23.41,0,0,1,.63,2.63Zm-192-5.37-1.45-.62c.35-.82.76-1.64,1.19-2.43l1.38.77A25.31,25.31,0,0,0,58.2,268.34Zm190.13-.44c-.35-.77-.74-1.53-1.16-2.26l1.36-.79c.45.78.87,1.58,1.24,2.4ZM61.26,263.07,60,262.12c.54-.72,1.13-1.41,1.73-2.07l1.16,1.06C62.32,261.73,61.77,262.39,61.26,263.07Zm183.91-.38a23.57,23.57,0,0,0-1.67-1.93l1.14-1.09a26.54,26.54,0,0,1,1.77,2.05Zm-179.69-4-1-1.21a26.48,26.48,0,0,1,2.17-1.61l.87,1.31C66.82,257.62,66.13,258.13,65.48,258.66Zm175.39-.3c-.67-.52-1.36-1-2.07-1.48l.85-1.32c.75.48,1.49,1,2.2,1.57Zm-170.26-3L69.93,254c.81-.39,1.65-.75,2.49-1.06l.54,1.48C72.17,254.67,71.38,255,70.61,255.38Zm165.06-.21c-.77-.35-1.56-.67-2.36-.95l.51-1.49a25.79,25.79,0,0,1,2.51,1ZM76.38,253.4l-.33-1.54c.88-.18,1.78-.33,2.67-.43l.17,1.57C78.05,253.09,77.21,253.23,76.38,253.4Zm153.48-.09c-.82-.16-1.67-.28-2.52-.36l.15-1.57a26.8,26.8,0,0,1,2.67.38Zm-6.12-.46h-2.62v-1.57h2.62Zm-6.3,0h-2.62v-1.57h2.62Zm-6.3,0h-2.63v-1.57h2.63Zm-6.3,0h-2.63v-1.57h2.63Zm-6.3,0h-2.63v-1.57h2.63Zm-6.31,0h-2.62v-1.57h2.62Zm-6.3,0h-2.62v-1.57h2.62Zm-6.3,0H177v-1.57h2.62Zm-6.3,0H170.7v-1.57h2.63Zm-6.3,0H164.4v-1.57H167Zm-6.3,0H158.1v-1.57h2.63Zm-6.31,0H151.8v-1.57h2.62Zm-6.3,0H145.5v-1.57h2.62Zm-6.3,0h-2.63v-1.57h2.63Zm-6.3,0h-2.63v-1.57h2.63Zm-6.3,0h-2.63v-1.57h2.63Zm-6.31,0h-2.62v-1.57h2.62Zm-6.3,0H114v-1.57h2.62Zm-6.3,0h-2.62v-1.57h2.62Zm-6.3,0h-2.63v-1.57H104Zm-6.3,0H95.08v-1.57h2.63Zm-6.3,0H88.78v-1.57h2.63Zm-6.31,0H82.48v-1.57H85.1Z" fill="url(#linear-gradient-42)"/><rect x="151" y="233.38" width="2.63" height="23.63" fill="url(#linear-gradient-43)"/><rect x="148.16" y="233.38" width="1.58" height="1.31" fill="url(#linear-gradient-44)"/><rect x="90.04" y="243.76" width="121.09" height="7.55" rx="2.83" opacity="0.45" fill="url(#linear-gradient-45)" style="mix-blend-mode:multiply"/><rect x="92.82" y="241.52" width="115.53" height="7.04" rx="2.25" fill="url(#linear-gradient-46)"/><path d="M202,244.94H98a1.57,1.57,0,0,1-1.58-1.57l-15.8-68.56a1.81,1.81,0,0,1,2-1.58H217.41a1.81,1.81,0,0,1,2,1.58l-15.8,68.56A1.57,1.57,0,0,1,202,244.94Z" fill="url(#linear-gradient-47)"/><path d="M154.2,203.05c.15-.45,1.13-.57,1.43-.57a1,1,0,0,1,1,1c0,.27-.76,2.31-1.18,3.52h2.12c.42,0,.87.19.87.68,0,.64-.42,1.66-1.1,1.66h-2.68L153.4,213h1.86c.56,0,.6.53.6,1s-.41,1.32-1.1,1.32h-2.3l-1.29,3.86c-.19.49-.57.64-1.21.64s-1.28-.3-1.28-.87a27.83,27.83,0,0,1,1.17-3.63H146.6l-1.55,4c-.19.42-1,.46-1.4.46a1,1,0,0,1-1-1,31.92,31.92,0,0,1,1.25-3.52h-1.59a.82.82,0,0,1-.79-.76c0-.64.57-1.59,1.29-1.59h2l1.51-3.63h-2.12c-.49,0-.68-.3-.68-.79s.3-1.55,1-1.55h2.61l1.55-3.9c.19-.56,1-.64,1.36-.64a1.08,1.08,0,0,1,1.1,1L149.85,207h2.91ZM152,209.4h-2.95L147.58,213h3.14Z" fill="url(#linear-gradient-48)"/><circle cx="150" cy="137.98" r="2.07" fill="url(#linear-gradient-49)"/><circle cx="150" cy="154.39" r="2.07" fill="url(#linear-gradient-50)"/><circle cx="150" cy="170.8" r="2.07" fill="url(#linear-gradient-51)"/><rect x="113.64" y="65.39" width="11.81" height="14.38" rx="5.69" fill="url(#linear-gradient-52)"/><path d="M122.43,75.57a.7.7,0,0,1-.67-.51,7.43,7.43,0,0,0-5-5,.69.69,0,0,1-.48-.86.7.7,0,0,1,.87-.49,8.84,8.84,0,0,1,6,6,.71.71,0,0,1-.48.87A.68.68,0,0,1,122.43,75.57Z" fill="#d79a6e"/><path d="M116.53,73.59a.69.69,0,0,1-.46-.18.71.71,0,0,1-.07-1,5.11,5.11,0,0,1,4.22-1.68.7.7,0,0,1,.64.76.72.72,0,0,1-.76.64,3.68,3.68,0,0,0-3,1.21A.69.69,0,0,1,116.53,73.59Z" fill="#d79a6e"/><rect x="176.95" y="65.39" width="11.81" height="14.38" rx="5.69" fill="url(#linear-gradient-53)"/><path d="M180.18,75.57a.62.62,0,0,1-.19,0,.71.71,0,0,1-.49-.87,8.86,8.86,0,0,1,6-6,.71.71,0,0,1,.87.49.7.7,0,0,1-.49.86,7.43,7.43,0,0,0-5,5A.68.68,0,0,1,180.18,75.57Z" fill="#d79a6e"/><path d="M186.08,73.59a.71.71,0,0,1-.53-.24,3.65,3.65,0,0,0-3-1.21.7.7,0,0,1-.76-.64.69.69,0,0,1,.63-.76,5.1,5.1,0,0,1,4.22,1.68.7.7,0,0,1-.06,1A.71.71,0,0,1,186.08,73.59Z" fill="#d79a6e"/><path d="M161.83,101.36v9a27.87,27.87,0,0,1-7.46,1h-2.14a27.38,27.38,0,0,1-11.66-2.58v-7.4Z" opacity="0.42" fill="url(#linear-gradient-54)" style="mix-blend-mode:multiply"/><path d="M179.82,45V81.16a27.55,27.55,0,0,1-27.55,27.56h-2.14a27.56,27.56,0,0,1-27.56-27.56V45a13,13,0,0,1,13-13h31.24a13,13,0,0,1,13,13Z" fill="url(#linear-gradient-55)"/><path d="M151.2,95.17a31,31,0,0,1-7.79-1,1,1,0,1,1,.52-2,29.5,29.5,0,0,0,7.46.93,29,29,0,0,0,7.07-.93,1,1,0,1,1,.53,2,31.29,31.29,0,0,1-7.58,1Z" fill="#d79a6e"/><path d="M135.91,72.44c-3.37,0-6.12-3.54-6.12-7.88a.71.71,0,1,1,1.41,0c0,3.57,2.11,6.47,4.71,6.47s4.7-2.9,4.7-6.47a.71.71,0,1,1,1.41,0C142,68.9,139.28,72.44,135.91,72.44Z" fill="#d79a6e"/><path d="M166.48,72.44c-3.37,0-6.11-3.54-6.11-7.88a.7.7,0,1,1,1.4,0c0,3.57,2.12,6.47,4.71,6.47s4.71-2.9,4.71-6.47a.7.7,0,1,1,1.4,0C172.59,68.9,169.85,72.44,166.48,72.44Z" fill="#d79a6e"/><path d="M151.19,86.89h0a4.53,4.53,0,0,1-4.51-4.52V66.52A4.53,4.53,0,0,1,151.19,62h0a4.53,4.53,0,0,1,4.52,4.52V82.37A4.53,4.53,0,0,1,151.19,86.89Z" fill="url(#linear-gradient-56)"/><rect x="143.96" y="77.83" width="14.46" height="6.76" rx="3.26" fill="url(#linear-gradient-57)"/><path d="M142.28,52.87v1.89a3.68,3.68,0,0,1-3.68,3.68h-9.23v-1.9A3.67,3.67,0,0,1,133,52.87Z" fill="url(#linear-gradient-58)"/><path d="M173,54.74l-.18,1.88-2.35-.23L169,56.25l-2.4-.23-1.48-.14-1.48-.14a3.68,3.68,0,0,1-3.31-4l.18-1.88,2.27.22,1.08.1,2.8.27,1.07.1,2,.19A3.68,3.68,0,0,1,173,54.74Z" fill="url(#linear-gradient-59)"/><path d="M125.74,35.49V60c0,3.82-2.39,6.94-5.3,6.94V46.47A14,14,0,0,1,125.74,35.49Z" fill="#a68c75"/><path d="M182.08,46.47V66.94c-2.91,0-5.3-3.12-5.3-6.94V35.5A14,14,0,0,1,182.08,46.47Z" fill="#a68c75"/><path d="M182.08,42.27v8.58a6.78,6.78,0,0,1-5.42-6.65c0-.14,0-1.38,0-3a8.67,8.67,0,0,0-8.5-8.76H134.35a8.33,8.33,0,0,0-4.64,1.44,7.39,7.39,0,0,0-.94.73,8.82,8.82,0,0,0-2.92,6.59c0,1.61,0,2.84,0,3a6.78,6.78,0,0,1-5.42,6.65V42.58a25.34,25.34,0,0,1-9.58-19.53,23.77,23.77,0,0,1,5-14c.39-.52.79-1,1.21-1.5,3.37-3.88,7.73-6.65,12-7.37A13.42,13.42,0,0,1,131.7,0c-2.1,5,.2,9.35,4.47,12.11.38.25.78.48,1.2.7A19.62,19.62,0,0,0,143,14.76a19.15,19.15,0,0,1,31.38,2,13.42,13.42,0,0,1,7.7,25.46Z" fill="url(#linear-gradient-60)"/><polygon points="123.35 297.57 120.13 297.57 119.02 321.24 121.18 321.24 123.35 297.57" opacity="0.4" fill="url(#linear-gradient-61)" style="mix-blend-mode:multiply"/><polygon points="183.38 297.57 186.59 297.57 187.71 321.24 185.54 321.24 183.38 297.57" opacity="0.4" fill="url(#linear-gradient-62)" style="mix-blend-mode:multiply"/><path d="M137.72,296.63l-14.17-.43a1,1,0,0,0-1.08,1l-2.92,25.06a1.06,1.06,0,0,0,1.1,1.17l15.1-.78a1.05,1.05,0,0,0,1.1-1l1.88-23.89A1,1,0,0,0,137.72,296.63Z" fill="url(#linear-gradient-63)"/><path d="M169,296.63l14.16-.43a1,1,0,0,1,1.08,1l2.92,25.06a1.05,1.05,0,0,1-1.1,1.17l-15.1-.78a1.06,1.06,0,0,1-1.1-1L168,297.76A1.05,1.05,0,0,1,169,296.63Z" fill="url(#linear-gradient-64)"/><path d="M229.15,385.46c0,3.52-35.44,6.37-79.15,6.37S70.85,389,70.85,385.46s35.44-6.37,79.15-6.37S229.15,381.94,229.15,385.46Z" fill="#d1d3d4" opacity="0"/><path d="M227.91,385.46c0,3.43-34.88,6.21-77.91,6.21s-77.91-2.78-77.91-6.21S107,379.25,150,379.25,227.91,382,227.91,385.46Z" fill="#d0d2d3" opacity="0.03"/><path d="M226.67,385.46c0,3.35-34.33,6.06-76.67,6.06s-76.67-2.71-76.67-6.06,34.33-6,76.67-6S226.67,382.12,226.67,385.46Z" fill="#d0d2d3" opacity="0.06"/><path d="M225.42,385.46c0,3.26-33.76,5.9-75.42,5.9s-75.42-2.64-75.42-5.9,33.76-5.89,75.42-5.89S225.42,382.21,225.42,385.46Z" fill="#cfd1d2" opacity="0.1"/><path d="M224.18,385.46c0,3.17-33.21,5.74-74.18,5.74s-74.18-2.57-74.18-5.74S109,379.73,150,379.73,224.18,382.29,224.18,385.46Z" fill="#ced0d1" opacity="0.13"/><path d="M222.94,385.46c0,3.08-32.65,5.58-72.94,5.58s-72.94-2.5-72.94-5.58,32.65-5.57,72.94-5.57S222.94,382.38,222.94,385.46Z" fill="#ced0d1" opacity="0.16"/><path d="M221.7,385.46c0,3-32.1,5.42-71.7,5.42s-71.7-2.43-71.7-5.42S110.4,380,150,380,221.7,382.47,221.7,385.46Z" fill="#cdcfd0" opacity="0.19"/><path d="M220.46,385.46c0,2.91-31.55,5.26-70.46,5.26s-70.46-2.35-70.46-5.26,31.55-5.26,70.46-5.26S220.46,382.56,220.46,385.46Z" fill="#cccecf" opacity="0.23"/><path d="M219.22,385.46c0,2.82-31,5.1-69.22,5.1s-69.22-2.28-69.22-5.1,31-5.1,69.22-5.1S219.22,382.65,219.22,385.46Z" fill="#cccecf" opacity="0.26"/><path d="M218,385.46c0,2.73-30.44,4.94-68,4.94s-68-2.21-68-4.94,30.44-4.94,68-4.94S218,382.73,218,385.46Z" fill="#cbcdce" opacity="0.29"/><path d="M216.74,385.46c0,2.64-29.88,4.78-66.74,4.78s-66.74-2.14-66.74-4.78,29.88-4.78,66.74-4.78S216.74,382.82,216.74,385.46Z" fill="#caccce" opacity="0.32"/><path d="M215.5,385.46c0,2.56-29.33,4.63-65.5,4.63S84.5,388,84.5,385.46s29.33-4.62,65.5-4.62S215.5,382.91,215.5,385.46Z" fill="#cacccd" opacity="0.35"/><path d="M214.26,385.46c0,2.47-28.77,4.47-64.26,4.47s-64.26-2-64.26-4.47S114.51,381,150,381,214.26,383,214.26,385.46Z" fill="#c9cbcc" opacity="0.39"/><path d="M213,385.46c0,2.38-28.22,4.31-63,4.31s-63-1.93-63-4.31,28.22-4.3,63-4.3S213,383.08,213,385.46Z" fill="#c8cacc" opacity="0.42"/><path d="M211.77,385.46c0,2.29-27.65,4.15-61.77,4.15s-61.77-1.86-61.77-4.15,27.65-4.14,61.77-4.14S211.77,383.17,211.77,385.46Z" fill="#c8cacb" opacity="0.45"/><ellipse cx="150" cy="385.46" rx="60.53" ry="3.99" fill="#c7c9ca" opacity="0.48"/><ellipse cx="150" cy="385.46" rx="59.29" ry="3.83" fill="#c6c8ca" opacity="0.52"/><ellipse cx="150" cy="385.46" rx="58.05" ry="3.67" fill="#c5c7c9" opacity="0.55"/><ellipse cx="150" cy="385.46" rx="56.81" ry="3.51" fill="#c5c7c8" opacity="0.58"/><ellipse cx="150" cy="385.46" rx="55.57" ry="3.35" fill="#c4c6c8" opacity="0.61"/><ellipse cx="150" cy="385.46" rx="54.33" ry="3.19" fill="#c3c5c7" opacity="0.65"/><ellipse cx="150" cy="385.46" rx="53.09" ry="3.03" fill="#c3c5c6" opacity="0.68"/><ellipse cx="150" cy="385.46" rx="51.85" ry="2.87" fill="#c2c4c6" opacity="0.71"/><ellipse cx="150" cy="385.46" rx="50.61" ry="2.72" fill="#c1c3c5" opacity="0.74"/><ellipse cx="150" cy="385.46" rx="49.37" ry="2.56" fill="#c1c3c5" opacity="0.77"/><ellipse cx="150" cy="385.46" rx="48.12" ry="2.4" fill="#c0c2c4" opacity="0.81"/><ellipse cx="150" cy="385.46" rx="46.88" ry="2.24" fill="#bfc1c3" opacity="0.84"/><ellipse cx="150" cy="385.46" rx="45.64" ry="2.08" fill="#bfc1c3" opacity="0.87"/><ellipse cx="150" cy="385.46" rx="44.4" ry="1.92" fill="#bec0c2" opacity="0.9"/><ellipse cx="150" cy="385.46" rx="43.16" ry="1.76" fill="#bdbfc1" opacity="0.94"/><ellipse cx="150" cy="385.46" rx="41.92" ry="1.6" fill="#bdbfc1" opacity="0.97"/><ellipse cx="150" cy="385.46" rx="40.68" ry="1.44" fill="#bcbec0"/><g opacity="0.46" style="mix-blend-mode:screen"><path d="M129.71,33.9a7.39,7.39,0,0,0-.94.73,28,28,0,0,1-7.32-6.72,29.14,29.14,0,0,1-5.62-18.86c.39-.52.79-1,1.21-1.5-.42,5.28.18,12.9,5.31,19.68A26.83,26.83,0,0,0,129.71,33.9Z" fill="url(#linear-gradient-65)"/></g><g opacity="0.46" style="mix-blend-mode:screen"><path d="M138.36,32.46h-1.93a25.72,25.72,0,0,1-7.56-9.25c-4.62-9.61-1.54-19.07.18-23A12,12,0,0,1,130.36,0c-1.54,3.31-5.16,12.93-.48,22.69A24.8,24.8,0,0,0,138.36,32.46Z" fill="url(#linear-gradient-66)"/></g><g opacity="0.46" style="mix-blend-mode:screen"><path d="M151,32.46H148.6A25.2,25.2,0,0,1,142,26.91a25.81,25.81,0,0,1-5.84-14.79c.38.25.78.48,1.2.7a24.36,24.36,0,0,0,5.5,13.36A24.35,24.35,0,0,0,151,32.46Z" fill="url(#linear-gradient-67)"/></g><g opacity="0.46" style="mix-blend-mode:screen"><path d="M140.15,52.87a11.81,11.81,0,0,1-.68,2.92,12.26,12.26,0,0,1-1.41,2.65h-1.33a10.44,10.44,0,0,0,1.75-3,10.31,10.31,0,0,0,.61-2.55Z" fill="url(#linear-gradient-68)"/></g><g opacity="0.46" style="mix-blend-mode:screen"><path d="M166.56,56l-1.48-.14a11.7,11.7,0,0,1-1.66-3,11.85,11.85,0,0,1-.68-2.82l1.08.1a10.49,10.49,0,0,0,.58,2.35A11.11,11.11,0,0,0,166.56,56Z" fill="url(#linear-gradient-69)"/></g><g opacity="0.46" style="mix-blend-mode:screen"><path d="M170.45,56.39,169,56.25a11.49,11.49,0,0,1-2.34-5.81l1.07.1a9.8,9.8,0,0,0,.59,2.34A10.51,10.51,0,0,0,170.45,56.39Z" fill="url(#linear-gradient-70)"/></g><g opacity="0.46" style="mix-blend-mode:screen"><path d="M137.8,52.87a11.72,11.72,0,0,1-.69,2.92,11.84,11.84,0,0,1-1.41,2.65h-1.32a10.92,10.92,0,0,0,1.75-3,11.28,11.28,0,0,0,.61-2.55Z" fill="url(#linear-gradient-71)"/></g></g></g></svg>