<svg xmlns="http://www.w3.org/2000/svg" xmlns:xlink="http://www.w3.org/1999/xlink" width="300" height="394.23" viewBox="0 0 300 394.23"><defs><linearGradient id="linear-gradient" x1="151.2" y1="105.92" x2="151.2" y2="138.22" gradientUnits="userSpaceOnUse"><stop offset="0" stop-color="#ffb07b"/><stop offset="0.15" stop-color="#ffb989"/><stop offset="0.41" stop-color="#ffc69b"/><stop offset="0.69" stop-color="#ffcea5"/><stop offset="1" stop-color="#ffd0a9"/></linearGradient><linearGradient id="linear-gradient-2" x1="151.2" y1="103.84" x2="151.2" y2="113.19" gradientUnits="userSpaceOnUse"><stop offset="0" stop-color="#ffb072"/><stop offset="0.25" stop-color="#ffb87f"/><stop offset="0.6" stop-color="#ffbf89"/><stop offset="1" stop-color="#ffc18d"/></linearGradient><linearGradient id="linear-gradient-3" x1="123.24" y1="74.84" x2="114.1" y2="74.84" gradientUnits="userSpaceOnUse"><stop offset="0" stop-color="#ff8f78"/><stop offset="0.07" stop-color="#ff957b"/><stop offset="0.42" stop-color="#ffae89"/><stop offset="0.74" stop-color="#ffbe91"/><stop offset="1" stop-color="#ffc394"/></linearGradient><linearGradient id="linear-gradient-4" x1="177.45" y1="74.84" x2="188.68" y2="74.84" xlink:href="#linear-gradient-3"/><linearGradient id="linear-gradient-5" x1="151.2" y1="33.82" x2="151.2" y2="107.64" xlink:href="#linear-gradient"/><linearGradient id="linear-gradient-6" x1="151.2" y1="109.64" x2="151.2" y2="73.35" gradientUnits="userSpaceOnUse"><stop offset="0" stop-color="#351300"/><stop offset="1" stop-color="#7a500d"/></linearGradient><linearGradient id="linear-gradient-7" x1="134.87" y1="96.99" x2="146.58" y2="96.99" xlink:href="#linear-gradient-6"/><linearGradient id="linear-gradient-8" x1="165.26" y1="95.53" x2="176.26" y2="95.53" xlink:href="#linear-gradient-6"/><linearGradient id="linear-gradient-9" x1="156.85" y1="96.91" x2="166.49" y2="96.91" xlink:href="#linear-gradient-6"/><linearGradient id="linear-gradient-10" x1="126.3" y1="95.52" x2="137.11" y2="95.52" xlink:href="#linear-gradient-6"/><linearGradient id="linear-gradient-11" x1="128.89" y1="57.46" x2="142.15" y2="57.46" xlink:href="#linear-gradient-6"/><linearGradient id="linear-gradient-12" x1="160.63" y1="54.97" x2="173.71" y2="54.97" gradientTransform="translate(338.81 93.82) rotate(174.55)" gradientUnits="userSpaceOnUse"><stop offset="0" stop-color="#7a500d"/><stop offset="1" stop-color="#351300"/></linearGradient><linearGradient id="linear-gradient-13" x1="140.98" y1="81.52" x2="154.05" y2="74.87" xlink:href="#linear-gradient-3"/><linearGradient id="linear-gradient-14" x1="154.99" y1="32.01" x2="154.99" y2="5.5" xlink:href="#linear-gradient-6"/><linearGradient id="linear-gradient-15" x1="133.69" y1="17.37" x2="158.16" y2="17.37" xlink:href="#linear-gradient-6"/><linearGradient id="linear-gradient-16" x1="142.87" y1="18.29" x2="170.51" y2="18.29" xlink:href="#linear-gradient-6"/><linearGradient id="linear-gradient-17" x1="161.14" y1="23.07" x2="182.12" y2="23.07" xlink:href="#linear-gradient-6"/><linearGradient id="linear-gradient-18" x1="168.89" y1="27.5" x2="185.56" y2="27.5" xlink:href="#linear-gradient-6"/><linearGradient id="linear-gradient-19" x1="100.16" y1="198.84" x2="44.67" y2="136.69" xlink:href="#linear-gradient"/><linearGradient id="linear-gradient-20" x1="73.44" y1="206.27" x2="73.44" y2="220.87" xlink:href="#linear-gradient-2"/><linearGradient id="linear-gradient-21" x1="-154.29" y1="198.84" x2="-209.78" y2="136.69" gradientTransform="matrix(-1, 0, 0, 1, 45.55, 0)" xlink:href="#linear-gradient"/><linearGradient id="linear-gradient-22" x1="226.54" y1="206.27" x2="226.54" y2="221.01" xlink:href="#linear-gradient-2"/><linearGradient id="linear-gradient-23" x1="78.65" y1="218.04" x2="23.16" y2="155.9" xlink:href="#linear-gradient"/><linearGradient id="linear-gradient-24" x1="75.14" y1="221.18" x2="19.65" y2="159.04" xlink:href="#linear-gradient"/><linearGradient id="linear-gradient-25" x1="72.08" y1="223.91" x2="16.58" y2="161.77" xlink:href="#linear-gradient"/><linearGradient id="linear-gradient-26" x1="86.85" y1="210.72" x2="31.36" y2="148.58" xlink:href="#linear-gradient"/><linearGradient id="linear-gradient-27" x1="82.79" y1="201.27" x2="110.09" y2="141.41" gradientUnits="userSpaceOnUse"><stop offset="0" stop-color="#565656"/><stop offset="1" stop-color="#3a3a3a"/></linearGradient><linearGradient id="linear-gradient-28" x1="-175.79" y1="218.04" x2="-231.28" y2="155.9" gradientTransform="matrix(-1, 0, 0, 1, 45.55, 0)" xlink:href="#linear-gradient"/><linearGradient id="linear-gradient-29" x1="-179.31" y1="221.18" x2="-234.8" y2="159.04" gradientTransform="matrix(-1, 0, 0, 1, 45.55, 0)" xlink:href="#linear-gradient"/><linearGradient id="linear-gradient-30" x1="-182.37" y1="223.91" x2="-237.86" y2="161.77" gradientTransform="matrix(-1, 0, 0, 1, 45.55, 0)" xlink:href="#linear-gradient"/><linearGradient id="linear-gradient-31" x1="-167.59" y1="210.72" x2="-223.09" y2="148.58" gradientTransform="matrix(-1, 0, 0, 1, 45.55, 0)" xlink:href="#linear-gradient"/><linearGradient id="linear-gradient-32" x1="-171.66" y1="201.27" x2="-144.35" y2="141.41" gradientTransform="matrix(-1, 0, 0, 1, 45.55, 0)" gradientUnits="userSpaceOnUse"><stop offset="0" stop-color="#9ac6ea"/><stop offset="1" stop-color="#6397e3"/></linearGradient><linearGradient id="linear-gradient-33" x1="218.5" y1="202.24" x2="188.74" y2="139.92" xlink:href="#linear-gradient-27"/><linearGradient id="linear-gradient-34" x1="150" y1="128.42" x2="150" y2="236.62" xlink:href="#linear-gradient-27"/><clipPath id="clip-path"><path d="M224.79,200.75c-14.27-14.83-19-51.2-21.72-64l-36.78-10.31a52.65,52.65,0,0,0-32.81,0L96.93,136.79c-2.67,12.76-7.45,49.13-21.72,64l12.86,12.38c6.91-7.17,12.66-17.39,17.29-27.9l10.76,61.82h67.76l10.76-61.82c4.63,10.51,10.38,20.73,17.29,27.9Z" fill="none"/></clipPath><linearGradient id="linear-gradient-35" x1="15.07" y1="172.63" x2="146.49" y2="172.63" gradientUnits="userSpaceOnUse"><stop offset="0" stop-color="#9ac6ea"/><stop offset="1" stop-color="#7eaee6"/></linearGradient><linearGradient id="linear-gradient-36" x1="34.57" y1="171.54" x2="168.91" y2="171.54" xlink:href="#linear-gradient-35"/><linearGradient id="linear-gradient-37" x1="54.07" y1="172.09" x2="185.49" y2="172.09" xlink:href="#linear-gradient-35"/><linearGradient id="linear-gradient-38" x1="73.57" y1="171.54" x2="206.85" y2="171.54" xlink:href="#linear-gradient-35"/><linearGradient id="linear-gradient-39" x1="93.08" y1="171.44" x2="226.5" y2="171.44" xlink:href="#linear-gradient-35"/><linearGradient id="linear-gradient-40" x1="112.58" y1="170.54" x2="244" y2="170.54" xlink:href="#linear-gradient-35"/><linearGradient id="linear-gradient-41" x1="132.08" y1="171.54" x2="263.9" y2="171.54" xlink:href="#linear-gradient-35"/><linearGradient id="linear-gradient-42" x1="151.58" y1="172.53" x2="283" y2="172.53" xlink:href="#linear-gradient-35"/><linearGradient id="linear-gradient-43" x1="-203.7" y1="171.54" x2="-68.98" y2="171.54" gradientTransform="matrix(-1, 0, 0, 1, 82.61, 0)" xlink:href="#linear-gradient-35"/><linearGradient id="linear-gradient-44" x1="-180.89" y1="170.54" x2="-49.47" y2="170.54" gradientTransform="matrix(-1, 0, 0, 1, 82.61, 0)" xlink:href="#linear-gradient-35"/><linearGradient id="linear-gradient-45" x1="-161.39" y1="172.49" x2="-29.97" y2="172.49" gradientTransform="matrix(-1, 0, 0, 1, 82.61, 0)" xlink:href="#linear-gradient-35"/><linearGradient id="linear-gradient-46" x1="-141.89" y1="171.54" x2="-8.38" y2="171.54" gradientTransform="matrix(-1, 0, 0, 1, 82.61, 0)" xlink:href="#linear-gradient-35"/><linearGradient id="linear-gradient-47" x1="-125.5" y1="171.54" x2="9.03" y2="171.54" gradientTransform="matrix(-1, 0, 0, 1, 82.61, 0)" xlink:href="#linear-gradient-35"/><linearGradient id="linear-gradient-48" x1="-102.89" y1="171.54" x2="28.53" y2="171.54" gradientTransform="matrix(-1, 0, 0, 1, 82.61, 0)" xlink:href="#linear-gradient-35"/><linearGradient id="linear-gradient-49" x1="-86.31" y1="171.54" x2="48.04" y2="171.54" gradientTransform="matrix(-1, 0, 0, 1, 82.61, 0)" xlink:href="#linear-gradient-35"/><linearGradient id="linear-gradient-50" x1="-63.88" y1="171.54" x2="69.83" y2="171.54" gradientTransform="matrix(-1, 0, 0, 1, 82.61, 0)" xlink:href="#linear-gradient-35"/><linearGradient id="linear-gradient-51" x1="85.1" y1="197.16" x2="85.1" y2="210.9" gradientTransform="matrix(1, 0, 0, 1, 0, 0)" xlink:href="#linear-gradient-32"/><linearGradient id="linear-gradient-52" x1="214.62" y1="197.16" x2="214.62" y2="210.57" gradientTransform="matrix(1, 0, 0, 1, 0, 0)" xlink:href="#linear-gradient-32"/><linearGradient id="linear-gradient-53" x1="160.86" y1="182.51" x2="184.81" y2="182.51" gradientTransform="matrix(1, 0, 0, 1, 0, 0)" xlink:href="#linear-gradient-32"/><linearGradient id="linear-gradient-54" x1="160.04" y1="125.35" x2="160.04" y2="141.69" gradientTransform="matrix(1, 0, 0, 1, 0, 0)" xlink:href="#linear-gradient-32"/><linearGradient id="linear-gradient-55" x1="140.57" y1="125.35" x2="140.57" y2="141.69" gradientTransform="matrix(1, 0, 0, 1, 0, 0)" xlink:href="#linear-gradient-32"/><linearGradient id="linear-gradient-56" x1="153.36" y1="237.47" x2="153.36" y2="320.97" gradientUnits="userSpaceOnUse"><stop offset="0" stop-color="#730024"/><stop offset="1" stop-color="#45000a"/></linearGradient><linearGradient id="linear-gradient-57" x1="150.59" y1="252.74" x2="150.59" y2="246.6" gradientUnits="userSpaceOnUse"><stop offset="0" stop-color="#8eadc7"/><stop offset="1" stop-color="#6d80b0"/></linearGradient><linearGradient id="linear-gradient-58" x1="150.59" y1="250.07" x2="150.59" y2="244.34" gradientUnits="userSpaceOnUse"><stop offset="0" stop-color="#bbbcbe"/><stop offset="1" stop-color="#a2a5a8"/></linearGradient><linearGradient id="linear-gradient-59" x1="150" y1="177.12" x2="150" y2="241.73" gradientUnits="userSpaceOnUse"><stop offset="0" stop-color="#dbddde"/><stop offset="1" stop-color="#c3c6c8"/></linearGradient><linearGradient id="linear-gradient-60" x1="150" y1="204.26" x2="150" y2="222.28" xlink:href="#linear-gradient-58"/><linearGradient id="linear-gradient-61" x1="121.18" y1="300.46" x2="121.18" y2="322.96" xlink:href="#linear-gradient-57"/><linearGradient id="linear-gradient-62" x1="-127.18" y1="300.46" x2="-127.18" y2="322.96" gradientTransform="matrix(-1, 0, 0, 1, 58.36, 0)" xlink:href="#linear-gradient-57"/><linearGradient id="linear-gradient-63" x1="136.12" y1="57.46" x2="139.63" y2="57.46" gradientUnits="userSpaceOnUse"><stop offset="0" stop-color="#6d4121"/><stop offset="1" stop-color="#855321"/></linearGradient><linearGradient id="linear-gradient-64" x1="162.88" y1="54.75" x2="166.8" y2="54.75" xlink:href="#linear-gradient-63"/><linearGradient id="linear-gradient-65" x1="166.86" y1="55.14" x2="170.79" y2="55.14" xlink:href="#linear-gradient-63"/><linearGradient id="linear-gradient-66" x1="133.7" y1="57.46" x2="137.21" y2="57.46" xlink:href="#linear-gradient-63"/></defs><title>position-2</title><g style="isolation:isolate"><g id="Layer_1" data-name="Layer 1"><rect x="140.57" y="103.75" width="21.26" height="26.06" fill="url(#linear-gradient)"/><path d="M161.83,103.75v9a27.48,27.48,0,0,1-7.46,1h-2.14a27.24,27.24,0,0,1-11.66-2.59v-7.4Z" opacity="0.45" fill="url(#linear-gradient-2)" style="mix-blend-mode:multiply"/><path d="M118.68,82.23h0a6.09,6.09,0,0,1-6.07-6.07V73.52a6.08,6.08,0,0,1,6.07-6.06h0a6.08,6.08,0,0,1,6.06,6.06v2.64A6.08,6.08,0,0,1,118.68,82.23Z" fill="url(#linear-gradient-3)"/><path d="M122.13,78a.8.8,0,0,1-.76-.58,7.55,7.55,0,0,0-5.07-5.09.78.78,0,0,1-.55-1,.79.79,0,0,1,1-.54A9.14,9.14,0,0,1,122.89,77a.79.79,0,0,1-.54,1Z" fill="#ad7552"/><path d="M116.07,76a.79.79,0,0,1-.59-1.31,5.28,5.28,0,0,1,4.38-1.75.78.78,0,0,1,.72.85.8.8,0,0,1-.86.72,3.66,3.66,0,0,0-3.06,1.22A.78.78,0,0,1,116.07,76Z" fill="#ad7552"/><path d="M183.72,82.23h0a6.09,6.09,0,0,1-6.07-6.07V73.52a6.08,6.08,0,0,1,6.07-6.06h0a6.08,6.08,0,0,1,6.06,6.06v2.64A6.08,6.08,0,0,1,183.72,82.23Z" fill="url(#linear-gradient-4)"/><path d="M180.49,78a.79.79,0,0,1-.76-1,9.12,9.12,0,0,1,6.16-6.18.79.79,0,1,1,.43,1.51,7.56,7.56,0,0,0-5.08,5.09A.78.78,0,0,1,180.49,78Z" fill="#ad7552"/><path d="M186.55,76a.76.76,0,0,1-.59-.27,3.69,3.69,0,0,0-3.07-1.22.79.79,0,0,1-.14-1.57,5.29,5.29,0,0,1,4.39,1.75.78.78,0,0,1-.07,1.11A.81.81,0,0,1,186.55,76Z" fill="#ad7552"/><path d="M180.6,46.53V83.66A28.31,28.31,0,0,1,152.3,112h-2.2a28.32,28.32,0,0,1-28.31-28.31V46.53a13.37,13.37,0,0,1,13.37-13.36h32.08A13.36,13.36,0,0,1,180.6,46.53Z" fill="url(#linear-gradient-5)"/><path d="M180.6,82.22v1.44a28.26,28.26,0,0,1-13.41,24.07c-.63.4-1.27.76-1.93,1.1a27.83,27.83,0,0,1-7.09,2.52c-.43.1-.88.18-1.32.25a28.41,28.41,0,0,1-4.55.37h-2.21a29,29,0,0,1-3.51-.22c-.48-.06-1-.13-1.43-.21a28.58,28.58,0,0,1-8-2.72c-.71-.37-1.4-.77-2.07-1.19h0a28.28,28.28,0,0,1-13.24-24V82.22Z" fill="url(#linear-gradient-6)"/><g style="mix-blend-mode:multiply"><path d="M146.58,111.75c-.48-.06-1-.13-1.43-.21a59,59,0,0,1-10.28-29.32h1a57.78,57.78,0,0,0,10.66,29.53Z" fill="url(#linear-gradient-7)"/></g><g style="mix-blend-mode:multiply"><path d="M176.26,82.22a66.12,66.12,0,0,1-9.07,25.51c-.63.4-1.27.76-1.93,1.1a65.36,65.36,0,0,0,9.94-26.61Z" fill="url(#linear-gradient-8)"/></g><g style="mix-blend-mode:multiply"><path d="M166.49,82.22a71.51,71.51,0,0,1-2.18,13.39,72.82,72.82,0,0,1-6.14,15.74c-.43.1-.88.18-1.32.25a71.07,71.07,0,0,0,8.58-29.38Z" fill="url(#linear-gradient-9)"/></g><g style="mix-blend-mode:multiply"><path d="M137.11,108.82c-.71-.37-1.4-.77-2.07-1.19h0a55.08,55.08,0,0,1-8.73-25.4h1.06a54,54,0,0,0,9.75,26.6Z" fill="url(#linear-gradient-10)"/></g><path d="M135.6,74.76c-3.49,0-6.34-3.66-6.34-8.16a.79.79,0,0,1,1.58,0c0,3.63,2.14,6.59,4.76,6.59s4.77-3,4.77-6.59a.79.79,0,0,1,1.58,0C142,71.1,139.1,74.76,135.6,74.76Z" fill="#ad7552"/><path d="M167,74.76c-3.5,0-6.34-3.66-6.34-8.16a.79.79,0,0,1,1.57,0c0,3.63,2.14,6.59,4.77,6.59s4.77-3,4.77-6.59a.79.79,0,0,1,1.58,0C173.36,71.1,170.51,74.76,167,74.76Z" fill="#ad7552"/><path d="M132.56,54.6h9.59a0,0,0,0,1,0,0v2a3.68,3.68,0,0,1-3.68,3.68h-9.59a0,0,0,0,1,0,0v-2A3.68,3.68,0,0,1,132.56,54.6Z" fill="url(#linear-gradient-11)"/><path d="M160.54,52.12h9.59a3.68,3.68,0,0,1,3.68,3.68v2a0,0,0,0,1,0,0h-9.59a3.68,3.68,0,0,1-3.68-3.68v-2A0,0,0,0,1,160.54,52.12Z" transform="translate(328.36 125.58) rotate(-174.55)" fill="url(#linear-gradient-12)"/><path d="M152.44,63.47c-2.19,0-4.73,10.15-5.2,14.8-2.63-.94-5.9-.66-6.68,2-.82,2.84,1.36,4.84,3.22,5.94A12.71,12.71,0,0,0,149.6,88c1.7.08,3.69,0,5.07-1.39,1.86-1.82,2.27-6.48,2-10.12C156.34,72.46,154.53,63.47,152.44,63.47Z" fill="url(#linear-gradient-13)"/><path d="M125.25,37.25v25c0,3.89-2.44,7.07-5.41,7.07V48.43A14.22,14.22,0,0,1,125.25,37.25Z" fill="#a6918a"/><path d="M182.67,48.43V69.29c-3,0-5.4-3.18-5.4-7.07v-25A14.24,14.24,0,0,1,182.67,48.43Z" fill="#a6918a"/><path d="M190.83,14.28a14.88,14.88,0,0,0-5.27,6.41h0c-.21.45-.4.9-.57,1.36a30.3,30.3,0,0,0-1.9,10.45c-.19,3.36-.42,7.26-.42,11.64V52.9a6.82,6.82,0,0,1-5.4-5.48,6.17,6.17,0,0,1-.12-1.3c0-.15,0-1.4,0-3a8.87,8.87,0,0,0-7.1-8.77,7.48,7.48,0,0,0-1.17-.14h-35.2a8.21,8.21,0,0,0-2.28.41,7.07,7.07,0,0,0-1,.4,8.89,8.89,0,0,0-3.51,3,8.93,8.93,0,0,0-1.56,5.09c0,1.64,0,2.89,0,3a6.16,6.16,0,0,1-.13,1.3,6.82,6.82,0,0,1-5.4,5.48v-7c0-9.05-3.06-18.38,3.73-33.06l1.62,7.31C133.1,7.43,143.61,1.55,158.66,0l-.5.57a29.16,29.16,0,0,0-2,2.64,28.14,28.14,0,0,0-4.06,9.06,33.06,33.06,0,0,1,15.41-9.1q1.52-.44,3-.75h0a51.23,51.23,0,0,1,10.09-1c-4.53,3.38-9.54,8.21-11.77,13.41A18.26,18.26,0,0,1,180.26,12c.61,0,1.23.08,1.86.16A41.68,41.68,0,0,1,190.83,14.28Z" fill="url(#linear-gradient-14)"/><g style="mix-blend-mode:multiply"><path d="M158.16.57a29.16,29.16,0,0,0-2,2.64,55.72,55.72,0,0,0-21.35,30.95h-1.09A56.81,56.81,0,0,1,158.16.57Z" fill="url(#linear-gradient-15)"/></g><g style="mix-blend-mode:multiply"><path d="M170.51,2.42A67.15,67.15,0,0,0,144,34.16h-1.13a68.07,68.07,0,0,1,24.61-31Q169,2.74,170.51,2.42Z" fill="url(#linear-gradient-16)"/></g><g style="mix-blend-mode:multiply"><path d="M182.12,12.14a44.28,44.28,0,0,0-19.85,22h-1.13A45.36,45.36,0,0,1,180.26,12C180.87,12,181.49,12.06,182.12,12.14Z" fill="url(#linear-gradient-17)"/></g><g style="mix-blend-mode:multiply"><path d="M185.56,20.7c-.21.45-.4.9-.57,1.36a34.43,34.43,0,0,0-14.93,12.25,7.48,7.48,0,0,0-1.17-.14A35.4,35.4,0,0,1,185.56,20.7Z" fill="url(#linear-gradient-18)"/></g><path d="M118.63,138.73s-4-.69-8-1.24c-7.52-1-10-1.17-10.47,1.22-.67,3.26-1.45,6.57-2.21,9.77l-.46,2C93.53,167,87.93,185.9,76.13,200.11c-5.84,7-16.41,10.58-24,4.33-8.06-6.66-10.06-20.55-10.9-31.91-.13-1.83-.19-3.33-.24-4.43l-.12-4.17H27.34l-.06,4.35c0,1.21,0,2.87.06,4.95.3,9.44,1.35,21.67,6.86,32.58a38,38,0,0,0,4.42,6.94A31.72,31.72,0,0,0,45.35,219a29.38,29.38,0,0,0,16.77,5.29c10.5,0,20.47-5.55,27.05-12.83a91.18,91.18,0,0,0,13.36-20.22,203,203,0,0,0,10.4-24.88,238.35,238.35,0,0,0,6.93-23.18l1-4.07Z" fill="url(#linear-gradient-19)"/><path d="M78.36,220a35.21,35.21,0,0,1-3.72,1.77l-6.13-15.58Z" opacity="0.42" fill="url(#linear-gradient-20)" style="mix-blend-mode:multiply"/><path d="M181.37,138.73s4-.69,8-1.24c7.52-1,10-1.17,10.47,1.22.67,3.26,1.45,6.57,2.21,9.77l.46,2c3.93,16.59,9.53,35.47,21.33,49.68,5.84,7,16.41,10.58,24,4.33,8.06-6.66,10.06-20.55,10.9-31.91.13-1.83.19-3.33.24-4.43l.12-4.17h13.56l.06,4.35c0,1.21,0,2.87-.06,4.95-.3,9.44-1.35,21.67-6.86,32.58a38,38,0,0,1-4.42,6.94,31.72,31.72,0,0,1-6.73,6.25,29.38,29.38,0,0,1-16.77,5.29c-10.5,0-20.47-5.55-27-12.83a91.18,91.18,0,0,1-13.36-20.22,203,203,0,0,1-10.4-24.88,238.35,238.35,0,0,1-6.93-23.18l-1-4.07Z" fill="url(#linear-gradient-21)"/><path d="M231.49,206.14l-5.76,15.74a25.54,25.54,0,0,1-4.14-1.93Z" opacity="0.42" fill="url(#linear-gradient-22)" style="mix-blend-mode:multiply"/><path d="M151.2,97.57a31,31,0,0,1-7.79-1,1.05,1.05,0,1,1,.52-2,28.82,28.82,0,0,0,14.53,0,1.05,1.05,0,0,1,.53,2,30.79,30.79,0,0,1-7.58,1Z" fill="#d79a6e"/><path d="M31.77,166.75a3.69,3.69,0,0,1-2.43-.91L9.14,148.17A3.69,3.69,0,0,1,14,142.61l20.21,17.67a3.69,3.69,0,0,1-2.44,6.47Z" fill="url(#linear-gradient-23)"/><path d="M30.76,165.7a3.67,3.67,0,0,1-1.22-.2l-24.6-8.6a3.7,3.7,0,0,1,2.44-7l24.6,8.6a3.69,3.69,0,0,1-1.22,7.18Z" fill="url(#linear-gradient-24)"/><path d="M31.77,166.75H3.69a3.7,3.7,0,0,1,0-7.39H31.77a3.7,3.7,0,1,1,0,7.39Z" fill="url(#linear-gradient-25)"/><path d="M35.47,143.84h0A4.08,4.08,0,0,0,38,147.55a6.16,6.16,0,0,1,3.67,5.87,6.15,6.15,0,0,1-12.3-.24,6.16,6.16,0,0,1,3.76-5.67A3.81,3.81,0,0,0,35.47,144v-.28a4,4,0,0,0-5.5-3.63,14.19,14.19,0,1,0,11,0A4,4,0,0,0,35.47,143.84Z" fill="url(#linear-gradient-26)"/><path d="M88.07,213.13,75.21,200.75c14.27-14.83,19.05-51.2,21.72-64l22.73,3.64C119.23,142.51,108.84,191.56,88.07,213.13Z" fill="url(#linear-gradient-27)"/><path d="M268.23,166.75a3.69,3.69,0,0,0,2.43-.91l20.2-17.67a3.69,3.69,0,1,0-4.86-5.56l-20.21,17.67a3.69,3.69,0,0,0,2.44,6.47Z" fill="url(#linear-gradient-28)"/><path d="M269.24,165.7a3.67,3.67,0,0,0,1.22-.2l24.6-8.6a3.7,3.7,0,0,0-2.44-7l-24.6,8.6a3.69,3.69,0,0,0,1.22,7.18Z" fill="url(#linear-gradient-29)"/><path d="M268.23,166.75h28.08a3.7,3.7,0,0,0,0-7.39H268.23a3.7,3.7,0,1,0,0,7.39Z" fill="url(#linear-gradient-30)"/><path d="M264.53,143.84h0a4.08,4.08,0,0,1-2.48,3.71,6.16,6.16,0,0,0-3.67,5.87,6.15,6.15,0,0,0,12.3-.24,6.16,6.16,0,0,0-3.76-5.67,3.81,3.81,0,0,1-2.39-3.49v-.28a4,4,0,0,1,5.5-3.63,14.19,14.19,0,1,1-11,0A4,4,0,0,1,264.53,143.84Z" fill="url(#linear-gradient-31)"/><path d="M211.93,213.13l12.86-12.38c-14.27-14.83-19-51.2-21.72-64l-22.73,3.64C180.77,142.51,191.16,191.56,211.93,213.13Z" fill="url(#linear-gradient-32)"/><path d="M211.93,213.13l12.86-12.38c-14.27-14.83-19-51.2-21.72-64l-22.73,3.64C180.77,142.51,191.16,191.56,211.93,213.13Z" fill="url(#linear-gradient-33)"/><path d="M96.93,136.79l36.55-10.29a52.65,52.65,0,0,1,32.81,0l36.78,10.31L183.88,247.05H116.12Z" fill="url(#linear-gradient-34)"/><g opacity="0.45"><g clip-path="url(#clip-path)"><g opacity="0.42" style="mix-blend-mode:multiply"><polygon points="19.96 250.41 15.07 246.23 144.16 94.86 146.49 96.84 19.96 250.41" fill="url(#linear-gradient-35)"/><polygon points="36.9 248.22 34.57 246.23 163.66 94.86 168.91 99.34 36.9 248.22" fill="url(#linear-gradient-36)"/><polygon points="61.34 249.32 54.07 246.23 183.16 94.86 185.49 96.84 61.34 249.32" fill="url(#linear-gradient-37)"/><polygon points="75.9 248.22 73.57 246.23 202.66 94.86 206.85 98.43 75.9 248.22" fill="url(#linear-gradient-38)"/><polygon points="97.97 250.41 93.08 246.23 222.17 94.86 226.5 92.47 97.97 250.41" fill="url(#linear-gradient-39)"/><polygon points="114.91 248.22 112.58 246.23 239.32 92.85 244 96.84 114.91 248.22" fill="url(#linear-gradient-40)"/><polygon points="134.41 248.22 132.08 246.23 261.17 94.86 263.9 100.65 134.41 248.22" fill="url(#linear-gradient-41)"/><polygon points="156.23 250.2 151.58 246.23 280.67 94.86 283 96.84 156.23 250.2" fill="url(#linear-gradient-42)"/><polygon points="280.67 248.22 286.3 243.42 153.91 94.86 151.58 96.84 280.67 248.22" fill="url(#linear-gradient-43)"/><polygon points="261.17 248.22 263.5 246.23 136.76 92.85 132.08 96.84 261.17 248.22" fill="url(#linear-gradient-44)"/><polygon points="239.43 250.13 244 246.23 114.91 94.86 112.58 96.84 239.43 250.13" fill="url(#linear-gradient-45)"/><polygon points="222.17 248.22 224.5 246.23 95.41 94.86 90.98 98.63 222.17 248.22" fill="url(#linear-gradient-46)"/><polygon points="202.66 248.22 208.11 243.58 75.9 94.86 73.57 96.84 202.66 248.22" fill="url(#linear-gradient-47)"/><polygon points="183.16 248.22 185.49 246.23 60.2 94.86 54.07 96.84 183.16 248.22" fill="url(#linear-gradient-48)"/><polygon points="163.66 248.22 168.91 244.73 36.9 94.86 34.57 96.84 163.66 248.22" fill="url(#linear-gradient-49)"/><polygon points="144.16 248.22 146.49 246.23 17.4 94.86 12.78 98.8 144.16 248.22" fill="url(#linear-gradient-50)"/></g></g></g><polygon points="78.41 196.85 91.78 208.86 89.18 212.1 78.41 196.85" opacity="0.35" fill="url(#linear-gradient-51)"/><polygon points="221.59 196.85 207.65 208.13 210.71 211.74 221.59 196.85" opacity="0.35" fill="url(#linear-gradient-52)"/><polygon points="92.35 213.47 78.52 222.1 68.51 206.14 77.38 195.62 92.35 213.47" fill="#5c5c5c"/><path d="M184.81,171.74c0,11.9-5.36,21.54-12,21.54s-12-9.64-12-21.54Z" opacity="0.35" fill="url(#linear-gradient-53)" style="mix-blend-mode:multiply"/><path d="M184.81,169.64c0,11.9-5.36,21.54-12,21.54s-12-9.64-12-21.54Z" fill="#5c5c5c"/><g opacity="0.35" style="mix-blend-mode:multiply"><polygon points="171.82 131.86 156.01 139.94 148.26 124.07 168.26 121.5 171.82 131.86" fill="url(#linear-gradient-54)"/><polygon points="129.4 131.39 144.81 139.94 151.74 124.2 132.81 120.89 129.4 131.39" fill="url(#linear-gradient-55)"/></g><polygon points="169.66 131.39 156.01 136.79 150 123.87 169.32 116.78 169.66 131.39" fill="#5c5c5c"/><polygon points="131.15 130.87 144.81 136.79 150 123.87 130.68 116.78 131.15 130.87" fill="#5c5c5c"/><polygon points="207.65 213.47 221.48 222.1 231.49 206.14 222.62 195.62 207.65 213.47" fill="#5c5c5c"/><path d="M230.21,323.64H169.12V300h61.09c5.15,0,15-8.57,15-20.3a20.33,20.33,0,0,0-20.3-20.3H81.76a20.3,20.3,0,0,0,0,40.6h55.85v23.63H81.76a43.93,43.93,0,0,1,0-87.86H225a44,44,0,0,1,43.93,43.93,46,46,0,0,1-11.75,30.52C249.58,318.75,239.76,323.64,230.21,323.64Z" fill="url(#linear-gradient-56)"/><path d="M225.08,307.85h-2.63v-1.58h2.63Zm-6.3,0h-2.63v-1.58h2.63Zm-6.3,0h-2.63v-1.58h2.63Zm-6.31,0h-2.62v-1.58h2.62Zm-6.3,0h-2.62v-1.58h2.62Zm-6.3,0H191v-1.58h2.62Zm-6.3,0h-2.63v-1.58h2.63Zm-6.3,0h-2.63v-1.58H181Zm-6.3,0H172v-1.58h2.63Zm-6.31,0h-2.62v-1.58h2.62Zm-6.3,0h-2.62v-1.58h2.62Zm-6.3,0h-2.63v-1.58h2.63Zm-6.3,0h-2.63v-1.58h2.63Zm-6.3,0h-2.63v-1.58h2.63Zm-6.31,0h-2.62v-1.58h2.62Zm-6.3,0h-2.62v-1.58h2.62Zm-6.3,0h-2.62v-1.58h2.62Zm-6.3,0h-2.63v-1.58H118Zm-6.3,0H109v-1.58h2.63Zm-6.3,0h-2.63v-1.58h2.63Zm-6.31,0H96.42v-1.58H99Zm-6.3,0H90.12v-1.58h2.62Zm-6.3,0H83.81v-1.58h2.63Zm-6.34-.05a26.65,26.65,0,0,1-2.69-.29l.24-1.55c.84.13,1.69.22,2.53.27Zm147,0L227,306.2c.85-.07,1.7-.18,2.53-.32l.27,1.55C228.94,307.58,228,307.7,227.14,307.77ZM73.72,306.66c-.85-.27-1.71-.58-2.54-.93l.61-1.45a25.44,25.44,0,0,0,2.4.87Zm159.77-.16L233,305a25.16,25.16,0,0,0,2.37-.91l.64,1.44C235.19,305.89,234.34,306.22,233.49,306.5ZM67.81,304c-.77-.46-1.53-1-2.25-1.5l.94-1.27a25.26,25.26,0,0,0,2.12,1.42Zm171.54-.27-.83-1.33a25.2,25.2,0,0,0,2.09-1.46l1,1.25A24.37,24.37,0,0,1,239.35,303.75ZM62.69,300.06a26.46,26.46,0,0,1-1.83-2l1.21-1c.54.64,1.12,1.27,1.72,1.87Zm181.71-.36-1.13-1.1a25.36,25.36,0,0,0,1.69-1.91l1.23,1A26.36,26.36,0,0,1,244.4,299.7ZM58.64,295a23.61,23.61,0,0,1-1.31-2.36l1.41-.69c.37.75.79,1.5,1.24,2.22Zm189.71-.44-1.35-.8c.43-.73.83-1.48,1.19-2.25l1.43.67A25.79,25.79,0,0,1,248.35,294.57ZM55.9,289.15q-.42-1.29-.72-2.61l1.54-.34c.18.83.41,1.65.67,2.46ZM251,288.66l-1.5-.47a22.69,22.69,0,0,0,.62-2.46l1.55.31A26.47,26.47,0,0,1,251,288.66ZM54.64,282.8c-.06-.68-.08-1.36-.08-2,0-.22,0-.44,0-.66l1.57,0c0,.2,0,.41,0,.62,0,.64,0,1.28.08,1.92Zm197.48-.52-1.57-.09c0-.47,0-.95,0-1.43s0-.74,0-1.11l1.58-.07c0,.39,0,.78,0,1.18S252.15,281.78,252.12,282.28ZM56.48,276.59l-1.56-.26a26.43,26.43,0,0,1,.58-2.64l1.52.41Q56.69,275.33,56.48,276.59Zm193.68-.48a23.34,23.34,0,0,0-.59-2.47l1.51-.45a24.5,24.5,0,0,1,.63,2.63Zm-192-5.37-1.45-.62c.35-.83.76-1.64,1.19-2.43l1.38.77A25.31,25.31,0,0,0,58.2,270.74Zm190.13-.44c-.35-.77-.74-1.53-1.16-2.26l1.36-.79a25.89,25.89,0,0,1,1.24,2.4ZM61.26,265.47l-1.26-1c.54-.72,1.13-1.42,1.73-2.08l1.16,1.07C62.32,264.13,61.77,264.79,61.26,265.47Zm183.91-.38a23.57,23.57,0,0,0-1.67-1.93l1.14-1.09a26.54,26.54,0,0,1,1.77,2.05Zm-179.69-4-1-1.21a26.59,26.59,0,0,1,2.17-1.62l.87,1.31A25.1,25.1,0,0,0,65.48,261.06Zm175.39-.3c-.67-.53-1.36-1-2.07-1.48l.85-1.33c.75.49,1.49,1,2.2,1.58Zm-170.26-3-.68-1.41a25.83,25.83,0,0,1,2.49-1.06l.54,1.48C72.17,257.07,71.38,257.41,70.61,257.77Zm165.06-.2a22.8,22.8,0,0,0-2.36-.95l.51-1.49a25.79,25.79,0,0,1,2.51,1ZM76.38,255.8l-.33-1.54a27,27,0,0,1,2.67-.43l.17,1.57A23.82,23.82,0,0,0,76.38,255.8Zm153.48-.1c-.82-.16-1.67-.27-2.52-.35l.15-1.57a26.8,26.8,0,0,1,2.67.38Zm-6.12-.45h-2.62v-1.58h2.62Zm-6.3,0h-2.62v-1.58h2.62Zm-6.3,0h-2.63v-1.58h2.63Zm-6.3,0h-2.63v-1.58h2.63Zm-6.3,0h-2.63v-1.58h2.63Zm-6.31,0h-2.62v-1.58h2.62Zm-6.3,0h-2.62v-1.58h2.62Zm-6.3,0H177v-1.58h2.62Zm-6.3,0H170.7v-1.58h2.63Zm-6.3,0H164.4v-1.58H167Zm-6.3,0H158.1v-1.58h2.63Zm-6.31,0H151.8v-1.58h2.62Zm-6.3,0H145.5v-1.58h2.62Zm-6.3,0h-2.63v-1.58h2.63Zm-6.3,0h-2.63v-1.58h2.63Zm-6.3,0h-2.63v-1.58h2.63Zm-6.31,0h-2.62v-1.58h2.62Zm-6.3,0H114v-1.58h2.62Zm-6.3,0h-2.62v-1.58h2.62Zm-6.3,0h-2.63v-1.58H104Zm-6.3,0H95.08v-1.58h2.63Zm-6.3,0H88.78v-1.58h2.63Zm-6.31,0H82.48v-1.58H85.1Z" fill="#8b002f"/><rect x="151" y="235.78" width="2.63" height="23.63" fill="#8b002f"/><rect x="148.16" y="258.1" width="1.58" height="1.31" fill="#8b002f"/><path d="M149.74,254.68h-1.58v-2.44h1.58Zm0-5.86h-1.58v-2.45h1.58Zm0-5.86h-1.58v-2.45h1.58Z" fill="#8b002f"/><rect x="148.16" y="235.78" width="1.58" height="1.31" fill="#5c71a6"/><rect x="90.04" y="246.2" width="121.09" height="7.55" rx="2.83" fill="url(#linear-gradient-57)" style="mix-blend-mode:multiply"/><rect x="92.82" y="243.96" width="115.53" height="7.04" rx="2.25" fill="url(#linear-gradient-58)"/><path d="M202,247.38H98a1.57,1.57,0,0,1-1.58-1.57l-15.8-68.56a1.81,1.81,0,0,1,2-1.58H217.41a1.81,1.81,0,0,1,2,1.58l-15.8,68.56A1.57,1.57,0,0,1,202,247.38Z" fill="url(#linear-gradient-59)"/><path d="M154.2,205.49c.15-.45,1.13-.57,1.43-.57a1,1,0,0,1,1,1c0,.27-.76,2.31-1.18,3.52h2.12c.42,0,.87.19.87.68,0,.64-.42,1.66-1.1,1.66h-2.68l-1.29,3.67h1.86c.56,0,.6.53.6,1s-.41,1.32-1.1,1.32h-2.3l-1.29,3.86c-.19.49-.57.64-1.21.64s-1.28-.3-1.28-.87a27.83,27.83,0,0,1,1.17-3.63H146.6l-1.55,4c-.19.42-1,.46-1.4.46a1,1,0,0,1-1-1,31.92,31.92,0,0,1,1.25-3.52h-1.59a.82.82,0,0,1-.79-.76c0-.64.57-1.59,1.29-1.59h2l1.51-3.63h-2.12c-.49,0-.68-.3-.68-.79s.3-1.55,1-1.55h2.61l1.55-3.9c.19-.56,1-.64,1.36-.64a1.08,1.08,0,0,1,1.1,1l-1.36,3.52h2.91ZM152,211.84h-2.95l-1.51,3.59h3.14Z" fill="url(#linear-gradient-60)"/><path d="M153.36,310a10,10,0,0,0-10-10h-6.62v41.68h16.59Z" fill="#6d4121"/><path d="M153.36,341.73H136.77a15,15,0,0,0,14.95,15h1.64Z" fill="#8c6034"/><path d="M153.36,310v1.22a11.19,11.19,0,0,1-11.19-11.19h1.22A10,10,0,0,1,153.36,310Z" fill="#8c6034"/><path d="M152.5,304.08h.86a0,0,0,0,1,0,0v53.39a0,0,0,0,1,0,0h-.86a.78.78,0,0,1-.78-.78V304.86A.78.78,0,0,1,152.5,304.08Z"/><path d="M144.34,325.86h-7.57a.79.79,0,0,1,0-1.58h7.57a.79.79,0,1,1,0,1.58Z"/><path d="M144.34,329.92h-7.57a.79.79,0,1,1,0-1.58h7.57a.79.79,0,1,1,0,1.58Z"/><path d="M144.34,334h-7.57a.79.79,0,0,1,0-1.58h7.57a.79.79,0,1,1,0,1.58Z"/><path d="M153.36,310a10,10,0,0,1,10-10H170v41.68H153.36Z" fill="#6d4121"/><path d="M153.36,341.73H170a15,15,0,0,1-14.95,15h-1.64Z" fill="#8c6034"/><path d="M153.36,310v1.22a11.19,11.19,0,0,0,11.19-11.19h-1.22A10,10,0,0,0,153.36,310Z" fill="#8c6034"/><path d="M154.14,304.08H155a0,0,0,0,1,0,0v53.39a0,0,0,0,1,0,0h-.86a.78.78,0,0,1-.78-.78V304.86A.78.78,0,0,1,154.14,304.08Z" transform="translate(308.36 661.55) rotate(180)"/><path d="M170,325.86h-7.56a.79.79,0,0,1,0-1.58H170a.79.79,0,0,1,0,1.58Z"/><path d="M170,329.92h-7.56a.79.79,0,0,1,0-1.58H170a.79.79,0,1,1,0,1.58Z"/><path d="M170,334h-7.56a.79.79,0,0,1,0-1.58H170a.79.79,0,0,1,0,1.58Z"/><circle cx="150" cy="140.37" r="2.07" fill="#2b2b2b"/><circle cx="150" cy="156.79" r="2.07" fill="#2b2b2b"/><circle cx="150" cy="173.2" r="2.07" fill="#2b2b2b"/><polygon points="123.35 300.01 120.13 300.01 119.02 323.68 121.18 323.68 123.35 300.01" fill="url(#linear-gradient-61)" style="mix-blend-mode:multiply"/><polygon points="183.38 300.01 186.59 300.01 187.71 323.68 185.54 323.68 183.38 300.01" fill="url(#linear-gradient-62)" style="mix-blend-mode:multiply"/><path d="M137.72,299.07l-14.17-.43a1,1,0,0,0-1.08,1l-2.92,25.06a1.06,1.06,0,0,0,1.1,1.17l15.1-.78a1.05,1.05,0,0,0,1.1-1l1.88-23.89A1,1,0,0,0,137.72,299.07Z" fill="#8b002f"/><path d="M169,299.07l14.16-.43a1,1,0,0,1,1.08,1l2.92,25.06a1.05,1.05,0,0,1-1.1,1.17l-15.1-.78a1.06,1.06,0,0,1-1.1-1L168,300.2A1.06,1.06,0,0,1,169,299.07Z" fill="#8b002f"/><g opacity="0.46" style="mix-blend-mode:screen"><path d="M139.63,54.6a12.48,12.48,0,0,1-.71,3,12.15,12.15,0,0,1-1.44,2.71h-1.36a10.89,10.89,0,0,0,1.79-3.09,10.77,10.77,0,0,0,.63-2.62Z" fill="url(#linear-gradient-63)"/></g><g opacity="0.46" style="mix-blend-mode:screen"><path d="M166.8,57.81l-1.52-.15a11.94,11.94,0,0,1-1.7-3.06,12.65,12.65,0,0,1-.7-2.9l1.11.11a10.63,10.63,0,0,0,.6,2.41A11.38,11.38,0,0,0,166.8,57.81Z" fill="url(#linear-gradient-64)"/></g><g opacity="0.46" style="mix-blend-mode:screen"><path d="M170.79,58.19,169.27,58A11.74,11.74,0,0,1,167.55,55a11.94,11.94,0,0,1-.69-2.89l1.1.11a10.55,10.55,0,0,0,.6,2.4A11.06,11.06,0,0,0,170.79,58.19Z" fill="url(#linear-gradient-65)"/></g><g opacity="0.46" style="mix-blend-mode:screen"><path d="M137.21,54.6a11.51,11.51,0,0,1-.71,3,12.15,12.15,0,0,1-1.44,2.71H133.7a10.89,10.89,0,0,0,1.79-3.09,10.77,10.77,0,0,0,.63-2.62Z" fill="url(#linear-gradient-66)"/></g><path d="M229.15,387.86c0,3.52-35.44,6.37-79.15,6.37s-79.15-2.85-79.15-6.37,35.44-6.37,79.15-6.37S229.15,384.34,229.15,387.86Z" fill="#d1d3d4" opacity="0"/><path d="M227.91,387.86c0,3.43-34.88,6.21-77.91,6.21s-77.91-2.78-77.91-6.21S107,381.65,150,381.65,227.91,384.43,227.91,387.86Z" fill="#d0d2d3" opacity="0.03"/><path d="M226.67,387.86c0,3.34-34.33,6.05-76.67,6.05s-76.67-2.71-76.67-6.05,34.33-6.05,76.67-6.05S226.67,384.52,226.67,387.86Z" fill="#d0d2d3" opacity="0.06"/><path d="M225.42,387.86c0,3.26-33.76,5.89-75.42,5.89s-75.42-2.63-75.42-5.89S108.34,382,150,382,225.42,384.6,225.42,387.86Z" fill="#cfd1d2" opacity="0.1"/><path d="M224.18,387.86c0,3.17-33.21,5.74-74.18,5.74S75.82,391,75.82,387.86,109,382.12,150,382.12,224.18,384.69,224.18,387.86Z" fill="#ced0d1" opacity="0.13"/><path d="M222.94,387.86c0,3.08-32.65,5.58-72.94,5.58s-72.94-2.5-72.94-5.58,32.65-5.58,72.94-5.58S222.94,384.78,222.94,387.86Z" fill="#ced0d1" opacity="0.16"/><path d="M221.7,387.86c0,3-32.1,5.42-71.7,5.42s-71.7-2.43-71.7-5.42,32.1-5.42,71.7-5.42S221.7,384.87,221.7,387.86Z" fill="#cdcfd0" opacity="0.19"/><path d="M220.46,387.86c0,2.9-31.55,5.26-70.46,5.26s-70.46-2.36-70.46-5.26,31.55-5.26,70.46-5.26S220.46,385,220.46,387.86Z" fill="#cccecf" opacity="0.23"/><path d="M219.22,387.86c0,2.82-31,5.1-69.22,5.1s-69.22-2.28-69.22-5.1,31-5.1,69.22-5.1S219.22,385,219.22,387.86Z" fill="#cccecf" opacity="0.26"/><path d="M218,387.86c0,2.73-30.44,4.94-68,4.94s-68-2.21-68-4.94,30.44-4.94,68-4.94S218,385.13,218,387.86Z" fill="#cbcdce" opacity="0.29"/><path d="M216.74,387.86c0,2.64-29.88,4.78-66.74,4.78s-66.74-2.14-66.74-4.78,29.88-4.78,66.74-4.78S216.74,385.22,216.74,387.86Z" fill="#caccce" opacity="0.32"/><path d="M215.5,387.86c0,2.55-29.33,4.62-65.5,4.62s-65.5-2.07-65.5-4.62,29.33-4.62,65.5-4.62S215.5,385.31,215.5,387.86Z" fill="#cacccd" opacity="0.35"/><path d="M214.26,387.86c0,2.47-28.77,4.46-64.26,4.46s-64.26-2-64.26-4.46,28.77-4.46,64.26-4.46S214.26,385.39,214.26,387.86Z" fill="#c9cbcc" opacity="0.39"/><path d="M213,387.86c0,2.38-28.22,4.31-63,4.31s-63-1.93-63-4.31,28.22-4.3,63-4.3S213,385.48,213,387.86Z" fill="#c8cacc" opacity="0.42"/><path d="M211.77,387.86c0,2.29-27.65,4.15-61.77,4.15s-61.77-1.86-61.77-4.15,27.65-4.15,61.77-4.15S211.77,385.57,211.77,387.86Z" fill="#c8cacb" opacity="0.45"/><ellipse cx="150" cy="387.86" rx="60.53" ry="3.99" fill="#c7c9ca" opacity="0.48"/><ellipse cx="150" cy="387.86" rx="59.29" ry="3.83" fill="#c6c8ca" opacity="0.52"/><ellipse cx="150" cy="387.86" rx="58.05" ry="3.67" fill="#c5c7c9" opacity="0.55"/><ellipse cx="150" cy="387.86" rx="56.81" ry="3.51" fill="#c5c7c8" opacity="0.58"/><ellipse cx="150" cy="387.86" rx="55.57" ry="3.35" fill="#c4c6c8" opacity="0.61"/><ellipse cx="150" cy="387.86" rx="54.33" ry="3.19" fill="#c3c5c7" opacity="0.65"/><ellipse cx="150" cy="387.86" rx="53.09" ry="3.03" fill="#c3c5c6" opacity="0.68"/><ellipse cx="150" cy="387.86" rx="51.85" ry="2.87" fill="#c2c4c6" opacity="0.71"/><ellipse cx="150" cy="387.86" rx="50.61" ry="2.72" fill="#c1c3c5" opacity="0.74"/><ellipse cx="150" cy="387.86" rx="49.37" ry="2.56" fill="#c1c3c5" opacity="0.77"/><ellipse cx="150" cy="387.86" rx="48.12" ry="2.4" fill="#c0c2c4" opacity="0.81"/><ellipse cx="150" cy="387.86" rx="46.88" ry="2.24" fill="#bfc1c3" opacity="0.84"/><ellipse cx="150" cy="387.86" rx="45.64" ry="2.08" fill="#bfc1c3" opacity="0.87"/><ellipse cx="150" cy="387.86" rx="44.4" ry="1.92" fill="#bec0c2" opacity="0.9"/><ellipse cx="150" cy="387.86" rx="43.16" ry="1.76" fill="#bdbfc1" opacity="0.94"/><ellipse cx="150" cy="387.86" rx="41.92" ry="1.6" fill="#bdbfc1" opacity="0.97"/><ellipse cx="150" cy="387.86" rx="40.68" ry="1.44" fill="#bcbec0"/></g></g></svg>