<svg id="Layer_1" data-name="Layer 1" xmlns="http://www.w3.org/2000/svg" width="150" height="173" viewBox="0 0 150 173"><title>positions</title><path d="M147.52,140.31c-4.21-8.2-31-15.47-46.66-19.29-10-2.45-7.07-42.27-7.07-42.27H56.12s3,39.82-7.07,42.27C33.41,124.84,6.6,132.11,2.39,140.31-1.19,147.31.31,173,.31,173H149.59S151.1,147.31,147.52,140.31Z" fill="#d39e76"/><path d="M147.52,140.31c-4.21-8.2-31-15.47-46.66-19.29a4.34,4.34,0,0,1-1-.41c-2.1-1.16-3.53-4.16-4.51-8H54.59c-1,3.89-2.42,6.89-4.51,8a4.34,4.34,0,0,1-1,.41C33.41,124.84,6.6,132.11,2.39,140.31-1.19,147.31.31,173,.31,173H149.59S151.1,147.31,147.52,140.31Z" fill="#49b96e"/><path d="M96,103.69H53.88a2.32,2.32,0,0,0-2.25,2.18l-.82,13.2a2.26,2.26,0,0,0,.43,1.5,2,2,0,0,0,1.63.86H97a2,2,0,0,0,1.64-.86,2.31,2.31,0,0,0,.43-1.5l-.82-13.2A2.32,2.32,0,0,0,96,103.69Z" fill="#1f8e64"/><path d="M43.29,45.67c-5.24.9-9.88,5.31-6.89,14.64,2.27,7.06-.94,14.63,9.48,14.63Z" fill="#f9bb90"/><path d="M107,45.67c5.24.9,9.88,5.31,6.89,14.64-2.27,7.06.94,14.63-9.48,14.63Z" fill="#f9bb90"/><path d="M105.83,46.66c0-.75,0-1.51,0-2.27,0-20.76-12.37-32.87-27.74-32.87A28.16,28.16,0,0,0,75,11.7a27.9,27.9,0,0,0-3.19-.18C56.39,11.52,44,23.63,44,44.39c0,.76,0,1.52.06,2.27-.65,13.81-2.59,35.43,3.64,43.88s16,17.4,20.56,17.4H81.62c4.62,0,14.43-9.06,20.57-17.4S106.48,60.47,105.83,46.66Z" fill="#ffcdab"/><path d="M98.75,50.78c-.75-.06-1.64-.1-2.72-.1A71.42,71.42,0,0,0,83.19,52l.11-.06-.53.14c-.78.17-1.51.36-2.18.57l-4.24,1.1h-2.3l-4.25-1.1c-.66-.21-1.4-.4-2.18-.57l-.52-.14.11.06a71.42,71.42,0,0,0-12.84-1.32c-1.11,0-2,0-2.78.11h0l-6.41-.1v1.87s1.16.06,1.24,1.9c.11,2.59.11,1.54.11,1.54l0-.1c-.42,3.66.33,8.44,1.57,10.38,2.15,3.35,9.2,3.61,11.31,3.61,3.33,0,7.72-.53,9.12-2,1.81-2,5.43-8.41,5-12.06h3.23c-.42,3.65,3.2,10.11,5,12.06,1.39,1.49,5.78,2,9.12,2,2.11,0,9.16-.26,11.3-3.61,1.26-2,2-6.85,1.56-10.53,0-.27,0-.67.06-1.29.07-1.84,1.24-1.9,1.24-1.9V50.68ZM67.14,66.57c-.52.57-3.33,1.41-7.68,1.41-3.66,0-8.38-.72-9.67-2.72-1.54-2.4-2-10.26-.39-12.06.17-.17,1.39-.62,5-.62,7.91,0,16.75,1.89,17.19,2.94C72.44,57.64,69.32,64.24,67.14,66.57Zm33.47-1.31c-1.29,2-6,2.72-9.67,2.72-4.35,0-7.16-.84-7.69-1.41-2.18-2.33-5.3-8.93-4.41-11,.44-1.05,9.27-2.94,17.19-2.94,3.57,0,4.79.45,5,.62C102.65,55,102.14,62.86,100.61,65.26Z" fill="#342e34"/><path d="M106.36,57.13S124.76.36,89.58,1.65c0,0-43.08-9.45-50,22.81-1.78,8.32,1.94,19.15-.45,38.87l39.7-33.54L72.63,47.43S94,25,95.38,22.74C95.38,22.74,102.93,33.19,106.36,57.13Z" fill="#595965"/><path d="M126.74,128.4q-2.64-.9-5.36-1.76c-7.22-2.27-14.66-4.19-20.52-5.62a3.16,3.16,0,0,1-.52-.17h0a5.24,5.24,0,0,1-.48-.23h0A5.05,5.05,0,0,1,99,120a2.31,2.31,0,0,0,.13-.92l-.82-13.2A2.32,2.32,0,0,0,96,103.69H93.9c-.1-1.13-.19-2.28-.26-3.44a77.4,77.4,0,0,0,8.55-9.71c2.57-3.48,3.75-9.21,4.2-15.71,8-1,5.38-8,7.49-14.52,2.57-8-.51-12.42-4.76-14.05C112.47,29.84,114.89.72,89.58,1.65A71.06,71.06,0,0,0,75.14.36V173h74.45s1.51-25.69-2.07-32.69C145.28,136,136.67,131.86,126.74,128.4Z" opacity="0.15"/><path d="M0,140.59V173H32.4A32.5,32.5,0,0,1,0,140.59Z" fill="#fff"/><path d="M117.6,173H150v-32.4A32.5,32.5,0,0,1,117.6,173Z" fill="#fff"/></svg>