<?xml version="1.0" encoding="UTF-8"?>
<svg width="36px" height="29px" viewBox="0 0 36 29" version="1.1" xmlns="http://www.w3.org/2000/svg" xmlns:xlink="http://www.w3.org/1999/xlink">
    <!-- Generator: Sketch 53.2 (72643) - https://sketchapp.com -->
    <title>“</title>
    <desc>Created with Sketch.</desc>
    <g id="Page-1" stroke="none" stroke-width="1" fill="none" fill-rule="evenodd">
        <path d="M32.40625,17.3710938 L29.9707031,28.9824219 L18.3027344,28.9824219 L20.4550781,18.7871094 C21.7011781,12.7076519 23.6741401,8.25196729 26.3740234,5.41992188 C29.0739067,2.58787646 32.25519,0.964194785 35.9179688,0.548828125 L35.0117188,5.0234375 C30.5937279,6.23177687 27.6106848,10.3476211 26.0625,17.3710938 L32.40625,17.3710938 Z M14.3378906,17.3710938 L11.9023438,28.9824219 L0.234375,28.9824219 L2.38671875,18.7871094 C3.63281873,12.7076519 5.60578077,8.25196729 8.30566406,5.41992188 C11.0055474,2.58787646 14.1868306,0.964194785 17.8496094,0.548828125 L16.9433594,5.0234375 C12.5253685,6.23177687 9.54232545,10.3476211 7.99414062,17.3710938 L14.3378906,17.3710938 Z" id="“" fill="#FFFFFF" fill-rule="nonzero"></path>
    </g>
</svg>