<?xml version="1.0" encoding="utf-8"?>
<!-- Generator: Adobe Illustrator 23.0.1, SVG Export Plug-In . SVG Version: 6.00 Build 0)  -->
<svg version="1.1" id="Layer_1" xmlns="http://www.w3.org/2000/svg" xmlns:xlink="http://www.w3.org/1999/xlink" x="0px" y="0px"
	 width="120px" height="120px" viewBox="0 0 120 120" style="enable-background:new 0 0 120 120;" xml:space="preserve">
<style type="text/css">
	.st0{fill-rule:evenodd;clip-rule:evenodd;fill:#FFFFFF;}
</style>
<g>
	<path class="st0" d="M80.1,32.4c-1.7,0-3.4,0.7-4.6,1.9c-1.2,1.2-1.9,2.9-1.9,4.6s0.7,3.4,1.9,4.6c1.2,1.2,2.9,1.9,4.6,1.9
		s3.4-0.7,4.6-1.9c1.2-1.2,1.9-2.9,1.9-4.6s-0.7-3.4-1.9-4.6C83.5,33.1,81.8,32.4,80.1,32.4z"/>
	<path class="st0" d="M28.4,75.9c-4.6,4.6-4.8,13.8-4.8,15.6c0,2.2,1.8,4,4,4h0.1c2.1,0,10.9-0.3,15.4-4.8c2.8-2.8,3.4-5.7,3.4-7.6
		c0-2.7-1.1-5.3-3.2-7.4C38.3,70.6,32,72.2,28.4,75.9z M37.5,84.9c-1,1-3.2,1.7-5.5,2c0.4-2.3,1.1-4.5,2-5.4c0.7-0.7,1.3-1.1,2-1.1
		c0.5,0,1.1,0.3,1.7,0.9c0.6,0.6,0.9,1.2,0.9,1.7C38.5,83.7,37.9,84.5,37.5,84.9z"/>
	<path class="st0" d="M105.2,17.4c-0.2-2-1.7-3.5-3.7-3.7c-25.3-2-43.4,10.3-54.7,25.7c-6.2-2-12.9-1.3-19,2.1
		c-5.9,3.3-10.8,8.9-14,15.7c-0.7,1.6-0.4,3.4,0.9,4.6c1.2,1.2,3.1,1.4,4.6,0.6C25.8,59,33,59.7,37.3,64l17.6,17.6
		c0,0,0.1,0.1,0.1,0.1c4.3,4.3,5,11.5,1.6,17.9c-0.8,1.5-0.5,3.4,0.6,4.6c0.8,0.8,1.8,1.2,2.9,1.2c0.6,0,1.2-0.1,1.7-0.4
		c6.8-3.2,12.4-8.2,15.7-14C81,85,81.7,78.3,79.6,72c4.5-3.3,8.6-6.9,12-10.9C102.1,48.9,106.7,34.2,105.2,17.4z M38.2,54.9
		c-3.4-1.8-7.3-2.7-11.3-2.6c4.3-4.2,9.7-6.8,15.4-5.8C40.8,49.2,39.4,52.1,38.2,54.9z M66.8,92.1c0.1-4.1-0.8-8-2.6-11.4
		c2.9-1.2,5.7-2.6,8.4-4.2C73.6,82.3,71.1,87.8,66.8,92.1z M58.8,74.2L44.7,60.1C51.8,41.2,69.4,21,97.5,21.5
		C98.4,55,70.8,69.5,58.8,74.2z"/>
</g>
</svg>
