<?xml version="1.0" encoding="utf-8"?>
<!-- Generator: Adobe Illustrator 23.0.1, SVG Export Plug-In . SVG Version: 6.00 Build 0)  -->
<svg version="1.1" id="Layer_1" xmlns="http://www.w3.org/2000/svg" xmlns:xlink="http://www.w3.org/1999/xlink" x="0px" y="0px"
	 width="120px" height="120px" viewBox="0 0 120 120" style="enable-background:new 0 0 120 120;" xml:space="preserve">
<style type="text/css">
	.st0{fill-rule:evenodd;clip-rule:evenodd;fill:#FFFFFF;}
</style>
<g>
	<path class="st0" d="M81.7,53.5c-1,0-2.1,0.4-2.8,1.2c-0.8,0.8-1.2,1.8-1.2,2.8c0,1.1,0.4,2.1,1.2,2.8c0.7,0.8,1.8,1.2,2.8,1.2
		c1.1,0,2.1-0.4,2.8-1.2c0.8-0.7,1.2-1.8,1.2-2.8s-0.4-2.1-1.2-2.8C83.8,53.9,82.8,53.5,81.7,53.5z"/>
	<path class="st0" d="M78.6,35.6c-1.9-0.3-3.7,1.1-4,3c-0.3,1.9,1,3.7,3,3.9c0.7,0.1,4.4,1.1,4.8,6.7c0.1,1.9,1.7,3.3,3.5,3.3
		c0.1,0,0.2,0,0.2,0c1.9-0.1,3.4-1.8,3.3-3.7C88.8,39.5,82.1,36.1,78.6,35.6z"/>
	<path class="st0" d="M101.2,37.5c-4.1-9.1-12.7-15-22-15C70,22.5,64,26.6,60.5,31c-3.5-4.4-9.5-8.5-18.8-8.5c-9.3,0-17.9,5.9-22,15
		c-4.2,9.5-2.4,20,4.9,28.2c17.5,19.7,33,33.6,33.2,33.7c0.8,0.7,1.7,1,2.7,1c1,0,1.9-0.3,2.7-1c0.2-0.1,15.6-14.1,33.2-33.7
		C103.7,57.5,105.5,47,101.2,37.5z M90.4,60.4c-13,14.5-24.8,25.9-29.9,30.7C55.4,86.3,43.6,75,30.6,60.4c-5.2-5.9-6.5-13-3.6-19.7
		c2.7-6.1,8.6-10.3,14.7-10.3c11.9,0,14.6,8.9,14.9,10c0.4,1.8,2,3,3.8,3h0c1.8,0,3.4-1.3,3.9-3c0.3-1,3-10,14.9-10
		c6,0,11.9,4.1,14.7,10.3C96.9,47.4,95.6,54.5,90.4,60.4z"/>
</g>
</svg>
