<?xml version="1.0" encoding="utf-8"?>
<!-- Generator: Adobe Illustrator 23.0.1, SVG Export Plug-In . SVG Version: 6.00 Build 0)  -->
<svg version="1.1" id="Layer_1" xmlns="http://www.w3.org/2000/svg" xmlns:xlink="http://www.w3.org/1999/xlink" x="0px" y="0px"
	 width="120px" height="120px" viewBox="0 0 120 120" style="enable-background:new 0 0 120 120;" xml:space="preserve">
<style type="text/css">
	.st0{fill-rule:evenodd;clip-rule:evenodd;fill:#FFFFFF;}
</style>
<g>
	<path class="st0" d="M64.7,97.2L54.8,98c-2.2,0.2-3.8,2.1-3.7,4.3c0.2,2.1,1.9,3.7,4,3.7c0.1,0,0.2,0,0.3,0l9.9-0.8
		c2.2-0.2,3.8-2.1,3.7-4.3C68.8,98.7,66.9,97.1,64.7,97.2z"/>
	<path class="st0" d="M73.4,84.6l-27.3,2c-2.2,0.2-3.8,2.1-3.7,4.3c0.2,2.1,1.9,3.7,4,3.7c0.1,0,0.2,0,0.3,0l27.3-2
		c2.2-0.2,3.8-2.1,3.7-4.3C77.5,86.1,75.6,84.4,73.4,84.6z"/>
	<path class="st0" d="M66.3,29c-1.8-0.6-3.8,0.3-4.4,2.1c-0.6,1.8,0.3,3.8,2.1,4.5c0.6,0.2,5.6,2.2,5,8c-0.2,1.9,1.2,3.6,3.1,3.8
		c0.1,0,0.2,0,0.3,0c1.8,0,3.3-1.4,3.5-3.2C76.8,35.2,70,30.3,66.3,29z"/>
	<path class="st0" d="M60,14c-16.4,0-30,13.6-30,30.3c0,10.2,4,18.4,12,23.9V78c0,1.1,0.7,2.2,1.5,2.9c0.7,0.7,1.8,1.1,2.8,1.1
		c0.1,0,0.3,0,0.4,0l27.5-2.2c2.1-0.2,3.9-1.9,3.9-4v-7.5c7-5.1,12-13.9,12-24C90,27.6,76.5,14,60,14z M72,62.5
		c-1.3,0.7-2,2.1-2,3.5v6.1l-20,1.6V66c0-1.4-0.6-2.7-1.8-3.5c-6.9-4-10.1-10-10.1-18.2C38.1,32,47.9,22,60,22c12.1,0,22,10,22,22.3
		C81.9,52.3,78.3,59.1,72,62.5z"/>
</g>
</svg>
